<?xml version="1.0" encoding="us-ascii" standalone="no"?><svg xmlns="http://www.w3.org/2000/svg" xmlns:xlink="http://www.w3.org/1999/xlink" contentStyleType="text/css" height="533px" preserveAspectRatio="none" style="width:2040px;height:533px;background:#FFFFFF;" version="1.1" viewBox="0 0 2040 533" width="2040px" zoomAndPan="magnify"><defs/><g><!--class Poligono--><g id="elem_Poligono"><rect codeLine="1" fill="#F1F1F1" height="97.4648" id="Poligono" rx="2.5" ry="2.5" style="stroke:#181818;stroke-width:0.5;" width="513" x="30.54" y="429.49"/><ellipse cx="252.29" cy="445.49" fill="#ADD1B2" rx="11" ry="11" style="stroke:#181818;stroke-width:1.0;"/><path d="M254.7631,451.6331 Q254.1821,451.9319 253.5429,452.0813 Q252.9038,452.2307 252.1982,452.2307 Q249.6914,452.2307 248.3715,450.5789 Q247.0517,448.927 247.0517,445.8059 Q247.0517,442.6765 248.3715,441.0247 Q249.6914,439.3728 252.1982,439.3728 Q252.9038,439.3728 253.5512,439.5222 Q254.1987,439.6716 254.7631,439.9705 L254.7631,442.6931 Q254.1323,442.1121 253.5388,441.8423 Q252.9453,441.5725 252.3144,441.5725 Q250.9697,441.5725 250.2849,442.6392 Q249.6001,443.7058 249.6001,445.8059 Q249.6001,447.8977 250.2849,448.9644 Q250.9697,450.031 252.3144,450.031 Q252.9453,450.031 253.5388,449.7612 Q254.1323,449.4915 254.7631,448.9104 Z " fill="#000000"/><text fill="#000000" font-family="sans-serif" font-size="14" lengthAdjust="spacing" textLength="61" x="272.79" y="450.781">Poligono</text><line style="stroke:#181818;stroke-width:0.5;" x1="31.54" x2="542.54" y1="461.49" y2="461.49"/><line style="stroke:#181818;stroke-width:0.5;" x1="31.54" x2="542.54" y1="469.49" y2="469.49"/><ellipse cx="41.54" cy="483.2341" fill="#84BE84" rx="3" ry="3" style="stroke:#038048;stroke-width:1.0;"/><text fill="#000000" font-family="sans-serif" font-size="14" lengthAdjust="spacing" textLength="487" x="50.54" y="487.0252">Poligono(_paiRef:Objeto, _rotulo:char, pontosPoligono:List&lt;Ponto4D&gt;)</text><ellipse cx="41.54" cy="499.7224" fill="#84BE84" rx="3" ry="3" style="stroke:#038048;stroke-width:1.0;"/><text fill="#000000" font-family="sans-serif" font-size="14" lengthAdjust="spacing" textLength="113" x="50.54" y="503.5134">Atualizar() : void</text><ellipse cx="41.54" cy="516.2107" fill="#84BE84" rx="3" ry="3" style="stroke:#038048;stroke-width:1.0;"/><text fill="#000000" font-family="sans-serif" font-size="14" lengthAdjust="spacing" textLength="196" x="50.54" y="520.0017">&#171;override&#187; ToString() : string</text></g><!--class Objeto--><g id="elem_Objeto"><rect fill="#F1F1F1" height="48" id="Objeto" rx="2.5" ry="2.5" style="stroke:#181818;stroke-width:0.5;" width="78" x="460.04" y="11.32"/><ellipse cx="475.04" cy="27.32" fill="#ADD1B2" rx="11" ry="11" style="stroke:#181818;stroke-width:1.0;"/><path d="M477.5131,33.4631 Q476.9321,33.7619 476.2929,33.9113 Q475.6538,34.0607 474.9482,34.0607 Q472.4414,34.0607 471.1215,32.4089 Q469.8017,30.757 469.8017,27.6359 Q469.8017,24.5065 471.1215,22.8547 Q472.4414,21.2028 474.9482,21.2028 Q475.6538,21.2028 476.3012,21.3522 Q476.9487,21.5016 477.5131,21.8005 L477.5131,24.5231 Q476.8823,23.9421 476.2888,23.6723 Q475.6953,23.4025 475.0644,23.4025 Q473.7197,23.4025 473.0349,24.4692 Q472.3501,25.5358 472.3501,27.6359 Q472.3501,29.7277 473.0349,30.7944 Q473.7197,31.861 475.0644,31.861 Q475.6953,31.861 476.2888,31.5912 Q476.8823,31.3215 477.5131,30.7404 Z " fill="#000000"/><text fill="#000000" font-family="sans-serif" font-size="14" lengthAdjust="spacing" textLength="46" x="489.04" y="32.611">Objeto</text><line style="stroke:#181818;stroke-width:0.5;" x1="461.04" x2="537.04" y1="43.32" y2="43.32"/><line style="stroke:#181818;stroke-width:0.5;" x1="461.04" x2="537.04" y1="51.32" y2="51.32"/></g><!--class Mundo--><g id="elem_Mundo"><rect codeLine="1" fill="#F1F1F1" height="64.4883" id="Mundo" rx="2.5" ry="2.5" style="stroke:#181818;stroke-width:0.5;" width="696" x="1337.04" y="214.31"/><ellipse cx="1656.79" cy="230.31" fill="#ADD1B2" rx="11" ry="11" style="stroke:#181818;stroke-width:1.0;"/><path d="M1659.2631,236.4531 Q1658.6821,236.7519 1658.0429,236.9013 Q1657.4038,237.0507 1656.6982,237.0507 Q1654.1914,237.0507 1652.8715,235.3989 Q1651.5517,233.747 1651.5517,230.6259 Q1651.5517,227.4965 1652.8715,225.8447 Q1654.1914,224.1928 1656.6982,224.1928 Q1657.4038,224.1928 1658.0512,224.3422 Q1658.6987,224.4916 1659.2631,224.7905 L1659.2631,227.5131 Q1658.6323,226.9321 1658.0388,226.6623 Q1657.4453,226.3925 1656.8144,226.3925 Q1655.4697,226.3925 1654.7849,227.4592 Q1654.1001,228.5258 1654.1001,230.6259 Q1654.1001,232.7177 1654.7849,233.7844 Q1655.4697,234.851 1656.8144,234.851 Q1657.4453,234.851 1658.0388,234.5812 Q1658.6323,234.3115 1659.2631,233.7304 Z " fill="#000000"/><text fill="#000000" font-family="sans-serif" font-size="14" lengthAdjust="spacing" textLength="48" x="1677.29" y="235.601">Mundo</text><line style="stroke:#181818;stroke-width:0.5;" x1="1338.04" x2="2032.04" y1="246.31" y2="246.31"/><line style="stroke:#181818;stroke-width:0.5;" x1="1338.04" x2="2032.04" y1="254.31" y2="254.31"/><ellipse cx="1348.04" cy="268.0541" fill="#84BE84" rx="3" ry="3" style="stroke:#038048;stroke-width:1.0;"/><text fill="#000000" font-family="sans-serif" font-size="14" lengthAdjust="spacing" textLength="670" x="1357.04" y="271.8452">Mundo(gameWindowSettings:GameWindowSettings, nativeWindowSettings:NativeWindowSettings)</text></g><!--class GameWindow--><g id="elem_GameWindow"><rect fill="#F1F1F1" height="48" id="GameWindow" rx="2.5" ry="2.5" style="stroke:#181818;stroke-width:0.5;" width="125" x="1622.54" y="11.32"/><ellipse cx="1637.54" cy="27.32" fill="#ADD1B2" rx="11" ry="11" style="stroke:#181818;stroke-width:1.0;"/><path d="M1640.0131,33.4631 Q1639.4321,33.7619 1638.7929,33.9113 Q1638.1538,34.0607 1637.4482,34.0607 Q1634.9414,34.0607 1633.6215,32.4089 Q1632.3017,30.757 1632.3017,27.6359 Q1632.3017,24.5065 1633.6215,22.8547 Q1634.9414,21.2028 1637.4482,21.2028 Q1638.1538,21.2028 1638.8012,21.3522 Q1639.4487,21.5016 1640.0131,21.8005 L1640.0131,24.5231 Q1639.3823,23.9421 1638.7888,23.6723 Q1638.1953,23.4025 1637.5644,23.4025 Q1636.2197,23.4025 1635.5349,24.4692 Q1634.8501,25.5358 1634.8501,27.6359 Q1634.8501,29.7277 1635.5349,30.7944 Q1636.2197,31.861 1637.5644,31.861 Q1638.1953,31.861 1638.7888,31.5912 Q1639.3823,31.3215 1640.0131,30.7404 Z " fill="#000000"/><text fill="#000000" font-family="sans-serif" font-size="14" lengthAdjust="spacing" textLength="93" x="1651.54" y="32.611">GameWindow</text><line style="stroke:#181818;stroke-width:0.5;" x1="1623.54" x2="1746.54" y1="43.32" y2="43.32"/><line style="stroke:#181818;stroke-width:0.5;" x1="1623.54" x2="1746.54" y1="51.32" y2="51.32"/></g><!--class SplineBezier--><g id="elem_SplineBezier"><rect codeLine="1" fill="#F1F1F1" height="245.8594" id="SplineBezier" rx="2.5" ry="2.5" style="stroke:#181818;stroke-width:0.5;" width="389" x="92.54" y="123.63"/><ellipse cx="240.79" cy="139.63" fill="#ADD1B2" rx="11" ry="11" style="stroke:#181818;stroke-width:1.0;"/><path d="M243.2631,145.7731 Q242.6821,146.0719 242.0429,146.2213 Q241.4038,146.3707 240.6982,146.3707 Q238.1914,146.3707 236.8715,144.7189 Q235.5517,143.067 235.5517,139.9459 Q235.5517,136.8165 236.8715,135.1647 Q238.1914,133.5128 240.6982,133.5128 Q241.4038,133.5128 242.0512,133.6622 Q242.6987,133.8116 243.2631,134.1105 L243.2631,136.8331 Q242.6323,136.2521 242.0388,135.9823 Q241.4453,135.7125 240.8144,135.7125 Q239.4697,135.7125 238.7849,136.7792 Q238.1001,137.8458 238.1001,139.9459 Q238.1001,142.0377 238.7849,143.1044 Q239.4697,144.171 240.8144,144.171 Q241.4453,144.171 242.0388,143.9012 Q242.6323,143.6315 243.2631,143.0504 Z " fill="#000000"/><text fill="#000000" font-family="sans-serif" font-size="14" lengthAdjust="spacing" textLength="84" x="261.29" y="144.921">SplineBezier</text><line style="stroke:#181818;stroke-width:0.5;" x1="93.54" x2="480.54" y1="155.63" y2="155.63"/><rect fill="none" height="6" style="stroke:#C82930;stroke-width:1.0;" width="6" x="100.54" y="166.3741"/><text fill="#000000" font-family="sans-serif" font-size="14" lengthAdjust="spacing" textLength="164" x="112.54" y="173.1652">ptoSelecionado : int = 0</text><rect fill="none" height="6" style="stroke:#C82930;stroke-width:1.0;" width="6" x="100.54" y="182.8624"/><text fill="#000000" font-family="sans-serif" font-size="14" lengthAdjust="spacing" textLength="120" x="112.54" y="189.6534">rotuloAtual : char</text><rect fill="none" height="6" style="stroke:#C82930;stroke-width:1.0;" width="6" x="100.54" y="199.3507"/><text fill="#000000" font-family="sans-serif" font-size="14" lengthAdjust="spacing" textLength="262" x="112.54" y="206.1417">&#171;readonly&#187; splineQtdPtoMax : int = 10</text><rect fill="none" height="6" style="stroke:#C82930;stroke-width:1.0;" width="6" x="100.54" y="215.839"/><text fill="#000000" font-family="sans-serif" font-size="14" lengthAdjust="spacing" textLength="155" x="112.54" y="222.63">splineQtdPto : int = 10</text><line style="stroke:#181818;stroke-width:0.5;" x1="93.54" x2="480.54" y1="229.5831" y2="229.5831"/><ellipse cx="103.54" cy="243.3273" fill="#84BE84" rx="3" ry="3" style="stroke:#038048;stroke-width:1.0;"/><text fill="#000000" font-family="sans-serif" font-size="14" lengthAdjust="spacing" textLength="182" x="112.54" y="247.1183">SplineQtdPto(inc:int) : void</text><rect fill="#F24D5C" height="6" style="stroke:#C82930;stroke-width:1.0;" width="6" x="100.54" y="256.8155"/><text fill="#000000" font-family="sans-serif" font-size="14" lengthAdjust="spacing" textLength="168" x="112.54" y="263.6066">BezierMatrizPeso() : void</text><ellipse cx="103.54" cy="276.3038" fill="#84BE84" rx="3" ry="3" style="stroke:#038048;stroke-width:1.0;"/><text fill="#000000" font-family="sans-serif" font-size="14" lengthAdjust="spacing" textLength="285" x="112.54" y="280.0948">SplineBezier(_paiRef:Objeto, _rotulo:char)</text><rect fill="#F24D5C" height="6" style="stroke:#C82930;stroke-width:1.0;" width="6" x="100.54" y="289.7921"/><text fill="#000000" font-family="sans-serif" font-size="14" lengthAdjust="spacing" textLength="158" x="112.54" y="296.5831">PontosControle() : void</text><rect fill="#F24D5C" height="6" style="stroke:#C82930;stroke-width:1.0;" width="6" x="100.54" y="306.2804"/><text fill="#000000" font-family="sans-serif" font-size="14" lengthAdjust="spacing" textLength="168" x="112.54" y="313.0714">PoliedroControle() : void</text><ellipse cx="103.54" cy="325.7687" fill="#84BE84" rx="3" ry="3" style="stroke:#038048;stroke-width:1.0;"/><text fill="#000000" font-family="sans-serif" font-size="14" lengthAdjust="spacing" textLength="113" x="112.54" y="329.5597">Atualizar() : void</text><ellipse cx="103.54" cy="342.257" fill="#84BE84" rx="3" ry="3" style="stroke:#038048;stroke-width:1.0;"/><text fill="#000000" font-family="sans-serif" font-size="14" lengthAdjust="spacing" textLength="363" x="112.54" y="346.048">AtualizarSpline(ptoInc:Ponto4D, proximo:bool) : void</text><ellipse cx="103.54" cy="358.7452" fill="#84BE84" rx="3" ry="3" style="stroke:#038048;stroke-width:1.0;"/><text fill="#000000" font-family="sans-serif" font-size="14" lengthAdjust="spacing" textLength="196" x="112.54" y="362.5363">&#171;override&#187; ToString() : string</text></g><!--class SplineInter--><g id="elem_SplineInter"><rect codeLine="1" fill="#F1F1F1" height="229.3711" id="SplineInter" rx="2.5" ry="2.5" style="stroke:#181818;stroke-width:0.5;" width="389" x="516.54" y="131.87"/><ellipse cx="669.79" cy="147.87" fill="#ADD1B2" rx="11" ry="11" style="stroke:#181818;stroke-width:1.0;"/><path d="M672.2631,154.0131 Q671.6821,154.3119 671.0429,154.4613 Q670.4038,154.6107 669.6982,154.6107 Q667.1914,154.6107 665.8715,152.9589 Q664.5517,151.307 664.5517,148.1859 Q664.5517,145.0565 665.8715,143.4047 Q667.1914,141.7528 669.6982,141.7528 Q670.4038,141.7528 671.0512,141.9022 Q671.6987,142.0516 672.2631,142.3505 L672.2631,145.0731 Q671.6323,144.4921 671.0388,144.2223 Q670.4453,143.9525 669.8144,143.9525 Q668.4697,143.9525 667.7849,145.0192 Q667.1001,146.0858 667.1001,148.1859 Q667.1001,150.2777 667.7849,151.3444 Q668.4697,152.411 669.8144,152.411 Q670.4453,152.411 671.0388,152.1412 Q671.6323,151.8715 672.2631,151.2904 Z " fill="#000000"/><text fill="#000000" font-family="sans-serif" font-size="14" lengthAdjust="spacing" textLength="74" x="690.29" y="153.161">SplineInter</text><line style="stroke:#181818;stroke-width:0.5;" x1="517.54" x2="904.54" y1="163.87" y2="163.87"/><rect fill="none" height="6" style="stroke:#C82930;stroke-width:1.0;" width="6" x="524.54" y="174.6141"/><text fill="#000000" font-family="sans-serif" font-size="14" lengthAdjust="spacing" textLength="164" x="536.54" y="181.4052">ptoSelecionado : int = 0</text><rect fill="none" height="6" style="stroke:#C82930;stroke-width:1.0;" width="6" x="524.54" y="191.1024"/><text fill="#000000" font-family="sans-serif" font-size="14" lengthAdjust="spacing" textLength="120" x="536.54" y="197.8934">rotuloAtual : char</text><rect fill="none" height="6" style="stroke:#C82930;stroke-width:1.0;" width="6" x="524.54" y="207.5907"/><text fill="#000000" font-family="sans-serif" font-size="14" lengthAdjust="spacing" textLength="262" x="536.54" y="214.3817">&#171;readonly&#187; splineQtdPtoMax : int = 10</text><rect fill="none" height="6" style="stroke:#C82930;stroke-width:1.0;" width="6" x="524.54" y="224.079"/><text fill="#000000" font-family="sans-serif" font-size="14" lengthAdjust="spacing" textLength="155" x="536.54" y="230.87">splineQtdPto : int = 10</text><line style="stroke:#181818;stroke-width:0.5;" x1="517.54" x2="904.54" y1="237.8231" y2="237.8231"/><ellipse cx="527.54" cy="251.5673" fill="#84BE84" rx="3" ry="3" style="stroke:#038048;stroke-width:1.0;"/><text fill="#000000" font-family="sans-serif" font-size="14" lengthAdjust="spacing" textLength="182" x="536.54" y="255.3583">SplineQtdPto(inc:int) : void</text><ellipse cx="527.54" cy="268.0555" fill="#84BE84" rx="3" ry="3" style="stroke:#038048;stroke-width:1.0;"/><text fill="#000000" font-family="sans-serif" font-size="14" lengthAdjust="spacing" textLength="275" x="536.54" y="271.8466">SplineInter(_paiRef:Objeto, _rotulo:char)</text><rect fill="#F24D5C" height="6" style="stroke:#C82930;stroke-width:1.0;" width="6" x="524.54" y="281.5438"/><text fill="#000000" font-family="sans-serif" font-size="14" lengthAdjust="spacing" textLength="158" x="536.54" y="288.3348">PontosControle() : void</text><rect fill="#F24D5C" height="6" style="stroke:#C82930;stroke-width:1.0;" width="6" x="524.54" y="298.0321"/><text fill="#000000" font-family="sans-serif" font-size="14" lengthAdjust="spacing" textLength="168" x="536.54" y="304.8231">PoliedroControle() : void</text><ellipse cx="527.54" cy="317.5204" fill="#84BE84" rx="3" ry="3" style="stroke:#038048;stroke-width:1.0;"/><text fill="#000000" font-family="sans-serif" font-size="14" lengthAdjust="spacing" textLength="113" x="536.54" y="321.3114">Atualizar() : void</text><ellipse cx="527.54" cy="334.0087" fill="#84BE84" rx="3" ry="3" style="stroke:#038048;stroke-width:1.0;"/><text fill="#000000" font-family="sans-serif" font-size="14" lengthAdjust="spacing" textLength="363" x="536.54" y="337.7997">AtualizarSpline(ptoInc:Ponto4D, proximo:bool) : void</text><ellipse cx="527.54" cy="350.497" fill="#84BE84" rx="3" ry="3" style="stroke:#038048;stroke-width:1.0;"/><text fill="#000000" font-family="sans-serif" font-size="14" lengthAdjust="spacing" textLength="196" x="536.54" y="354.288">&#171;override&#187; ToString() : string</text></g><!--class Ponto--><g id="elem_Ponto"><rect codeLine="1" fill="#F1F1F1" height="113.9531" id="Ponto" rx="2.5" ry="2.5" style="stroke:#181818;stroke-width:0.5;" width="361" x="940.54" y="189.58"/><ellipse cx="1096.79" cy="205.58" fill="#ADD1B2" rx="11" ry="11" style="stroke:#181818;stroke-width:1.0;"/><path d="M1099.2631,211.7231 Q1098.6821,212.0219 1098.0429,212.1713 Q1097.4038,212.3207 1096.6982,212.3207 Q1094.1914,212.3207 1092.8715,210.6689 Q1091.5517,209.017 1091.5517,205.8959 Q1091.5517,202.7665 1092.8715,201.1147 Q1094.1914,199.4628 1096.6982,199.4628 Q1097.4038,199.4628 1098.0512,199.6122 Q1098.6987,199.7616 1099.2631,200.0605 L1099.2631,202.7831 Q1098.6323,202.2021 1098.0388,201.9323 Q1097.4453,201.6625 1096.8144,201.6625 Q1095.4697,201.6625 1094.7849,202.7292 Q1094.1001,203.7958 1094.1001,205.8959 Q1094.1001,207.9877 1094.7849,209.0544 Q1095.4697,210.121 1096.8144,210.121 Q1097.4453,210.121 1098.0388,209.8512 Q1098.6323,209.5815 1099.2631,209.0004 Z " fill="#000000"/><text fill="#000000" font-family="sans-serif" font-size="14" lengthAdjust="spacing" textLength="40" x="1117.29" y="210.871">Ponto</text><line style="stroke:#181818;stroke-width:0.5;" x1="941.54" x2="1300.54" y1="221.58" y2="221.58"/><line style="stroke:#181818;stroke-width:0.5;" x1="941.54" x2="1300.54" y1="229.58" y2="229.58"/><ellipse cx="951.54" cy="243.3241" fill="#84BE84" rx="3" ry="3" style="stroke:#038048;stroke-width:1.0;"/><text fill="#000000" font-family="sans-serif" font-size="14" lengthAdjust="spacing" textLength="241" x="960.54" y="247.1152">Ponto(_paiRef:Objeto, _rotulo:char)</text><ellipse cx="951.54" cy="259.8124" fill="#84BE84" rx="3" ry="3" style="stroke:#038048;stroke-width:1.0;"/><text fill="#000000" font-family="sans-serif" font-size="14" lengthAdjust="spacing" textLength="335" x="960.54" y="263.6034">Ponto(_paiRef:Objeto, _rotulo:char, pto:Ponto4D)</text><ellipse cx="951.54" cy="276.3007" fill="#84BE84" rx="3" ry="3" style="stroke:#038048;stroke-width:1.0;"/><text fill="#000000" font-family="sans-serif" font-size="14" lengthAdjust="spacing" textLength="113" x="960.54" y="280.0917">Atualizar() : void</text><ellipse cx="951.54" cy="292.789" fill="#84BE84" rx="3" ry="3" style="stroke:#038048;stroke-width:1.0;"/><text fill="#000000" font-family="sans-serif" font-size="14" lengthAdjust="spacing" textLength="196" x="960.54" y="296.58">&#171;override&#187; ToString() : string</text></g><!--class Program--><g id="elem_Program"><rect codeLine="1" fill="#F1F1F1" height="56.6211" id="Program" rx="2.5" ry="2.5" style="stroke:#181818;stroke-width:0.5;" width="91" x="1782.54" y="7"/><ellipse cx="1797.54" cy="27.3105" fill="#ADD1B2" rx="11" ry="11" style="stroke:#181818;stroke-width:1.0;"/><path d="M1800.0131,33.4536 Q1799.4321,33.7524 1798.7929,33.9019 Q1798.1538,34.0513 1797.4482,34.0513 Q1794.9414,34.0513 1793.6215,32.3994 Q1792.3017,30.7476 1792.3017,27.6265 Q1792.3017,24.4971 1793.6215,22.8452 Q1794.9414,21.1934 1797.4482,21.1934 Q1798.1538,21.1934 1798.8012,21.3428 Q1799.4487,21.4922 1800.0131,21.791 L1800.0131,24.5137 Q1799.3823,23.9326 1798.7888,23.6628 Q1798.1953,23.3931 1797.5644,23.3931 Q1796.2197,23.3931 1795.5349,24.4597 Q1794.8501,25.5264 1794.8501,27.6265 Q1794.8501,29.7183 1795.5349,30.7849 Q1796.2197,31.8516 1797.5644,31.8516 Q1798.1953,31.8516 1798.7888,31.5818 Q1799.3823,31.312 1800.0131,30.731 Z " fill="#000000"/><text fill="#000000" font-family="sans-serif" font-size="12" font-style="italic" lengthAdjust="spacing" textLength="42" x="1820.04" y="23.6016">&#171;static&#187;</text><text fill="#000000" font-family="sans-serif" font-size="14" lengthAdjust="spacing" textLength="59" x="1811.54" y="39.668">Program</text><line style="stroke:#181818;stroke-width:0.5;" x1="1783.54" x2="1872.54" y1="47.6211" y2="47.6211"/><line style="stroke:#181818;stroke-width:0.5;" x1="1783.54" x2="1872.54" y1="55.6211" y2="55.6211"/></g><!--reverse link Objeto to Poligono--><g id="link_Objeto_Poligono"><path codeLine="6" d="M441.6923,39.3777 C345.9923,45.1177 123.47,64.2 75.04,123.63 C6,208.33 17.9,276.35 75.04,369.49 C90.42,394.56 113.66,414.02 139.2,429.05 " fill="none" id="Objeto-backto-Poligono" style="stroke:#181818;stroke-width:1.0;"/><polygon fill="none" points="459.66,38.3,441.3331,33.3885,442.0515,45.3669,459.66,38.3" style="stroke:#181818;stroke-width:1.0;"/></g><!--reverse link GameWindow to Mundo--><g id="link_GameWindow_Mundo"><path codeLine="4" d="M1685.04,77.51 C1685.04,115.17 1685.04,171.69 1685.04,214.1 " fill="none" id="GameWindow-backto-Mundo" style="stroke:#181818;stroke-width:1.0;"/><polygon fill="none" points="1685.04,59.51,1679.04,77.51,1691.04,77.51,1685.04,59.51" style="stroke:#181818;stroke-width:1.0;"/></g><!--reverse link Objeto to SplineBezier--><g id="link_Objeto_SplineBezier"><path codeLine="15" d="M462.7308,72.1561 C446.2408,88.4361 435.58,98.95 410.77,123.43 " fill="none" id="Objeto-backto-SplineBezier" style="stroke:#181818;stroke-width:1.0;"/><polygon fill="none" points="475.54,59.51,458.5154,67.8864,466.9461,76.4258,475.54,59.51" style="stroke:#181818;stroke-width:1.0;"/></g><!--link SplineBezier to Poligono--><g id="link_SplineBezier_Poligono"><path codeLine="16" d="M287.04,369.78 C287.04,390.89 287.04,405.66 287.04,423.22 " fill="none" id="SplineBezier-to-Poligono" style="stroke:#181818;stroke-width:1.0;"/><polygon fill="#181818" points="287.04,429.22,291.04,420.22,287.04,424.22,283.04,420.22,287.04,429.22" style="stroke:#181818;stroke-width:1.0;"/><text fill="#000000" font-family="sans-serif" font-size="13" lengthAdjust="spacing" textLength="106" x="173.5869" y="418.8645">poliedroControle</text></g><!--reverse link Objeto to SplineInter--><g id="link_Objeto_SplineInter"><path codeLine="14" d="M535.3481,72.1573 C553.6681,90.2473 567.8,104.18 595.61,131.63 " fill="none" id="Objeto-backto-SplineInter" style="stroke:#181818;stroke-width:1.0;"/><polygon fill="none" points="522.54,59.51,531.1323,76.4266,539.5638,67.8879,522.54,59.51" style="stroke:#181818;stroke-width:1.0;"/></g><!--link SplineInter to Poligono--><g id="link_SplineInter_Poligono"><path codeLine="15" d="M516.32,360.06 C510.5,363.26 504.73,366.4 499.04,369.49 C461.91,389.58 425.9777,408.109 389.7777,426.359 " fill="none" id="SplineInter-to-Poligono" style="stroke:#181818;stroke-width:1.0;"/><polygon fill="#181818" points="384.42,429.06,394.2572,428.5802,388.8847,426.8091,390.6558,421.4367,384.42,429.06" style="stroke:#181818;stroke-width:1.0;"/><text fill="#000000" font-family="sans-serif" font-size="13" lengthAdjust="spacing" textLength="106" x="405.5672" y="418.682">poliedroControle</text></g><!--reverse link Objeto to Ponto--><g id="link_Objeto_Ponto"><path codeLine="7" d="M556.2477,41.6201 C632.6977,49.3901 787.85,70.02 923.04,123.63 C965.26,140.37 1008.61,165.94 1043.94,189.35 " fill="none" id="Objeto-backto-Ponto" style="stroke:#181818;stroke-width:1.0;"/><polygon fill="none" points="538.34,39.8,555.6411,47.5893,556.8544,35.6508,538.34,39.8" style="stroke:#181818;stroke-width:1.0;"/></g><!--SRC=[KypCIyufJKbLqDCFoC_9JC_FozShACtDuL94IFYMvgLWYWONv6JcfJgbLcMc5k6GzCmhmI8Na9zNWcbSG55-Ub5YBbWS0000]--></g></svg>