<?xml version="1.0" encoding="us-ascii" standalone="no"?><svg xmlns="http://www.w3.org/2000/svg" xmlns:xlink="http://www.w3.org/1999/xlink" contentStyleType="text/css" height="475px" preserveAspectRatio="none" style="width:403px;height:475px;background:#FFFFFF;" version="1.1" viewBox="0 0 403 475" width="403px" zoomAndPan="magnify"><defs/><g><!--class SplineBezier--><g id="elem_SplineBezier"><rect codeLine="1" fill="#F1F1F1" height="245.8594" id="SplineBezier" rx="2.5" ry="2.5" style="stroke:#181818;stroke-width:0.5;" width="389" x="7" y="115"/><ellipse cx="155.25" cy="131" fill="#ADD1B2" rx="11" ry="11" style="stroke:#181818;stroke-width:1.0;"/><path d="M157.7231,137.1431 Q157.1421,137.4419 156.5029,137.5913 Q155.8638,137.7407 155.1582,137.7407 Q152.6514,137.7407 151.3315,136.0889 Q150.0117,134.437 150.0117,131.3159 Q150.0117,128.1865 151.3315,126.5347 Q152.6514,124.8828 155.1582,124.8828 Q155.8638,124.8828 156.5112,125.0322 Q157.1587,125.1816 157.7231,125.4805 L157.7231,128.2031 Q157.0923,127.6221 156.4988,127.3523 Q155.9053,127.0825 155.2744,127.0825 Q153.9297,127.0825 153.2449,128.1492 Q152.5601,129.2158 152.5601,131.3159 Q152.5601,133.4077 153.2449,134.4744 Q153.9297,135.541 155.2744,135.541 Q155.9053,135.541 156.4988,135.2712 Q157.0923,135.0015 157.7231,134.4204 Z " fill="#000000"/><text fill="#000000" font-family="sans-serif" font-size="14" lengthAdjust="spacing" textLength="84" x="175.75" y="136.291">SplineBezier</text><line style="stroke:#181818;stroke-width:0.5;" x1="8" x2="395" y1="147" y2="147"/><rect fill="none" height="6" style="stroke:#C82930;stroke-width:1.0;" width="6" x="15" y="157.7441"/><text fill="#000000" font-family="sans-serif" font-size="14" lengthAdjust="spacing" textLength="164" x="27" y="164.5352">ptoSelecionado : int = 0</text><rect fill="none" height="6" style="stroke:#C82930;stroke-width:1.0;" width="6" x="15" y="174.2324"/><text fill="#000000" font-family="sans-serif" font-size="14" lengthAdjust="spacing" textLength="120" x="27" y="181.0234">rotuloAtual : char</text><rect fill="none" height="6" style="stroke:#C82930;stroke-width:1.0;" width="6" x="15" y="190.7207"/><text fill="#000000" font-family="sans-serif" font-size="14" lengthAdjust="spacing" textLength="262" x="27" y="197.5117">&#171;readonly&#187; splineQtdPtoMax : int = 10</text><rect fill="none" height="6" style="stroke:#C82930;stroke-width:1.0;" width="6" x="15" y="207.209"/><text fill="#000000" font-family="sans-serif" font-size="14" lengthAdjust="spacing" textLength="155" x="27" y="214">splineQtdPto : int = 10</text><line style="stroke:#181818;stroke-width:0.5;" x1="8" x2="395" y1="220.9531" y2="220.9531"/><ellipse cx="18" cy="234.6973" fill="#84BE84" rx="3" ry="3" style="stroke:#038048;stroke-width:1.0;"/><text fill="#000000" font-family="sans-serif" font-size="14" lengthAdjust="spacing" textLength="182" x="27" y="238.4883">SplineQtdPto(inc:int) : void</text><rect fill="#F24D5C" height="6" style="stroke:#C82930;stroke-width:1.0;" width="6" x="15" y="248.1855"/><text fill="#000000" font-family="sans-serif" font-size="14" lengthAdjust="spacing" textLength="168" x="27" y="254.9766">BezierMatrizPeso() : void</text><ellipse cx="18" cy="267.6738" fill="#84BE84" rx="3" ry="3" style="stroke:#038048;stroke-width:1.0;"/><text fill="#000000" font-family="sans-serif" font-size="14" lengthAdjust="spacing" textLength="285" x="27" y="271.4648">SplineBezier(_paiRef:Objeto, _rotulo:char)</text><rect fill="#F24D5C" height="6" style="stroke:#C82930;stroke-width:1.0;" width="6" x="15" y="281.1621"/><text fill="#000000" font-family="sans-serif" font-size="14" lengthAdjust="spacing" textLength="158" x="27" y="287.9531">PontosControle() : void</text><rect fill="#F24D5C" height="6" style="stroke:#C82930;stroke-width:1.0;" width="6" x="15" y="297.6504"/><text fill="#000000" font-family="sans-serif" font-size="14" lengthAdjust="spacing" textLength="168" x="27" y="304.4414">PoliedroControle() : void</text><ellipse cx="18" cy="317.1387" fill="#84BE84" rx="3" ry="3" style="stroke:#038048;stroke-width:1.0;"/><text fill="#000000" font-family="sans-serif" font-size="14" lengthAdjust="spacing" textLength="113" x="27" y="320.9297">Atualizar() : void</text><ellipse cx="18" cy="333.627" fill="#84BE84" rx="3" ry="3" style="stroke:#038048;stroke-width:1.0;"/><text fill="#000000" font-family="sans-serif" font-size="14" lengthAdjust="spacing" textLength="363" x="27" y="337.418">AtualizarSpline(ptoInc:Ponto4D, proximo:bool) : void</text><ellipse cx="18" cy="350.1152" fill="#84BE84" rx="3" ry="3" style="stroke:#038048;stroke-width:1.0;"/><text fill="#000000" font-family="sans-serif" font-size="14" lengthAdjust="spacing" textLength="196" x="27" y="353.9063">&#171;override&#187; ToString() : string</text></g><!--class Objeto--><g id="elem_Objeto"><rect fill="#F1F1F1" height="48" id="Objeto" rx="2.5" ry="2.5" style="stroke:#181818;stroke-width:0.5;" width="78" x="162.5" y="7"/><ellipse cx="177.5" cy="23" fill="#ADD1B2" rx="11" ry="11" style="stroke:#181818;stroke-width:1.0;"/><path d="M179.9731,29.1431 Q179.3921,29.4419 178.7529,29.5913 Q178.1138,29.7407 177.4082,29.7407 Q174.9014,29.7407 173.5815,28.0889 Q172.2617,26.437 172.2617,23.3159 Q172.2617,20.1865 173.5815,18.5347 Q174.9014,16.8828 177.4082,16.8828 Q178.1138,16.8828 178.7612,17.0322 Q179.4087,17.1816 179.9731,17.4805 L179.9731,20.2031 Q179.3423,19.6221 178.7488,19.3523 Q178.1553,19.0825 177.5244,19.0825 Q176.1797,19.0825 175.4949,20.1492 Q174.8101,21.2158 174.8101,23.3159 Q174.8101,25.4077 175.4949,26.4744 Q176.1797,27.541 177.5244,27.541 Q178.1553,27.541 178.7488,27.2712 Q179.3423,27.0015 179.9731,26.4204 Z " fill="#000000"/><text fill="#000000" font-family="sans-serif" font-size="14" lengthAdjust="spacing" textLength="46" x="191.5" y="28.291">Objeto</text><line style="stroke:#181818;stroke-width:0.5;" x1="163.5" x2="239.5" y1="39" y2="39"/><line style="stroke:#181818;stroke-width:0.5;" x1="163.5" x2="239.5" y1="47" y2="47"/></g><!--class Poligono--><g id="elem_Poligono"><rect fill="#F1F1F1" height="48" id="Poligono" rx="2.5" ry="2.5" style="stroke:#181818;stroke-width:0.5;" width="93" x="155" y="420.86"/><ellipse cx="170" cy="436.86" fill="#ADD1B2" rx="11" ry="11" style="stroke:#181818;stroke-width:1.0;"/><path d="M172.4731,443.0031 Q171.8921,443.3019 171.2529,443.4513 Q170.6138,443.6007 169.9082,443.6007 Q167.4014,443.6007 166.0815,441.9489 Q164.7617,440.297 164.7617,437.1759 Q164.7617,434.0465 166.0815,432.3947 Q167.4014,430.7428 169.9082,430.7428 Q170.6138,430.7428 171.2612,430.8922 Q171.9087,431.0416 172.4731,431.3405 L172.4731,434.0631 Q171.8423,433.4821 171.2488,433.2123 Q170.6553,432.9425 170.0244,432.9425 Q168.6797,432.9425 167.9949,434.0092 Q167.3101,435.0758 167.3101,437.1759 Q167.3101,439.2677 167.9949,440.3344 Q168.6797,441.401 170.0244,441.401 Q170.6553,441.401 171.2488,441.1312 Q171.8423,440.8615 172.4731,440.2804 Z " fill="#000000"/><text fill="#000000" font-family="sans-serif" font-size="14" lengthAdjust="spacing" textLength="61" x="184" y="442.151">Poligono</text><line style="stroke:#181818;stroke-width:0.5;" x1="156" x2="247" y1="452.86" y2="452.86"/><line style="stroke:#181818;stroke-width:0.5;" x1="156" x2="247" y1="460.86" y2="460.86"/></g><!--reverse link Objeto to SplineBezier--><g id="link_Objeto_SplineBezier"><path codeLine="15" d="M201.5,73.11 C201.5,88.5 201.5,92.04 201.5,114.93 " fill="none" id="Objeto-backto-SplineBezier" style="stroke:#181818;stroke-width:1.0;"/><polygon fill="none" points="201.5,55.11,195.5,73.11,207.5,73.11,201.5,55.11" style="stroke:#181818;stroke-width:1.0;"/></g><!--link SplineBezier to Poligono--><g id="link_SplineBezier_Poligono"><path codeLine="16" d="M201.5,361.1 C201.5,383.9 201.5,399.35 201.5,414.69 " fill="none" id="SplineBezier-to-Poligono" style="stroke:#181818;stroke-width:1.0;"/><polygon fill="#181818" points="201.5,420.69,205.5,411.69,201.5,415.69,197.5,411.69,201.5,420.69" style="stroke:#181818;stroke-width:1.0;"/><text fill="#000000" font-family="sans-serif" font-size="13" lengthAdjust="spacing" textLength="106" x="81.9188" y="410.1827">poliedroControle</text></g><!--SRC=[TP5FJyCm3CNl_HJMJfswIY1ngaeb_bmuJ1JAVSfQCun273dPD0fyTq9Q4AqWXoZIptv-pscrSWuQgydW9VQ40cy9X9E3zToWnfROg8wX038Upk5anC9-h_d2xvKEh7rICeAo50mDHhzM5RYeVEUxslDQ7NzKJhzbVXVCQJOQ6sXAfYq2NuQo0rCt2WokryeBzJKwJYSycsHBDrRHFJuMjzjdzBo2pP2Y-BA_70LhDfxTLRY5DQQpSJLhmaxuRvv1N0ZrIlu5Ww4qhFSc18hJpgvNO8MFzCB5bbdFMikI3oX27OQDFd0JeffTr7VncNmaGo0et_DyaZYPV6sULx2mimIBc6d7XZy1]--></g></svg>