<?xml version="1.0" encoding="us-ascii" standalone="no"?><svg xmlns="http://www.w3.org/2000/svg" xmlns:xlink="http://www.w3.org/1999/xlink" contentStyleType="text/css" height="459px" preserveAspectRatio="none" style="width:403px;height:459px;background:#FFFFFF;" version="1.1" viewBox="0 0 403 459" width="403px" zoomAndPan="magnify"><defs/><g><!--class SplineInter--><g id="elem_SplineInter"><rect codeLine="1" fill="#F1F1F1" height="229.3711" id="SplineInter" rx="2.5" ry="2.5" style="stroke:#181818;stroke-width:0.5;" width="389" x="7" y="115"/><ellipse cx="160.25" cy="131" fill="#ADD1B2" rx="11" ry="11" style="stroke:#181818;stroke-width:1.0;"/><path d="M162.7231,137.1431 Q162.1421,137.4419 161.5029,137.5913 Q160.8638,137.7407 160.1582,137.7407 Q157.6514,137.7407 156.3315,136.0889 Q155.0117,134.437 155.0117,131.3159 Q155.0117,128.1865 156.3315,126.5347 Q157.6514,124.8828 160.1582,124.8828 Q160.8638,124.8828 161.5112,125.0322 Q162.1587,125.1816 162.7231,125.4805 L162.7231,128.2031 Q162.0923,127.6221 161.4988,127.3523 Q160.9053,127.0825 160.2744,127.0825 Q158.9297,127.0825 158.2449,128.1492 Q157.5601,129.2158 157.5601,131.3159 Q157.5601,133.4077 158.2449,134.4744 Q158.9297,135.541 160.2744,135.541 Q160.9053,135.541 161.4988,135.2712 Q162.0923,135.0015 162.7231,134.4204 Z " fill="#000000"/><text fill="#000000" font-family="sans-serif" font-size="14" lengthAdjust="spacing" textLength="74" x="180.75" y="136.291">SplineInter</text><line style="stroke:#181818;stroke-width:0.5;" x1="8" x2="395" y1="147" y2="147"/><rect fill="none" height="6" style="stroke:#C82930;stroke-width:1.0;" width="6" x="15" y="157.7441"/><text fill="#000000" font-family="sans-serif" font-size="14" lengthAdjust="spacing" textLength="164" x="27" y="164.5352">ptoSelecionado : int = 0</text><rect fill="none" height="6" style="stroke:#C82930;stroke-width:1.0;" width="6" x="15" y="174.2324"/><text fill="#000000" font-family="sans-serif" font-size="14" lengthAdjust="spacing" textLength="120" x="27" y="181.0234">rotuloAtual : char</text><rect fill="none" height="6" style="stroke:#C82930;stroke-width:1.0;" width="6" x="15" y="190.7207"/><text fill="#000000" font-family="sans-serif" font-size="14" lengthAdjust="spacing" textLength="262" x="27" y="197.5117">&#171;readonly&#187; splineQtdPtoMax : int = 10</text><rect fill="none" height="6" style="stroke:#C82930;stroke-width:1.0;" width="6" x="15" y="207.209"/><text fill="#000000" font-family="sans-serif" font-size="14" lengthAdjust="spacing" textLength="155" x="27" y="214">splineQtdPto : int = 10</text><line style="stroke:#181818;stroke-width:0.5;" x1="8" x2="395" y1="220.9531" y2="220.9531"/><ellipse cx="18" cy="234.6973" fill="#84BE84" rx="3" ry="3" style="stroke:#038048;stroke-width:1.0;"/><text fill="#000000" font-family="sans-serif" font-size="14" lengthAdjust="spacing" textLength="182" x="27" y="238.4883">SplineQtdPto(inc:int) : void</text><ellipse cx="18" cy="251.1855" fill="#84BE84" rx="3" ry="3" style="stroke:#038048;stroke-width:1.0;"/><text fill="#000000" font-family="sans-serif" font-size="14" lengthAdjust="spacing" textLength="275" x="27" y="254.9766">SplineInter(_paiRef:Objeto, _rotulo:char)</text><rect fill="#F24D5C" height="6" style="stroke:#C82930;stroke-width:1.0;" width="6" x="15" y="264.6738"/><text fill="#000000" font-family="sans-serif" font-size="14" lengthAdjust="spacing" textLength="158" x="27" y="271.4648">PontosControle() : void</text><rect fill="#F24D5C" height="6" style="stroke:#C82930;stroke-width:1.0;" width="6" x="15" y="281.1621"/><text fill="#000000" font-family="sans-serif" font-size="14" lengthAdjust="spacing" textLength="168" x="27" y="287.9531">PoliedroControle() : void</text><ellipse cx="18" cy="300.6504" fill="#84BE84" rx="3" ry="3" style="stroke:#038048;stroke-width:1.0;"/><text fill="#000000" font-family="sans-serif" font-size="14" lengthAdjust="spacing" textLength="113" x="27" y="304.4414">Atualizar() : void</text><ellipse cx="18" cy="317.1387" fill="#84BE84" rx="3" ry="3" style="stroke:#038048;stroke-width:1.0;"/><text fill="#000000" font-family="sans-serif" font-size="14" lengthAdjust="spacing" textLength="363" x="27" y="320.9297">AtualizarSpline(ptoInc:Ponto4D, proximo:bool) : void</text><ellipse cx="18" cy="333.627" fill="#84BE84" rx="3" ry="3" style="stroke:#038048;stroke-width:1.0;"/><text fill="#000000" font-family="sans-serif" font-size="14" lengthAdjust="spacing" textLength="196" x="27" y="337.418">&#171;override&#187; ToString() : string</text></g><!--class Objeto--><g id="elem_Objeto"><rect fill="#F1F1F1" height="48" id="Objeto" rx="2.5" ry="2.5" style="stroke:#181818;stroke-width:0.5;" width="78" x="162.5" y="7"/><ellipse cx="177.5" cy="23" fill="#ADD1B2" rx="11" ry="11" style="stroke:#181818;stroke-width:1.0;"/><path d="M179.9731,29.1431 Q179.3921,29.4419 178.7529,29.5913 Q178.1138,29.7407 177.4082,29.7407 Q174.9014,29.7407 173.5815,28.0889 Q172.2617,26.437 172.2617,23.3159 Q172.2617,20.1865 173.5815,18.5347 Q174.9014,16.8828 177.4082,16.8828 Q178.1138,16.8828 178.7612,17.0322 Q179.4087,17.1816 179.9731,17.4805 L179.9731,20.2031 Q179.3423,19.6221 178.7488,19.3523 Q178.1553,19.0825 177.5244,19.0825 Q176.1797,19.0825 175.4949,20.1492 Q174.8101,21.2158 174.8101,23.3159 Q174.8101,25.4077 175.4949,26.4744 Q176.1797,27.541 177.5244,27.541 Q178.1553,27.541 178.7488,27.2712 Q179.3423,27.0015 179.9731,26.4204 Z " fill="#000000"/><text fill="#000000" font-family="sans-serif" font-size="14" lengthAdjust="spacing" textLength="46" x="191.5" y="28.291">Objeto</text><line style="stroke:#181818;stroke-width:0.5;" x1="163.5" x2="239.5" y1="39" y2="39"/><line style="stroke:#181818;stroke-width:0.5;" x1="163.5" x2="239.5" y1="47" y2="47"/></g><!--class Poligono--><g id="elem_Poligono"><rect fill="#F1F1F1" height="48" id="Poligono" rx="2.5" ry="2.5" style="stroke:#181818;stroke-width:0.5;" width="93" x="155" y="404.37"/><ellipse cx="170" cy="420.37" fill="#ADD1B2" rx="11" ry="11" style="stroke:#181818;stroke-width:1.0;"/><path d="M172.4731,426.5131 Q171.8921,426.8119 171.2529,426.9613 Q170.6138,427.1107 169.9082,427.1107 Q167.4014,427.1107 166.0815,425.4589 Q164.7617,423.807 164.7617,420.6859 Q164.7617,417.5565 166.0815,415.9047 Q167.4014,414.2528 169.9082,414.2528 Q170.6138,414.2528 171.2612,414.4022 Q171.9087,414.5516 172.4731,414.8505 L172.4731,417.5731 Q171.8423,416.9921 171.2488,416.7223 Q170.6553,416.4525 170.0244,416.4525 Q168.6797,416.4525 167.9949,417.5192 Q167.3101,418.5858 167.3101,420.6859 Q167.3101,422.7777 167.9949,423.8444 Q168.6797,424.911 170.0244,424.911 Q170.6553,424.911 171.2488,424.6412 Q171.8423,424.3715 172.4731,423.7904 Z " fill="#000000"/><text fill="#000000" font-family="sans-serif" font-size="14" lengthAdjust="spacing" textLength="61" x="184" y="425.661">Poligono</text><line style="stroke:#181818;stroke-width:0.5;" x1="156" x2="247" y1="436.37" y2="436.37"/><line style="stroke:#181818;stroke-width:0.5;" x1="156" x2="247" y1="444.37" y2="444.37"/></g><!--reverse link Objeto to SplineInter--><g id="link_Objeto_SplineInter"><path codeLine="14" d="M201.5,73.33 C201.5,88.7 201.5,92.08 201.5,114.59 " fill="none" id="Objeto-backto-SplineInter" style="stroke:#181818;stroke-width:1.0;"/><polygon fill="none" points="201.5,55.33,195.5,73.33,207.5,73.33,201.5,55.33" style="stroke:#181818;stroke-width:1.0;"/></g><!--link SplineInter to Poligono--><g id="link_SplineInter_Poligono"><path codeLine="15" d="M201.5,344.81 C201.5,367.35 201.5,382.75 201.5,398.12 " fill="none" id="SplineInter-to-Poligono" style="stroke:#181818;stroke-width:1.0;"/><polygon fill="#181818" points="201.5,404.12,205.5,395.12,201.5,399.12,197.5,395.12,201.5,404.12" style="stroke:#181818;stroke-width:1.0;"/><text fill="#000000" font-family="sans-serif" font-size="13" lengthAdjust="spacing" textLength="106" x="81.9188" y="393.5922">poliedroControle</text></g><!--SRC=[TP5FJyCm3CNl_HJMJfssIY1nYaebn2ux80RbFcMj6KPP73dPDFvzTxAqeAw27A98F_lvFQSnsdkedI6BInjGu2E3U0fmWMiqs11RtJ8e81lW6YvwB1psXc_2Nfl8cXSjFIXBmTXWpLjLWK_23w5T1RxJnr-Lon-POS6OpdfV7St9DYhoQImxCBLd9SbwldQQ7l5PtMzUCV0Srfr9TN8txGUks0Rsj_4MDfYVgPse8Mo5_-OpI7dfNSk_eFEJn-qjezyqxMen1oTyf1sh3RCPjPOb7r24MemBU-8w2DbjqlVfcNrbNI0eFujY63WR_bjHL31n8_-Jb6ZBbhy1]--></g></svg>