<?xml version="1.0" encoding="us-ascii" standalone="no"?><svg xmlns="http://www.w3.org/2000/svg" xmlns:xlink="http://www.w3.org/1999/xlink" contentStyleType="text/css" height="244px" preserveAspectRatio="none" style="width:2310px;height:244px;background:#FFFFFF;" version="1.1" viewBox="0 0 2310 244" width="2310px" zoomAndPan="magnify"><defs/><g><!--class Mundo--><g id="elem_Mundo"><rect codeLine="1" fill="#F1F1F1" height="64.4883" id="Mundo" rx="2.5" ry="2.5" style="stroke:#181818;stroke-width:0.5;" width="696" x="7" y="148.35"/><ellipse cx="326.75" cy="164.35" fill="#ADD1B2" rx="11" ry="11" style="stroke:#181818;stroke-width:1.0;"/><path d="M329.2231,170.4931 Q328.6421,170.7919 328.0029,170.9413 Q327.3638,171.0907 326.6582,171.0907 Q324.1514,171.0907 322.8315,169.4389 Q321.5117,167.787 321.5117,164.6659 Q321.5117,161.5365 322.8315,159.8847 Q324.1514,158.2328 326.6582,158.2328 Q327.3638,158.2328 328.0112,158.3822 Q328.6587,158.5316 329.2231,158.8305 L329.2231,161.5531 Q328.5923,160.9721 327.9988,160.7023 Q327.4053,160.4325 326.7744,160.4325 Q325.4297,160.4325 324.7449,161.4992 Q324.0601,162.5658 324.0601,164.6659 Q324.0601,166.7577 324.7449,167.8244 Q325.4297,168.891 326.7744,168.891 Q327.4053,168.891 327.9988,168.6212 Q328.5923,168.3515 329.2231,167.7704 Z " fill="#000000"/><text fill="#000000" font-family="sans-serif" font-size="14" lengthAdjust="spacing" textLength="48" x="347.25" y="169.641">Mundo</text><line style="stroke:#181818;stroke-width:0.5;" x1="8" x2="702" y1="180.35" y2="180.35"/><line style="stroke:#181818;stroke-width:0.5;" x1="8" x2="702" y1="188.35" y2="188.35"/><ellipse cx="18" cy="202.0941" fill="#84BE84" rx="3" ry="3" style="stroke:#038048;stroke-width:1.0;"/><text fill="#000000" font-family="sans-serif" font-size="14" lengthAdjust="spacing" textLength="670" x="27" y="205.8852">Mundo(gameWindowSettings:GameWindowSettings, nativeWindowSettings:NativeWindowSettings)</text></g><!--class GameWindow--><g id="elem_GameWindow"><rect fill="#F1F1F1" height="48" id="GameWindow" rx="2.5" ry="2.5" style="stroke:#181818;stroke-width:0.5;" width="125" x="292.5" y="11.31"/><ellipse cx="307.5" cy="27.31" fill="#ADD1B2" rx="11" ry="11" style="stroke:#181818;stroke-width:1.0;"/><path d="M309.9731,33.4531 Q309.3921,33.7519 308.7529,33.9013 Q308.1138,34.0507 307.4082,34.0507 Q304.9014,34.0507 303.5815,32.3989 Q302.2617,30.747 302.2617,27.6259 Q302.2617,24.4965 303.5815,22.8447 Q304.9014,21.1928 307.4082,21.1928 Q308.1138,21.1928 308.7612,21.3422 Q309.4087,21.4916 309.9731,21.7905 L309.9731,24.5131 Q309.3423,23.9321 308.7488,23.6623 Q308.1553,23.3925 307.5244,23.3925 Q306.1797,23.3925 305.4949,24.4592 Q304.8101,25.5258 304.8101,27.6259 Q304.8101,29.7177 305.4949,30.7844 Q306.1797,31.851 307.5244,31.851 Q308.1553,31.851 308.7488,31.5812 Q309.3423,31.3115 309.9731,30.7304 Z " fill="#000000"/><text fill="#000000" font-family="sans-serif" font-size="14" lengthAdjust="spacing" textLength="93" x="321.5" y="32.601">GameWindow</text><line style="stroke:#181818;stroke-width:0.5;" x1="293.5" x2="416.5" y1="43.31" y2="43.31"/><line style="stroke:#181818;stroke-width:0.5;" x1="293.5" x2="416.5" y1="51.31" y2="51.31"/></g><!--class Retangulo--><g id="elem_Retangulo"><rect codeLine="1" fill="#F1F1F1" height="113.9531" id="Retangulo" rx="2.5" ry="2.5" style="stroke:#181818;stroke-width:0.5;" width="573" x="738.5" y="123.62"/><ellipse cx="985.75" cy="139.62" fill="#ADD1B2" rx="11" ry="11" style="stroke:#181818;stroke-width:1.0;"/><path d="M988.2231,145.7631 Q987.6421,146.0619 987.0029,146.2113 Q986.3638,146.3607 985.6582,146.3607 Q983.1514,146.3607 981.8315,144.7089 Q980.5117,143.057 980.5117,139.9359 Q980.5117,136.8065 981.8315,135.1547 Q983.1514,133.5028 985.6582,133.5028 Q986.3638,133.5028 987.0112,133.6522 Q987.6587,133.8016 988.2231,134.1005 L988.2231,136.8231 Q987.5923,136.2421 986.9988,135.9723 Q986.4053,135.7025 985.7744,135.7025 Q984.4297,135.7025 983.7449,136.7692 Q983.0601,137.8358 983.0601,139.9359 Q983.0601,142.0277 983.7449,143.0944 Q984.4297,144.161 985.7744,144.161 Q986.4053,144.161 986.9988,143.8912 Q987.5923,143.6215 988.2231,143.0404 Z " fill="#000000"/><text fill="#000000" font-family="sans-serif" font-size="14" lengthAdjust="spacing" textLength="70" x="1006.25" y="144.911">Retangulo</text><line style="stroke:#181818;stroke-width:0.5;" x1="739.5" x2="1310.5" y1="155.62" y2="155.62"/><line style="stroke:#181818;stroke-width:0.5;" x1="739.5" x2="1310.5" y1="163.62" y2="163.62"/><ellipse cx="749.5" cy="177.3641" fill="#84BE84" rx="3" ry="3" style="stroke:#038048;stroke-width:1.0;"/><text fill="#000000" font-family="sans-serif" font-size="14" lengthAdjust="spacing" textLength="271" x="758.5" y="181.1552">Retangulo(_paiRef:Objeto, _rotulo:char)</text><ellipse cx="749.5" cy="193.8524" fill="#84BE84" rx="3" ry="3" style="stroke:#038048;stroke-width:1.0;"/><text fill="#000000" font-family="sans-serif" font-size="14" lengthAdjust="spacing" textLength="547" x="758.5" y="197.6434">Retangulo(_paiRef:Objeto, _rotulo:char, ptoInfEsq:Ponto4D, ptoSupDir:Ponto4D)</text><ellipse cx="749.5" cy="210.3407" fill="#84BE84" rx="3" ry="3" style="stroke:#038048;stroke-width:1.0;"/><text fill="#000000" font-family="sans-serif" font-size="14" lengthAdjust="spacing" textLength="113" x="758.5" y="214.1317">Atualizar() : void</text><ellipse cx="749.5" cy="226.829" fill="#84BE84" rx="3" ry="3" style="stroke:#038048;stroke-width:1.0;"/><text fill="#000000" font-family="sans-serif" font-size="14" lengthAdjust="spacing" textLength="196" x="758.5" y="230.62">&#171;override&#187; ToString() : string</text></g><!--class Objeto--><g id="elem_Objeto"><rect fill="#F1F1F1" height="48" id="Objeto" rx="2.5" ry="2.5" style="stroke:#181818;stroke-width:0.5;" width="78" x="1488" y="11.31"/><ellipse cx="1503" cy="27.31" fill="#ADD1B2" rx="11" ry="11" style="stroke:#181818;stroke-width:1.0;"/><path d="M1505.4731,33.4531 Q1504.8921,33.7519 1504.2529,33.9013 Q1503.6138,34.0507 1502.9082,34.0507 Q1500.4014,34.0507 1499.0815,32.3989 Q1497.7617,30.747 1497.7617,27.6259 Q1497.7617,24.4965 1499.0815,22.8447 Q1500.4014,21.1928 1502.9082,21.1928 Q1503.6138,21.1928 1504.2612,21.3422 Q1504.9087,21.4916 1505.4731,21.7905 L1505.4731,24.5131 Q1504.8423,23.9321 1504.2488,23.6623 Q1503.6553,23.3925 1503.0244,23.3925 Q1501.6797,23.3925 1500.9949,24.4592 Q1500.3101,25.5258 1500.3101,27.6259 Q1500.3101,29.7177 1500.9949,30.7844 Q1501.6797,31.851 1503.0244,31.851 Q1503.6553,31.851 1504.2488,31.5812 Q1504.8423,31.3115 1505.4731,30.7304 Z " fill="#000000"/><text fill="#000000" font-family="sans-serif" font-size="14" lengthAdjust="spacing" textLength="46" x="1517" y="32.601">Objeto</text><line style="stroke:#181818;stroke-width:0.5;" x1="1489" x2="1565" y1="43.31" y2="43.31"/><line style="stroke:#181818;stroke-width:0.5;" x1="1489" x2="1565" y1="51.31" y2="51.31"/></g><!--class Ponto--><g id="elem_Ponto"><rect codeLine="1" fill="#F1F1F1" height="113.9531" id="Ponto" rx="2.5" ry="2.5" style="stroke:#181818;stroke-width:0.5;" width="361" x="1346.5" y="123.62"/><ellipse cx="1502.75" cy="139.62" fill="#ADD1B2" rx="11" ry="11" style="stroke:#181818;stroke-width:1.0;"/><path d="M1505.2231,145.7631 Q1504.6421,146.0619 1504.0029,146.2113 Q1503.3638,146.3607 1502.6582,146.3607 Q1500.1514,146.3607 1498.8315,144.7089 Q1497.5117,143.057 1497.5117,139.9359 Q1497.5117,136.8065 1498.8315,135.1547 Q1500.1514,133.5028 1502.6582,133.5028 Q1503.3638,133.5028 1504.0112,133.6522 Q1504.6587,133.8016 1505.2231,134.1005 L1505.2231,136.8231 Q1504.5923,136.2421 1503.9988,135.9723 Q1503.4053,135.7025 1502.7744,135.7025 Q1501.4297,135.7025 1500.7449,136.7692 Q1500.0601,137.8358 1500.0601,139.9359 Q1500.0601,142.0277 1500.7449,143.0944 Q1501.4297,144.161 1502.7744,144.161 Q1503.4053,144.161 1503.9988,143.8912 Q1504.5923,143.6215 1505.2231,143.0404 Z " fill="#000000"/><text fill="#000000" font-family="sans-serif" font-size="14" lengthAdjust="spacing" textLength="40" x="1523.25" y="144.911">Ponto</text><line style="stroke:#181818;stroke-width:0.5;" x1="1347.5" x2="1706.5" y1="155.62" y2="155.62"/><line style="stroke:#181818;stroke-width:0.5;" x1="1347.5" x2="1706.5" y1="163.62" y2="163.62"/><ellipse cx="1357.5" cy="177.3641" fill="#84BE84" rx="3" ry="3" style="stroke:#038048;stroke-width:1.0;"/><text fill="#000000" font-family="sans-serif" font-size="14" lengthAdjust="spacing" textLength="241" x="1366.5" y="181.1552">Ponto(_paiRef:Objeto, _rotulo:char)</text><ellipse cx="1357.5" cy="193.8524" fill="#84BE84" rx="3" ry="3" style="stroke:#038048;stroke-width:1.0;"/><text fill="#000000" font-family="sans-serif" font-size="14" lengthAdjust="spacing" textLength="335" x="1366.5" y="197.6434">Ponto(_paiRef:Objeto, _rotulo:char, pto:Ponto4D)</text><ellipse cx="1357.5" cy="210.3407" fill="#84BE84" rx="3" ry="3" style="stroke:#038048;stroke-width:1.0;"/><text fill="#000000" font-family="sans-serif" font-size="14" lengthAdjust="spacing" textLength="113" x="1366.5" y="214.1317">Atualizar() : void</text><ellipse cx="1357.5" cy="226.829" fill="#84BE84" rx="3" ry="3" style="stroke:#038048;stroke-width:1.0;"/><text fill="#000000" font-family="sans-serif" font-size="14" lengthAdjust="spacing" textLength="196" x="1366.5" y="230.62">&#171;override&#187; ToString() : string</text></g><!--class Circulo--><g id="elem_Circulo"><rect codeLine="1" fill="#F1F1F1" height="113.9531" id="Circulo" rx="2.5" ry="2.5" style="stroke:#181818;stroke-width:0.5;" width="561" x="1742.5" y="123.62"/><ellipse cx="1994.25" cy="139.62" fill="#ADD1B2" rx="11" ry="11" style="stroke:#181818;stroke-width:1.0;"/><path d="M1996.7231,145.7631 Q1996.1421,146.0619 1995.5029,146.2113 Q1994.8638,146.3607 1994.1582,146.3607 Q1991.6514,146.3607 1990.3315,144.7089 Q1989.0117,143.057 1989.0117,139.9359 Q1989.0117,136.8065 1990.3315,135.1547 Q1991.6514,133.5028 1994.1582,133.5028 Q1994.8638,133.5028 1995.5112,133.6522 Q1996.1587,133.8016 1996.7231,134.1005 L1996.7231,136.8231 Q1996.0923,136.2421 1995.4988,135.9723 Q1994.9053,135.7025 1994.2744,135.7025 Q1992.9297,135.7025 1992.2449,136.7692 Q1991.5601,137.8358 1991.5601,139.9359 Q1991.5601,142.0277 1992.2449,143.0944 Q1992.9297,144.161 1994.2744,144.161 Q1994.9053,144.161 1995.4988,143.8912 Q1996.0923,143.6215 1996.7231,143.0404 Z " fill="#000000"/><text fill="#000000" font-family="sans-serif" font-size="14" lengthAdjust="spacing" textLength="49" x="2014.75" y="144.911">Circulo</text><line style="stroke:#181818;stroke-width:0.5;" x1="1743.5" x2="2302.5" y1="155.62" y2="155.62"/><line style="stroke:#181818;stroke-width:0.5;" x1="1743.5" x2="2302.5" y1="163.62" y2="163.62"/><ellipse cx="1753.5" cy="177.3641" fill="#84BE84" rx="3" ry="3" style="stroke:#038048;stroke-width:1.0;"/><text fill="#000000" font-family="sans-serif" font-size="14" lengthAdjust="spacing" textLength="344" x="1762.5" y="181.1552">Circulo(_paiRef:Objeto, _rotulo:char, _raio:double)</text><ellipse cx="1753.5" cy="193.8524" fill="#84BE84" rx="3" ry="3" style="stroke:#038048;stroke-width:1.0;"/><text fill="#000000" font-family="sans-serif" font-size="14" lengthAdjust="spacing" textLength="535" x="1762.5" y="197.6434">Circulo(_paiRef:Objeto, _rotulo:char, _raio:double, ptoDeslocamento:Ponto4D)</text><ellipse cx="1753.5" cy="210.3407" fill="#84BE84" rx="3" ry="3" style="stroke:#038048;stroke-width:1.0;"/><text fill="#000000" font-family="sans-serif" font-size="14" lengthAdjust="spacing" textLength="296" x="1762.5" y="214.1317">Atualizar(ptoDeslocamento:Ponto4D) : void</text><ellipse cx="1753.5" cy="226.829" fill="#84BE84" rx="3" ry="3" style="stroke:#038048;stroke-width:1.0;"/><text fill="#000000" font-family="sans-serif" font-size="14" lengthAdjust="spacing" textLength="196" x="1762.5" y="230.62">&#171;override&#187; ToString() : string</text></g><!--class Program--><g id="elem_Program"><rect codeLine="1" fill="#F1F1F1" height="56.6211" id="Program" rx="2.5" ry="2.5" style="stroke:#181818;stroke-width:0.5;" width="91" x="1600.5" y="7"/><ellipse cx="1615.5" cy="27.3105" fill="#ADD1B2" rx="11" ry="11" style="stroke:#181818;stroke-width:1.0;"/><path d="M1617.9731,33.4536 Q1617.3921,33.7524 1616.7529,33.9019 Q1616.1138,34.0513 1615.4082,34.0513 Q1612.9014,34.0513 1611.5815,32.3994 Q1610.2617,30.7476 1610.2617,27.6265 Q1610.2617,24.4971 1611.5815,22.8452 Q1612.9014,21.1934 1615.4082,21.1934 Q1616.1138,21.1934 1616.7612,21.3428 Q1617.4087,21.4922 1617.9731,21.791 L1617.9731,24.5137 Q1617.3423,23.9326 1616.7488,23.6628 Q1616.1553,23.3931 1615.5244,23.3931 Q1614.1797,23.3931 1613.4949,24.4597 Q1612.8101,25.5264 1612.8101,27.6265 Q1612.8101,29.7183 1613.4949,30.7849 Q1614.1797,31.8516 1615.5244,31.8516 Q1616.1553,31.8516 1616.7488,31.5818 Q1617.3423,31.312 1617.9731,30.731 Z " fill="#000000"/><text fill="#000000" font-family="sans-serif" font-size="12" font-style="italic" lengthAdjust="spacing" textLength="42" x="1638" y="23.6016">&#171;static&#187;</text><text fill="#000000" font-family="sans-serif" font-size="14" lengthAdjust="spacing" textLength="59" x="1629.5" y="39.668">Program</text><line style="stroke:#181818;stroke-width:0.5;" x1="1601.5" x2="1690.5" y1="47.6211" y2="47.6211"/><line style="stroke:#181818;stroke-width:0.5;" x1="1601.5" x2="1690.5" y1="55.6211" y2="55.6211"/></g><!--reverse link GameWindow to Mundo--><g id="link_GameWindow_Mundo"><path codeLine="4" d="M355,77.65 C355,101.67 355,121.27 355,147.96 " fill="none" id="GameWindow-backto-Mundo" style="stroke:#181818;stroke-width:1.0;"/><polygon fill="none" points="355,59.65,349,77.65,361,77.65,355,59.65" style="stroke:#181818;stroke-width:1.0;"/></g><!--reverse link Objeto to Retangulo--><g id="link_Objeto_Retangulo"><path codeLine="7" d="M1470.3017,52.4918 C1413.2117,68.7918 1320.85,95.15 1222.62,123.19 " fill="none" id="Objeto-backto-Retangulo" style="stroke:#181818;stroke-width:1.0;"/><polygon fill="none" points="1487.61,47.55,1468.6544,46.7223,1471.9489,58.2612,1487.61,47.55" style="stroke:#181818;stroke-width:1.0;"/></g><!--reverse link Objeto to Ponto--><g id="link_Objeto_Ponto"><path codeLine="7" d="M1527,77.65 C1527,94.86 1527,101.02 1527,123.16 " fill="none" id="Objeto-backto-Ponto" style="stroke:#181818;stroke-width:1.0;"/><polygon fill="none" points="1527,59.65,1521,77.65,1533,77.65,1527,59.65" style="stroke:#181818;stroke-width:1.0;"/></g><!--reverse link Objeto to Circulo--><g id="link_Objeto_Circulo"><path codeLine="7" d="M1582.7356,64.1307 C1588.2556,66.6407 1577.52,61.58 1583,63.62 C1644,86.28 1711.3,106.37 1774.53,123.19 " fill="none" id="Objeto-backto-Circulo" style="stroke:#181818;stroke-width:1.0;"/><polygon fill="none" points="1566.35,56.68,1580.252,69.5925,1585.2191,58.6688,1566.35,56.68" style="stroke:#181818;stroke-width:1.0;"/></g><!--SRC=[KypCIyufJKbLqDFtBSrBoTShACtDuL94Y0QbbYJcfPVcOCe4vEULO8ewPnObOrLTb9zUb9WB5WS0]--></g></svg>