<?xml version="1.0" encoding="us-ascii" standalone="no"?><svg xmlns="http://www.w3.org/2000/svg" xmlns:xlink="http://www.w3.org/1999/xlink" contentStyleType="text/css" height="244px" preserveAspectRatio="none" style="width:1318px;height:244px;background:#FFFFFF;" version="1.1" viewBox="0 0 1318 244" width="1318px" zoomAndPan="magnify"><defs/><g><!--class Mundo--><g id="elem_Mundo"><rect codeLine="1" fill="#F1F1F1" height="64.4883" id="Mundo" rx="2.5" ry="2.5" style="stroke:#181818;stroke-width:0.5;" width="696" x="7" y="148.35"/><ellipse cx="326.75" cy="164.35" fill="#ADD1B2" rx="11" ry="11" style="stroke:#181818;stroke-width:1.0;"/><path d="M329.2231,170.4931 Q328.6421,170.7919 328.0029,170.9413 Q327.3638,171.0907 326.6582,171.0907 Q324.1514,171.0907 322.8315,169.4389 Q321.5117,167.787 321.5117,164.6659 Q321.5117,161.5365 322.8315,159.8847 Q324.1514,158.2328 326.6582,158.2328 Q327.3638,158.2328 328.0112,158.3822 Q328.6587,158.5316 329.2231,158.8305 L329.2231,161.5531 Q328.5923,160.9721 327.9988,160.7023 Q327.4053,160.4325 326.7744,160.4325 Q325.4297,160.4325 324.7449,161.4992 Q324.0601,162.5658 324.0601,164.6659 Q324.0601,166.7577 324.7449,167.8244 Q325.4297,168.891 326.7744,168.891 Q327.4053,168.891 327.9988,168.6212 Q328.5923,168.3515 329.2231,167.7704 Z " fill="#000000"/><text fill="#000000" font-family="sans-serif" font-size="14" lengthAdjust="spacing" textLength="48" x="347.25" y="169.641">Mundo</text><line style="stroke:#181818;stroke-width:0.5;" x1="8" x2="702" y1="180.35" y2="180.35"/><line style="stroke:#181818;stroke-width:0.5;" x1="8" x2="702" y1="188.35" y2="188.35"/><ellipse cx="18" cy="202.0941" fill="#84BE84" rx="3" ry="3" style="stroke:#038048;stroke-width:1.0;"/><text fill="#000000" font-family="sans-serif" font-size="14" lengthAdjust="spacing" textLength="670" x="27" y="205.8852">Mundo(gameWindowSettings:GameWindowSettings, nativeWindowSettings:NativeWindowSettings)</text></g><!--class GameWindow--><g id="elem_GameWindow"><rect fill="#F1F1F1" height="48" id="GameWindow" rx="2.5" ry="2.5" style="stroke:#181818;stroke-width:0.5;" width="125" x="292.5" y="11.31"/><ellipse cx="307.5" cy="27.31" fill="#ADD1B2" rx="11" ry="11" style="stroke:#181818;stroke-width:1.0;"/><path d="M309.9731,33.4531 Q309.3921,33.7519 308.7529,33.9013 Q308.1138,34.0507 307.4082,34.0507 Q304.9014,34.0507 303.5815,32.3989 Q302.2617,30.747 302.2617,27.6259 Q302.2617,24.4965 303.5815,22.8447 Q304.9014,21.1928 307.4082,21.1928 Q308.1138,21.1928 308.7612,21.3422 Q309.4087,21.4916 309.9731,21.7905 L309.9731,24.5131 Q309.3423,23.9321 308.7488,23.6623 Q308.1553,23.3925 307.5244,23.3925 Q306.1797,23.3925 305.4949,24.4592 Q304.8101,25.5258 304.8101,27.6259 Q304.8101,29.7177 305.4949,30.7844 Q306.1797,31.851 307.5244,31.851 Q308.1553,31.851 308.7488,31.5812 Q309.3423,31.3115 309.9731,30.7304 Z " fill="#000000"/><text fill="#000000" font-family="sans-serif" font-size="14" lengthAdjust="spacing" textLength="93" x="321.5" y="32.601">GameWindow</text><line style="stroke:#181818;stroke-width:0.5;" x1="293.5" x2="416.5" y1="43.31" y2="43.31"/><line style="stroke:#181818;stroke-width:0.5;" x1="293.5" x2="416.5" y1="51.31" y2="51.31"/></g><!--class Retangulo--><g id="elem_Retangulo"><rect codeLine="1" fill="#F1F1F1" height="113.9531" id="Retangulo" rx="2.5" ry="2.5" style="stroke:#181818;stroke-width:0.5;" width="573" x="738.5" y="123.62"/><ellipse cx="985.75" cy="139.62" fill="#ADD1B2" rx="11" ry="11" style="stroke:#181818;stroke-width:1.0;"/><path d="M988.2231,145.7631 Q987.6421,146.0619 987.0029,146.2113 Q986.3638,146.3607 985.6582,146.3607 Q983.1514,146.3607 981.8315,144.7089 Q980.5117,143.057 980.5117,139.9359 Q980.5117,136.8065 981.8315,135.1547 Q983.1514,133.5028 985.6582,133.5028 Q986.3638,133.5028 987.0112,133.6522 Q987.6587,133.8016 988.2231,134.1005 L988.2231,136.8231 Q987.5923,136.2421 986.9988,135.9723 Q986.4053,135.7025 985.7744,135.7025 Q984.4297,135.7025 983.7449,136.7692 Q983.0601,137.8358 983.0601,139.9359 Q983.0601,142.0277 983.7449,143.0944 Q984.4297,144.161 985.7744,144.161 Q986.4053,144.161 986.9988,143.8912 Q987.5923,143.6215 988.2231,143.0404 Z " fill="#000000"/><text fill="#000000" font-family="sans-serif" font-size="14" lengthAdjust="spacing" textLength="70" x="1006.25" y="144.911">Retangulo</text><line style="stroke:#181818;stroke-width:0.5;" x1="739.5" x2="1310.5" y1="155.62" y2="155.62"/><line style="stroke:#181818;stroke-width:0.5;" x1="739.5" x2="1310.5" y1="163.62" y2="163.62"/><ellipse cx="749.5" cy="177.3641" fill="#84BE84" rx="3" ry="3" style="stroke:#038048;stroke-width:1.0;"/><text fill="#000000" font-family="sans-serif" font-size="14" lengthAdjust="spacing" textLength="271" x="758.5" y="181.1552">Retangulo(_paiRef:Objeto, _rotulo:char)</text><ellipse cx="749.5" cy="193.8524" fill="#84BE84" rx="3" ry="3" style="stroke:#038048;stroke-width:1.0;"/><text fill="#000000" font-family="sans-serif" font-size="14" lengthAdjust="spacing" textLength="547" x="758.5" y="197.6434">Retangulo(_paiRef:Objeto, _rotulo:char, ptoInfEsq:Ponto4D, ptoSupDir:Ponto4D)</text><ellipse cx="749.5" cy="210.3407" fill="#84BE84" rx="3" ry="3" style="stroke:#038048;stroke-width:1.0;"/><text fill="#000000" font-family="sans-serif" font-size="14" lengthAdjust="spacing" textLength="113" x="758.5" y="214.1317">Atualizar() : void</text><ellipse cx="749.5" cy="226.829" fill="#84BE84" rx="3" ry="3" style="stroke:#038048;stroke-width:1.0;"/><text fill="#000000" font-family="sans-serif" font-size="14" lengthAdjust="spacing" textLength="196" x="758.5" y="230.62">&#171;override&#187; ToString() : string</text></g><!--class Objeto--><g id="elem_Objeto"><rect fill="#F1F1F1" height="48" id="Objeto" rx="2.5" ry="2.5" style="stroke:#181818;stroke-width:0.5;" width="78" x="986" y="11.31"/><ellipse cx="1001" cy="27.31" fill="#ADD1B2" rx="11" ry="11" style="stroke:#181818;stroke-width:1.0;"/><path d="M1003.4731,33.4531 Q1002.8921,33.7519 1002.2529,33.9013 Q1001.6138,34.0507 1000.9082,34.0507 Q998.4014,34.0507 997.0815,32.3989 Q995.7617,30.747 995.7617,27.6259 Q995.7617,24.4965 997.0815,22.8447 Q998.4014,21.1928 1000.9082,21.1928 Q1001.6138,21.1928 1002.2612,21.3422 Q1002.9087,21.4916 1003.4731,21.7905 L1003.4731,24.5131 Q1002.8423,23.9321 1002.2488,23.6623 Q1001.6553,23.3925 1001.0244,23.3925 Q999.6797,23.3925 998.9949,24.4592 Q998.3101,25.5258 998.3101,27.6259 Q998.3101,29.7177 998.9949,30.7844 Q999.6797,31.851 1001.0244,31.851 Q1001.6553,31.851 1002.2488,31.5812 Q1002.8423,31.3115 1003.4731,30.7304 Z " fill="#000000"/><text fill="#000000" font-family="sans-serif" font-size="14" lengthAdjust="spacing" textLength="46" x="1015" y="32.601">Objeto</text><line style="stroke:#181818;stroke-width:0.5;" x1="987" x2="1063" y1="43.31" y2="43.31"/><line style="stroke:#181818;stroke-width:0.5;" x1="987" x2="1063" y1="51.31" y2="51.31"/></g><!--class Program--><g id="elem_Program"><rect codeLine="1" fill="#F1F1F1" height="56.6211" id="Program" rx="2.5" ry="2.5" style="stroke:#181818;stroke-width:0.5;" width="91" x="1098.5" y="7"/><ellipse cx="1113.5" cy="27.3105" fill="#ADD1B2" rx="11" ry="11" style="stroke:#181818;stroke-width:1.0;"/><path d="M1115.9731,33.4536 Q1115.3921,33.7524 1114.7529,33.9019 Q1114.1138,34.0513 1113.4082,34.0513 Q1110.9014,34.0513 1109.5815,32.3994 Q1108.2617,30.7476 1108.2617,27.6265 Q1108.2617,24.4971 1109.5815,22.8452 Q1110.9014,21.1934 1113.4082,21.1934 Q1114.1138,21.1934 1114.7612,21.3428 Q1115.4087,21.4922 1115.9731,21.791 L1115.9731,24.5137 Q1115.3423,23.9326 1114.7488,23.6628 Q1114.1553,23.3931 1113.5244,23.3931 Q1112.1797,23.3931 1111.4949,24.4597 Q1110.8101,25.5264 1110.8101,27.6265 Q1110.8101,29.7183 1111.4949,30.7849 Q1112.1797,31.8516 1113.5244,31.8516 Q1114.1553,31.8516 1114.7488,31.5818 Q1115.3423,31.312 1115.9731,30.731 Z " fill="#000000"/><text fill="#000000" font-family="sans-serif" font-size="12" font-style="italic" lengthAdjust="spacing" textLength="42" x="1136" y="23.6016">&#171;static&#187;</text><text fill="#000000" font-family="sans-serif" font-size="14" lengthAdjust="spacing" textLength="59" x="1127.5" y="39.668">Program</text><line style="stroke:#181818;stroke-width:0.5;" x1="1099.5" x2="1188.5" y1="47.6211" y2="47.6211"/><line style="stroke:#181818;stroke-width:0.5;" x1="1099.5" x2="1188.5" y1="55.6211" y2="55.6211"/></g><!--reverse link GameWindow to Mundo--><g id="link_GameWindow_Mundo"><path codeLine="4" d="M355,77.65 C355,101.67 355,121.27 355,147.96 " fill="none" id="GameWindow-backto-Mundo" style="stroke:#181818;stroke-width:1.0;"/><polygon fill="none" points="355,59.65,349,77.65,361,77.65,355,59.65" style="stroke:#181818;stroke-width:1.0;"/></g><!--reverse link Objeto to Retangulo--><g id="link_Objeto_Retangulo"><path codeLine="7" d="M1025,77.65 C1025,94.86 1025,101.02 1025,123.16 " fill="none" id="Objeto-backto-Retangulo" style="stroke:#181818;stroke-width:1.0;"/><polygon fill="none" points="1025,59.65,1019,77.65,1031,77.65,1025,59.65" style="stroke:#181818;stroke-width:1.0;"/></g><!--SRC=[KypCIyufJKbLqDFtBSrBoTShACtDuL94Y0QbbYJcfPVcOCe45EMd5oNcWiK1]--></g></svg>