<?xml version="1.0" encoding="us-ascii" standalone="no"?><svg xmlns="http://www.w3.org/2000/svg" xmlns:xlink="http://www.w3.org/1999/xlink" contentStyleType="text/css" height="134px" preserveAspectRatio="none" style="width:327px;height:134px;background:#FFFFFF;" version="1.1" viewBox="0 0 327 134" width="327px" zoomAndPan="magnify"><defs/><g><!--class Objeto--><g id="elem_Objeto"><rect codeLine="1" fill="#F1F1F1" height="113.9531" id="Objeto" rx="2.5" ry="2.5" style="stroke:#181818;stroke-width:0.5;" width="306" x="7" y="7"/><ellipse cx="132.75" cy="23" fill="#ADD1B2" rx="11" ry="11" style="stroke:#181818;stroke-width:1.0;"/><path d="M135.2231,29.1431 Q134.6421,29.4419 134.0029,29.5913 Q133.3638,29.7407 132.6582,29.7407 Q130.1514,29.7407 128.8315,28.0889 Q127.5117,26.437 127.5117,23.3159 Q127.5117,20.1865 128.8315,18.5347 Q130.1514,16.8828 132.6582,16.8828 Q133.3638,16.8828 134.0112,17.0322 Q134.6587,17.1816 135.2231,17.4805 L135.2231,20.2031 Q134.5923,19.6221 133.9988,19.3523 Q133.4053,19.0825 132.7744,19.0825 Q131.4297,19.0825 130.7449,20.1492 Q130.0601,21.2158 130.0601,23.3159 Q130.0601,25.4077 130.7449,26.4744 Q131.4297,27.541 132.7744,27.541 Q133.4053,27.541 133.9988,27.2712 Q134.5923,27.0015 135.2231,26.4204 Z " fill="#000000"/><text fill="#000000" font-family="sans-serif" font-size="14" lengthAdjust="spacing" textLength="46" x="153.25" y="28.291">Objeto</text><line style="stroke:#181818;stroke-width:0.5;" x1="8" x2="312" y1="39" y2="39"/><line style="stroke:#181818;stroke-width:0.5;" x1="8" x2="312" y1="47" y2="47"/><ellipse cx="18" cy="60.7441" fill="#84BE84" rx="3" ry="3" style="stroke:#038048;stroke-width:1.0;"/><text fill="#000000" font-family="sans-serif" font-size="14" lengthAdjust="spacing" textLength="139" x="27" y="64.5352">Objeto(_rotulo:char)</text><ellipse cx="18" cy="77.2324" fill="#84BE84" rx="3" ry="3" style="stroke:#038048;stroke-width:1.0;"/><text fill="#000000" font-family="sans-serif" font-size="14" lengthAdjust="spacing" textLength="280" x="27" y="81.0234">ObjetoFilhoAdicionar(_rotulo:char) : void</text><ellipse cx="18" cy="93.7207" fill="#84BE84" rx="3" ry="3" style="stroke:#038048;stroke-width:1.0;"/><text fill="#000000" font-family="sans-serif" font-size="14" lengthAdjust="spacing" textLength="266" x="27" y="97.5117">GrafocenaBusca(_rotulo:char) : Objeto?</text><ellipse cx="18" cy="110.209" fill="#84BE84" rx="3" ry="3" style="stroke:#038048;stroke-width:1.0;"/><text fill="#000000" font-family="sans-serif" font-size="14" lengthAdjust="spacing" textLength="243" x="27" y="114">GrafocenaImprimir(idt:String) : void</text></g><!--SRC=[Iyv9B2vMy4_AIYt9LwZcKW02RIXN8xuelwGq9zygEIEnI1D5oYqp9oFVCIKpEJC_Bx48LQ62bK9PVcOALBrxKM9QVd9gNg9JQN5o8ePAY77sw8ezSmkACdCpYpGoKqgiWakAClFIuURM0W00]--></g></svg>