<?xml version="1.0" encoding="us-ascii" standalone="no"?><svg xmlns="http://www.w3.org/2000/svg" xmlns:xlink="http://www.w3.org/1999/xlink" contentStyleType="text/css" height="790px" preserveAspectRatio="none" style="width:3939px;height:790px;background:#FFFFFF;" version="1.1" viewBox="0 0 3939 790" width="3939px" zoomAndPan="magnify"><defs/><g><!--class Poligono--><g id="elem_Poligono"><rect codeLine="1" fill="#F1F1F1" height="97.4648" id="Poligono" rx="2.5" ry="2.5" style="stroke:#181818;stroke-width:0.5;" width="513" x="3233.5" y="685.88"/><ellipse cx="3455.25" cy="701.88" fill="#ADD1B2" rx="11" ry="11" style="stroke:#181818;stroke-width:1.0;"/><path d="M3457.7231,708.0231 Q3457.1421,708.3219 3456.5029,708.4713 Q3455.8638,708.6207 3455.1582,708.6207 Q3452.6514,708.6207 3451.3315,706.9689 Q3450.0117,705.317 3450.0117,702.1959 Q3450.0117,699.0665 3451.3315,697.4147 Q3452.6514,695.7628 3455.1582,695.7628 Q3455.8638,695.7628 3456.5112,695.9122 Q3457.1587,696.0616 3457.7231,696.3605 L3457.7231,699.0831 Q3457.0923,698.5021 3456.4988,698.2323 Q3455.9053,697.9625 3455.2744,697.9625 Q3453.9297,697.9625 3453.2449,699.0292 Q3452.5601,700.0958 3452.5601,702.1959 Q3452.5601,704.2877 3453.2449,705.3544 Q3453.9297,706.421 3455.2744,706.421 Q3455.9053,706.421 3456.4988,706.1512 Q3457.0923,705.8815 3457.7231,705.3004 Z " fill="#000000"/><text fill="#000000" font-family="sans-serif" font-size="14" lengthAdjust="spacing" textLength="61" x="3475.75" y="707.171">Poligono</text><line style="stroke:#181818;stroke-width:0.5;" x1="3234.5" x2="3745.5" y1="717.88" y2="717.88"/><line style="stroke:#181818;stroke-width:0.5;" x1="3234.5" x2="3745.5" y1="725.88" y2="725.88"/><ellipse cx="3244.5" cy="739.6241" fill="#84BE84" rx="3" ry="3" style="stroke:#038048;stroke-width:1.0;"/><text fill="#000000" font-family="sans-serif" font-size="14" lengthAdjust="spacing" textLength="487" x="3253.5" y="743.4152">Poligono(_paiRef:Objeto, _rotulo:char, pontosPoligono:List&lt;Ponto4D&gt;)</text><ellipse cx="3244.5" cy="756.1124" fill="#84BE84" rx="3" ry="3" style="stroke:#038048;stroke-width:1.0;"/><text fill="#000000" font-family="sans-serif" font-size="14" lengthAdjust="spacing" textLength="113" x="3253.5" y="759.9034">Atualizar() : void</text><ellipse cx="3244.5" cy="772.6007" fill="#84BE84" rx="3" ry="3" style="stroke:#038048;stroke-width:1.0;"/><text fill="#000000" font-family="sans-serif" font-size="14" lengthAdjust="spacing" textLength="196" x="3253.5" y="776.3917">&#171;override&#187; ToString() : string</text></g><!--class Objeto--><g id="elem_Objeto"><rect fill="#F1F1F1" height="48" id="Objeto" rx="2.5" ry="2.5" style="stroke:#181818;stroke-width:0.5;" width="78" x="1823" y="197.82"/><ellipse cx="1838" cy="213.82" fill="#ADD1B2" rx="11" ry="11" style="stroke:#181818;stroke-width:1.0;"/><path d="M1840.4731,219.9631 Q1839.8921,220.2619 1839.2529,220.4113 Q1838.6138,220.5607 1837.9082,220.5607 Q1835.4014,220.5607 1834.0815,218.9089 Q1832.7617,217.257 1832.7617,214.1359 Q1832.7617,211.0065 1834.0815,209.3547 Q1835.4014,207.7028 1837.9082,207.7028 Q1838.6138,207.7028 1839.2612,207.8522 Q1839.9087,208.0016 1840.4731,208.3005 L1840.4731,211.0231 Q1839.8423,210.4421 1839.2488,210.1723 Q1838.6553,209.9025 1838.0244,209.9025 Q1836.6797,209.9025 1835.9949,210.9692 Q1835.3101,212.0358 1835.3101,214.1359 Q1835.3101,216.2277 1835.9949,217.2944 Q1836.6797,218.361 1838.0244,218.361 Q1838.6553,218.361 1839.2488,218.0912 Q1839.8423,217.8215 1840.4731,217.2404 Z " fill="#000000"/><text fill="#000000" font-family="sans-serif" font-size="14" lengthAdjust="spacing" textLength="46" x="1852" y="219.111">Objeto</text><line style="stroke:#181818;stroke-width:0.5;" x1="1824" x2="1900" y1="229.82" y2="229.82"/><line style="stroke:#181818;stroke-width:0.5;" x1="1824" x2="1900" y1="237.82" y2="237.82"/></g><!--class SrPalito--><g id="elem_SrPalito"><rect codeLine="1" fill="#F1F1F1" height="179.9063" id="SrPalito" rx="2.5" ry="2.5" style="stroke:#181818;stroke-width:0.5;" width="309" x="430.5" y="412.99"/><ellipse cx="554.75" cy="428.99" fill="#ADD1B2" rx="11" ry="11" style="stroke:#181818;stroke-width:1.0;"/><path d="M557.2231,435.1331 Q556.6421,435.4319 556.0029,435.5813 Q555.3638,435.7307 554.6582,435.7307 Q552.1514,435.7307 550.8315,434.0789 Q549.5117,432.427 549.5117,429.3059 Q549.5117,426.1765 550.8315,424.5247 Q552.1514,422.8728 554.6582,422.8728 Q555.3638,422.8728 556.0112,423.0222 Q556.6587,423.1716 557.2231,423.4705 L557.2231,426.1931 Q556.5923,425.6121 555.9988,425.3423 Q555.4053,425.0725 554.7744,425.0725 Q553.4297,425.0725 552.7449,426.1392 Q552.0601,427.2058 552.0601,429.3059 Q552.0601,431.3977 552.7449,432.4644 Q553.4297,433.531 554.7744,433.531 Q555.4053,433.531 555.9988,433.2612 Q556.5923,432.9915 557.2231,432.4104 Z " fill="#000000"/><text fill="#000000" font-family="sans-serif" font-size="14" lengthAdjust="spacing" textLength="52" x="575.25" y="434.281">SrPalito</text><line style="stroke:#181818;stroke-width:0.5;" x1="431.5" x2="738.5" y1="444.99" y2="444.99"/><rect fill="none" height="6" style="stroke:#C82930;stroke-width:1.0;" width="6" x="438.5" y="455.7341"/><text fill="#000000" font-family="sans-serif" font-size="14" lengthAdjust="spacing" textLength="145" x="450.5" y="462.5252">angulo : double = 45</text><rect fill="none" height="6" style="stroke:#C82930;stroke-width:1.0;" width="6" x="438.5" y="472.2224"/><text fill="#000000" font-family="sans-serif" font-size="14" lengthAdjust="spacing" textLength="128" x="450.5" y="479.0134">raio : double = 0.5</text><line style="stroke:#181818;stroke-width:0.5;" x1="431.5" x2="738.5" y1="485.9666" y2="485.9666"/><ellipse cx="441.5" cy="499.7107" fill="#84BE84" rx="3" ry="3" style="stroke:#038048;stroke-width:1.0;"/><text fill="#000000" font-family="sans-serif" font-size="14" lengthAdjust="spacing" textLength="253" x="450.5" y="503.5017">SrPalito(_paiRef:Objeto, _rotulo:char)</text><ellipse cx="441.5" cy="516.199" fill="#84BE84" rx="3" ry="3" style="stroke:#038048;stroke-width:1.0;"/><text fill="#000000" font-family="sans-serif" font-size="14" lengthAdjust="spacing" textLength="113" x="450.5" y="519.99">Atualizar() : void</text><ellipse cx="441.5" cy="532.6873" fill="#84BE84" rx="3" ry="3" style="stroke:#038048;stroke-width:1.0;"/><text fill="#000000" font-family="sans-serif" font-size="14" lengthAdjust="spacing" textLength="218" x="450.5" y="536.4783">AtualizarPe(peInc:double) : void</text><ellipse cx="441.5" cy="549.1755" fill="#84BE84" rx="3" ry="3" style="stroke:#038048;stroke-width:1.0;"/><text fill="#000000" font-family="sans-serif" font-size="14" lengthAdjust="spacing" textLength="242" x="450.5" y="552.9666">AtualizarRaio(raioInc:double) : void</text><ellipse cx="441.5" cy="565.6638" fill="#84BE84" rx="3" ry="3" style="stroke:#038048;stroke-width:1.0;"/><text fill="#000000" font-family="sans-serif" font-size="14" lengthAdjust="spacing" textLength="283" x="450.5" y="569.4548">AtualizarAngulo(anguloInc:double) : void</text><ellipse cx="441.5" cy="582.1521" fill="#84BE84" rx="3" ry="3" style="stroke:#038048;stroke-width:1.0;"/><text fill="#000000" font-family="sans-serif" font-size="14" lengthAdjust="spacing" textLength="196" x="450.5" y="585.9431">&#171;override&#187; ToString() : string</text></g><!--class Ponto4D--><g id="elem_Ponto4D"><rect fill="#F1F1F1" height="48" id="Ponto4D" rx="2.5" ry="2.5" style="stroke:#181818;stroke-width:0.5;" width="91" x="774.5" y="478.95"/><ellipse cx="789.5" cy="494.95" fill="#ADD1B2" rx="11" ry="11" style="stroke:#181818;stroke-width:1.0;"/><path d="M791.9731,501.0931 Q791.3921,501.3919 790.7529,501.5413 Q790.1138,501.6907 789.4082,501.6907 Q786.9014,501.6907 785.5815,500.0389 Q784.2617,498.387 784.2617,495.2659 Q784.2617,492.1365 785.5815,490.4847 Q786.9014,488.8328 789.4082,488.8328 Q790.1138,488.8328 790.7612,488.9822 Q791.4087,489.1316 791.9731,489.4305 L791.9731,492.1531 Q791.3423,491.5721 790.7488,491.3023 Q790.1553,491.0325 789.5244,491.0325 Q788.1797,491.0325 787.4949,492.0992 Q786.8101,493.1658 786.8101,495.2659 Q786.8101,497.3577 787.4949,498.4244 Q788.1797,499.491 789.5244,499.491 Q790.1553,499.491 790.7488,499.2212 Q791.3423,498.9515 791.9731,498.3704 Z " fill="#000000"/><text fill="#000000" font-family="sans-serif" font-size="14" lengthAdjust="spacing" textLength="59" x="803.5" y="500.241">Ponto4D</text><line style="stroke:#181818;stroke-width:0.5;" x1="775.5" x2="864.5" y1="510.95" y2="510.95"/><line style="stroke:#181818;stroke-width:0.5;" x1="775.5" x2="864.5" y1="518.95" y2="518.95"/></g><!--class Mundo--><g id="elem_Mundo"><rect codeLine="1" fill="#F1F1F1" height="196.3945" id="Mundo" rx="2.5" ry="2.5" style="stroke:#181818;stroke-width:0.5;" width="696" x="7" y="123.62"/><ellipse cx="326.75" cy="139.62" fill="#ADD1B2" rx="11" ry="11" style="stroke:#181818;stroke-width:1.0;"/><path d="M329.2231,145.7631 Q328.6421,146.0619 328.0029,146.2113 Q327.3638,146.3607 326.6582,146.3607 Q324.1514,146.3607 322.8315,144.7089 Q321.5117,143.057 321.5117,139.9359 Q321.5117,136.8065 322.8315,135.1547 Q324.1514,133.5028 326.6582,133.5028 Q327.3638,133.5028 328.0112,133.6522 Q328.6587,133.8016 329.2231,134.1005 L329.2231,136.8231 Q328.5923,136.2421 327.9988,135.9723 Q327.4053,135.7025 326.7744,135.7025 Q325.4297,135.7025 324.7449,136.7692 Q324.0601,137.8358 324.0601,139.9359 Q324.0601,142.0277 324.7449,143.0944 Q325.4297,144.161 326.7744,144.161 Q327.4053,144.161 327.9988,143.8912 Q328.5923,143.6215 329.2231,143.0404 Z " fill="#000000"/><text fill="#000000" font-family="sans-serif" font-size="14" lengthAdjust="spacing" textLength="48" x="347.25" y="144.911">Mundo</text><line style="stroke:#181818;stroke-width:0.5;" x1="8" x2="702" y1="155.62" y2="155.62"/><rect fill="none" height="6" style="stroke:#C82930;stroke-width:1.0;" width="6" x="15" y="166.3641"/><text fill="#000000" font-family="sans-serif" font-size="14" lengthAdjust="spacing" textLength="151" x="27" y="173.1552">rotuloAtual : char = '?'</text><rect fill="none" height="6" style="stroke:#C82930;stroke-width:1.0;" width="6" x="15" y="182.8524"/><text fill="#000000" font-family="sans-serif" font-size="14" lengthAdjust="spacing" textLength="236" x="27" y="189.6434">mouseMovtoPrimeiro : bool = true</text><line style="stroke:#181818;stroke-width:0.5;" x1="8" x2="702" y1="196.5966" y2="196.5966"/><ellipse cx="18" cy="210.3407" fill="#84BE84" rx="3" ry="3" style="stroke:#038048;stroke-width:1.0;"/><text fill="#000000" font-family="sans-serif" font-size="14" lengthAdjust="spacing" textLength="670" x="27" y="214.1317">Mundo(gameWindowSettings:GameWindowSettings, nativeWindowSettings:NativeWindowSettings)</text><rect fill="#F24D5C" height="6" style="stroke:#C82930;stroke-width:1.0;" width="6" x="15" y="223.829"/><text fill="#000000" font-family="sans-serif" font-size="14" lengthAdjust="spacing" textLength="179" x="27" y="230.62">&#171;override&#187; OnLoad() : void</text><rect fill="#F24D5C" height="6" style="stroke:#C82930;stroke-width:1.0;" width="6" x="15" y="240.3173"/><text fill="#000000" font-family="sans-serif" font-size="14" lengthAdjust="spacing" textLength="362" x="27" y="247.1083">&#171;override&#187; OnRenderFrame(e:FrameEventArgs) : void</text><rect fill="#F24D5C" height="6" style="stroke:#C82930;stroke-width:1.0;" width="6" x="15" y="256.8055"/><text fill="#000000" font-family="sans-serif" font-size="14" lengthAdjust="spacing" textLength="362" x="27" y="263.5966">&#171;override&#187; OnUpdateFrame(e:FrameEventArgs) : void</text><rect fill="#F24D5C" height="6" style="stroke:#C82930;stroke-width:1.0;" width="6" x="15" y="273.2938"/><text fill="#000000" font-family="sans-serif" font-size="14" lengthAdjust="spacing" textLength="315" x="27" y="280.0848">&#171;override&#187; OnResize(e:ResizeEventArgs) : void</text><rect fill="#F24D5C" height="6" style="stroke:#C82930;stroke-width:1.0;" width="6" x="15" y="289.7821"/><text fill="#000000" font-family="sans-serif" font-size="14" lengthAdjust="spacing" textLength="195" x="27" y="296.5731">&#171;override&#187; OnUnload() : void</text><rect fill="#F24D5C" height="6" style="stroke:#C82930;stroke-width:1.0;" width="6" x="15" y="306.2704"/><text fill="#000000" font-family="sans-serif" font-size="14" lengthAdjust="spacing" textLength="144" x="27" y="313.0614">Gizmo_Sru3D() : void</text></g><!--class Dictionary`2--><g id="elem_Dictionary`2"><rect codeLine="12" fill="#F1F1F1" height="48" id="Dictionary`2" rx="2.5" ry="2.5" style="stroke:#181818;stroke-width:0.5;" width="159" x="928.5" y="197.82"/><ellipse cx="943.5" cy="213.82" fill="#ADD1B2" rx="11" ry="11" style="stroke:#181818;stroke-width:1.0;"/><path d="M945.9731,219.9631 Q945.3921,220.2619 944.7529,220.4113 Q944.1138,220.5607 943.4082,220.5607 Q940.9014,220.5607 939.5815,218.9089 Q938.2617,217.257 938.2617,214.1359 Q938.2617,211.0065 939.5815,209.3547 Q940.9014,207.7028 943.4082,207.7028 Q944.1138,207.7028 944.7612,207.8522 Q945.4087,208.0016 945.9731,208.3005 L945.9731,211.0231 Q945.3423,210.4421 944.7488,210.1723 Q944.1553,209.9025 943.5244,209.9025 Q942.1797,209.9025 941.4949,210.9692 Q940.8101,212.0358 940.8101,214.1359 Q940.8101,216.2277 941.4949,217.2944 Q942.1797,218.361 943.5244,218.361 Q944.1553,218.361 944.7488,218.0912 Q945.3423,217.8215 945.9731,217.2404 Z " fill="#000000"/><text fill="#000000" font-family="sans-serif" font-size="14" lengthAdjust="spacing" textLength="87" x="957.5" y="219.111">Dictionary`2</text><rect fill="#FFFFFF" height="16.1328" style="stroke:#181818;stroke-width:1.0;stroke-dasharray:2.0,2.0;" width="38" x="1052.5" y="194.82"/><text fill="#000000" font-family="sans-serif" font-size="12" font-style="italic" lengthAdjust="spacing" textLength="36" x="1053.5" y="207.4216">T1,T2</text><line style="stroke:#181818;stroke-width:0.5;" x1="929.5" x2="1086.5" y1="229.82" y2="229.82"/><line style="stroke:#181818;stroke-width:0.5;" x1="929.5" x2="1086.5" y1="237.82" y2="237.82"/></g><!--class GameWindow--><g id="elem_GameWindow"><rect fill="#F1F1F1" height="48" id="GameWindow" rx="2.5" ry="2.5" style="stroke:#181818;stroke-width:0.5;" width="125" x="292.5" y="11.31"/><ellipse cx="307.5" cy="27.31" fill="#ADD1B2" rx="11" ry="11" style="stroke:#181818;stroke-width:1.0;"/><path d="M309.9731,33.4531 Q309.3921,33.7519 308.7529,33.9013 Q308.1138,34.0507 307.4082,34.0507 Q304.9014,34.0507 303.5815,32.3989 Q302.2617,30.747 302.2617,27.6259 Q302.2617,24.4965 303.5815,22.8447 Q304.9014,21.1928 307.4082,21.1928 Q308.1138,21.1928 308.7612,21.3422 Q309.4087,21.4916 309.9731,21.7905 L309.9731,24.5131 Q309.3423,23.9321 308.7488,23.6623 Q308.1553,23.3925 307.5244,23.3925 Q306.1797,23.3925 305.4949,24.4592 Q304.8101,25.5258 304.8101,27.6259 Q304.8101,29.7177 305.4949,30.7844 Q306.1797,31.851 307.5244,31.851 Q308.1553,31.851 308.7488,31.5812 Q309.3423,31.3115 309.9731,30.7304 Z " fill="#000000"/><text fill="#000000" font-family="sans-serif" font-size="14" lengthAdjust="spacing" textLength="93" x="321.5" y="32.601">GameWindow</text><line style="stroke:#181818;stroke-width:0.5;" x1="293.5" x2="416.5" y1="43.31" y2="43.31"/><line style="stroke:#181818;stroke-width:0.5;" x1="293.5" x2="416.5" y1="51.31" y2="51.31"/></g><!--class Transformacao4D--><g id="elem_Transformacao4D"><rect fill="#F1F1F1" height="48" id="Transformacao4D" rx="2.5" ry="2.5" style="stroke:#181818;stroke-width:0.5;" width="155" x="738.5" y="197.82"/><ellipse cx="753.5" cy="213.82" fill="#ADD1B2" rx="11" ry="11" style="stroke:#181818;stroke-width:1.0;"/><path d="M755.9731,219.9631 Q755.3921,220.2619 754.7529,220.4113 Q754.1138,220.5607 753.4082,220.5607 Q750.9014,220.5607 749.5815,218.9089 Q748.2617,217.257 748.2617,214.1359 Q748.2617,211.0065 749.5815,209.3547 Q750.9014,207.7028 753.4082,207.7028 Q754.1138,207.7028 754.7612,207.8522 Q755.4087,208.0016 755.9731,208.3005 L755.9731,211.0231 Q755.3423,210.4421 754.7488,210.1723 Q754.1553,209.9025 753.5244,209.9025 Q752.1797,209.9025 751.4949,210.9692 Q750.8101,212.0358 750.8101,214.1359 Q750.8101,216.2277 751.4949,217.2944 Q752.1797,218.361 753.5244,218.361 Q754.1553,218.361 754.7488,218.0912 Q755.3423,217.8215 755.9731,217.2404 Z " fill="#000000"/><text fill="#000000" font-family="sans-serif" font-size="14" lengthAdjust="spacing" textLength="123" x="767.5" y="219.111">Transformacao4D</text><line style="stroke:#181818;stroke-width:0.5;" x1="739.5" x2="892.5" y1="229.82" y2="229.82"/><line style="stroke:#181818;stroke-width:0.5;" x1="739.5" x2="892.5" y1="237.82" y2="237.82"/></g><!--class Shader--><g id="elem_Shader"><rect fill="#F1F1F1" height="48" id="Shader" rx="2.5" ry="2.5" style="stroke:#181818;stroke-width:0.5;" width="80" x="315" y="478.95"/><ellipse cx="330" cy="494.95" fill="#ADD1B2" rx="11" ry="11" style="stroke:#181818;stroke-width:1.0;"/><path d="M332.4731,501.0931 Q331.8921,501.3919 331.2529,501.5413 Q330.6138,501.6907 329.9082,501.6907 Q327.4014,501.6907 326.0815,500.0389 Q324.7617,498.387 324.7617,495.2659 Q324.7617,492.1365 326.0815,490.4847 Q327.4014,488.8328 329.9082,488.8328 Q330.6138,488.8328 331.2612,488.9822 Q331.9087,489.1316 332.4731,489.4305 L332.4731,492.1531 Q331.8423,491.5721 331.2488,491.3023 Q330.6553,491.0325 330.0244,491.0325 Q328.6797,491.0325 327.9949,492.0992 Q327.3101,493.1658 327.3101,495.2659 Q327.3101,497.3577 327.9949,498.4244 Q328.6797,499.491 330.0244,499.491 Q330.6553,499.491 331.2488,499.2212 Q331.8423,498.9515 332.4731,498.3704 Z " fill="#000000"/><text fill="#000000" font-family="sans-serif" font-size="14" lengthAdjust="spacing" textLength="48" x="344" y="500.241">Shader</text><line style="stroke:#181818;stroke-width:0.5;" x1="316" x2="394" y1="510.95" y2="510.95"/><line style="stroke:#181818;stroke-width:0.5;" x1="316" x2="394" y1="518.95" y2="518.95"/></g><!--class Retangulo--><g id="elem_Retangulo"><rect codeLine="1" fill="#F1F1F1" height="113.9531" id="Retangulo" rx="2.5" ry="2.5" style="stroke:#181818;stroke-width:0.5;" width="573" x="1324.5" y="445.97"/><ellipse cx="1571.75" cy="461.97" fill="#ADD1B2" rx="11" ry="11" style="stroke:#181818;stroke-width:1.0;"/><path d="M1574.2231,468.1131 Q1573.6421,468.4119 1573.0029,468.5613 Q1572.3638,468.7107 1571.6582,468.7107 Q1569.1514,468.7107 1567.8315,467.0589 Q1566.5117,465.407 1566.5117,462.2859 Q1566.5117,459.1565 1567.8315,457.5047 Q1569.1514,455.8528 1571.6582,455.8528 Q1572.3638,455.8528 1573.0112,456.0022 Q1573.6587,456.1516 1574.2231,456.4505 L1574.2231,459.1731 Q1573.5923,458.5921 1572.9988,458.3223 Q1572.4053,458.0525 1571.7744,458.0525 Q1570.4297,458.0525 1569.7449,459.1192 Q1569.0601,460.1858 1569.0601,462.2859 Q1569.0601,464.3777 1569.7449,465.4444 Q1570.4297,466.511 1571.7744,466.511 Q1572.4053,466.511 1572.9988,466.2412 Q1573.5923,465.9715 1574.2231,465.3904 Z " fill="#000000"/><text fill="#000000" font-family="sans-serif" font-size="14" lengthAdjust="spacing" textLength="70" x="1592.25" y="467.261">Retangulo</text><line style="stroke:#181818;stroke-width:0.5;" x1="1325.5" x2="1896.5" y1="477.97" y2="477.97"/><line style="stroke:#181818;stroke-width:0.5;" x1="1325.5" x2="1896.5" y1="485.97" y2="485.97"/><ellipse cx="1335.5" cy="499.7141" fill="#84BE84" rx="3" ry="3" style="stroke:#038048;stroke-width:1.0;"/><text fill="#000000" font-family="sans-serif" font-size="14" lengthAdjust="spacing" textLength="271" x="1344.5" y="503.5052">Retangulo(_paiRef:Objeto, _rotulo:char)</text><ellipse cx="1335.5" cy="516.2024" fill="#84BE84" rx="3" ry="3" style="stroke:#038048;stroke-width:1.0;"/><text fill="#000000" font-family="sans-serif" font-size="14" lengthAdjust="spacing" textLength="547" x="1344.5" y="519.9934">Retangulo(_paiRef:Objeto, _rotulo:char, ptoInfEsq:Ponto4D, ptoSupDir:Ponto4D)</text><ellipse cx="1335.5" cy="532.6907" fill="#84BE84" rx="3" ry="3" style="stroke:#038048;stroke-width:1.0;"/><text fill="#000000" font-family="sans-serif" font-size="14" lengthAdjust="spacing" textLength="113" x="1344.5" y="536.4817">Atualizar() : void</text><ellipse cx="1335.5" cy="549.179" fill="#84BE84" rx="3" ry="3" style="stroke:#038048;stroke-width:1.0;"/><text fill="#000000" font-family="sans-serif" font-size="14" lengthAdjust="spacing" textLength="196" x="1344.5" y="552.97">&#171;override&#187; ToString() : string</text></g><!--class SplineBezier--><g id="elem_SplineBezier"><rect codeLine="1" fill="#F1F1F1" height="245.8594" id="SplineBezier" rx="2.5" ry="2.5" style="stroke:#181818;stroke-width:0.5;" width="389" x="3543.5" y="380.02"/><ellipse cx="3691.75" cy="396.02" fill="#ADD1B2" rx="11" ry="11" style="stroke:#181818;stroke-width:1.0;"/><path d="M3694.2231,402.1631 Q3693.6421,402.4619 3693.0029,402.6113 Q3692.3638,402.7607 3691.6582,402.7607 Q3689.1514,402.7607 3687.8315,401.1089 Q3686.5117,399.457 3686.5117,396.3359 Q3686.5117,393.2065 3687.8315,391.5547 Q3689.1514,389.9028 3691.6582,389.9028 Q3692.3638,389.9028 3693.0112,390.0522 Q3693.6587,390.2016 3694.2231,390.5005 L3694.2231,393.2231 Q3693.5923,392.6421 3692.9988,392.3723 Q3692.4053,392.1025 3691.7744,392.1025 Q3690.4297,392.1025 3689.7449,393.1692 Q3689.0601,394.2358 3689.0601,396.3359 Q3689.0601,398.4277 3689.7449,399.4944 Q3690.4297,400.561 3691.7744,400.561 Q3692.4053,400.561 3692.9988,400.2912 Q3693.5923,400.0215 3694.2231,399.4404 Z " fill="#000000"/><text fill="#000000" font-family="sans-serif" font-size="14" lengthAdjust="spacing" textLength="84" x="3712.25" y="401.311">SplineBezier</text><line style="stroke:#181818;stroke-width:0.5;" x1="3544.5" x2="3931.5" y1="412.02" y2="412.02"/><rect fill="none" height="6" style="stroke:#C82930;stroke-width:1.0;" width="6" x="3551.5" y="422.7641"/><text fill="#000000" font-family="sans-serif" font-size="14" lengthAdjust="spacing" textLength="164" x="3563.5" y="429.5552">ptoSelecionado : int = 0</text><rect fill="none" height="6" style="stroke:#C82930;stroke-width:1.0;" width="6" x="3551.5" y="439.2524"/><text fill="#000000" font-family="sans-serif" font-size="14" lengthAdjust="spacing" textLength="120" x="3563.5" y="446.0434">rotuloAtual : char</text><rect fill="none" height="6" style="stroke:#C82930;stroke-width:1.0;" width="6" x="3551.5" y="455.7407"/><text fill="#000000" font-family="sans-serif" font-size="14" lengthAdjust="spacing" textLength="262" x="3563.5" y="462.5317">&#171;readonly&#187; splineQtdPtoMax : int = 10</text><rect fill="none" height="6" style="stroke:#C82930;stroke-width:1.0;" width="6" x="3551.5" y="472.229"/><text fill="#000000" font-family="sans-serif" font-size="14" lengthAdjust="spacing" textLength="155" x="3563.5" y="479.02">splineQtdPto : int = 10</text><line style="stroke:#181818;stroke-width:0.5;" x1="3544.5" x2="3931.5" y1="485.9731" y2="485.9731"/><ellipse cx="3554.5" cy="499.7173" fill="#84BE84" rx="3" ry="3" style="stroke:#038048;stroke-width:1.0;"/><text fill="#000000" font-family="sans-serif" font-size="14" lengthAdjust="spacing" textLength="182" x="3563.5" y="503.5083">SplineQtdPto(inc:int) : void</text><rect fill="#F24D5C" height="6" style="stroke:#C82930;stroke-width:1.0;" width="6" x="3551.5" y="513.2055"/><text fill="#000000" font-family="sans-serif" font-size="14" lengthAdjust="spacing" textLength="168" x="3563.5" y="519.9966">BezierMatrizPeso() : void</text><ellipse cx="3554.5" cy="532.6938" fill="#84BE84" rx="3" ry="3" style="stroke:#038048;stroke-width:1.0;"/><text fill="#000000" font-family="sans-serif" font-size="14" lengthAdjust="spacing" textLength="285" x="3563.5" y="536.4848">SplineBezier(_paiRef:Objeto, _rotulo:char)</text><rect fill="#F24D5C" height="6" style="stroke:#C82930;stroke-width:1.0;" width="6" x="3551.5" y="546.1821"/><text fill="#000000" font-family="sans-serif" font-size="14" lengthAdjust="spacing" textLength="158" x="3563.5" y="552.9731">PontosControle() : void</text><rect fill="#F24D5C" height="6" style="stroke:#C82930;stroke-width:1.0;" width="6" x="3551.5" y="562.6704"/><text fill="#000000" font-family="sans-serif" font-size="14" lengthAdjust="spacing" textLength="168" x="3563.5" y="569.4614">PoliedroControle() : void</text><ellipse cx="3554.5" cy="582.1587" fill="#84BE84" rx="3" ry="3" style="stroke:#038048;stroke-width:1.0;"/><text fill="#000000" font-family="sans-serif" font-size="14" lengthAdjust="spacing" textLength="113" x="3563.5" y="585.9497">Atualizar() : void</text><ellipse cx="3554.5" cy="598.647" fill="#84BE84" rx="3" ry="3" style="stroke:#038048;stroke-width:1.0;"/><text fill="#000000" font-family="sans-serif" font-size="14" lengthAdjust="spacing" textLength="363" x="3563.5" y="602.438">AtualizarSpline(ptoInc:Ponto4D, proximo:bool) : void</text><ellipse cx="3554.5" cy="615.1352" fill="#84BE84" rx="3" ry="3" style="stroke:#038048;stroke-width:1.0;"/><text fill="#000000" font-family="sans-serif" font-size="14" lengthAdjust="spacing" textLength="196" x="3563.5" y="618.9263">&#171;override&#187; ToString() : string</text></g><!--class SplineInter--><g id="elem_SplineInter"><rect codeLine="1" fill="#F1F1F1" height="229.3711" id="SplineInter" rx="2.5" ry="2.5" style="stroke:#181818;stroke-width:0.5;" width="389" x="900.5" y="388.26"/><ellipse cx="1053.75" cy="404.26" fill="#ADD1B2" rx="11" ry="11" style="stroke:#181818;stroke-width:1.0;"/><path d="M1056.2231,410.4031 Q1055.6421,410.7019 1055.0029,410.8513 Q1054.3638,411.0007 1053.6582,411.0007 Q1051.1514,411.0007 1049.8315,409.3489 Q1048.5117,407.697 1048.5117,404.5759 Q1048.5117,401.4465 1049.8315,399.7947 Q1051.1514,398.1428 1053.6582,398.1428 Q1054.3638,398.1428 1055.0112,398.2922 Q1055.6587,398.4416 1056.2231,398.7405 L1056.2231,401.4631 Q1055.5923,400.8821 1054.9988,400.6123 Q1054.4053,400.3425 1053.7744,400.3425 Q1052.4297,400.3425 1051.7449,401.4092 Q1051.0601,402.4758 1051.0601,404.5759 Q1051.0601,406.6677 1051.7449,407.7344 Q1052.4297,408.801 1053.7744,408.801 Q1054.4053,408.801 1054.9988,408.5312 Q1055.5923,408.2615 1056.2231,407.6804 Z " fill="#000000"/><text fill="#000000" font-family="sans-serif" font-size="14" lengthAdjust="spacing" textLength="74" x="1074.25" y="409.551">SplineInter</text><line style="stroke:#181818;stroke-width:0.5;" x1="901.5" x2="1288.5" y1="420.26" y2="420.26"/><rect fill="none" height="6" style="stroke:#C82930;stroke-width:1.0;" width="6" x="908.5" y="431.0041"/><text fill="#000000" font-family="sans-serif" font-size="14" lengthAdjust="spacing" textLength="164" x="920.5" y="437.7952">ptoSelecionado : int = 0</text><rect fill="none" height="6" style="stroke:#C82930;stroke-width:1.0;" width="6" x="908.5" y="447.4924"/><text fill="#000000" font-family="sans-serif" font-size="14" lengthAdjust="spacing" textLength="120" x="920.5" y="454.2834">rotuloAtual : char</text><rect fill="none" height="6" style="stroke:#C82930;stroke-width:1.0;" width="6" x="908.5" y="463.9807"/><text fill="#000000" font-family="sans-serif" font-size="14" lengthAdjust="spacing" textLength="262" x="920.5" y="470.7717">&#171;readonly&#187; splineQtdPtoMax : int = 10</text><rect fill="none" height="6" style="stroke:#C82930;stroke-width:1.0;" width="6" x="908.5" y="480.469"/><text fill="#000000" font-family="sans-serif" font-size="14" lengthAdjust="spacing" textLength="155" x="920.5" y="487.26">splineQtdPto : int = 10</text><line style="stroke:#181818;stroke-width:0.5;" x1="901.5" x2="1288.5" y1="494.2131" y2="494.2131"/><ellipse cx="911.5" cy="507.9573" fill="#84BE84" rx="3" ry="3" style="stroke:#038048;stroke-width:1.0;"/><text fill="#000000" font-family="sans-serif" font-size="14" lengthAdjust="spacing" textLength="182" x="920.5" y="511.7483">SplineQtdPto(inc:int) : void</text><ellipse cx="911.5" cy="524.4455" fill="#84BE84" rx="3" ry="3" style="stroke:#038048;stroke-width:1.0;"/><text fill="#000000" font-family="sans-serif" font-size="14" lengthAdjust="spacing" textLength="275" x="920.5" y="528.2366">SplineInter(_paiRef:Objeto, _rotulo:char)</text><rect fill="#F24D5C" height="6" style="stroke:#C82930;stroke-width:1.0;" width="6" x="908.5" y="537.9338"/><text fill="#000000" font-family="sans-serif" font-size="14" lengthAdjust="spacing" textLength="158" x="920.5" y="544.7248">PontosControle() : void</text><rect fill="#F24D5C" height="6" style="stroke:#C82930;stroke-width:1.0;" width="6" x="908.5" y="554.4221"/><text fill="#000000" font-family="sans-serif" font-size="14" lengthAdjust="spacing" textLength="168" x="920.5" y="561.2131">PoliedroControle() : void</text><ellipse cx="911.5" cy="573.9104" fill="#84BE84" rx="3" ry="3" style="stroke:#038048;stroke-width:1.0;"/><text fill="#000000" font-family="sans-serif" font-size="14" lengthAdjust="spacing" textLength="113" x="920.5" y="577.7014">Atualizar() : void</text><ellipse cx="911.5" cy="590.3987" fill="#84BE84" rx="3" ry="3" style="stroke:#038048;stroke-width:1.0;"/><text fill="#000000" font-family="sans-serif" font-size="14" lengthAdjust="spacing" textLength="363" x="920.5" y="594.1897">AtualizarSpline(ptoInc:Ponto4D, proximo:bool) : void</text><ellipse cx="911.5" cy="606.887" fill="#84BE84" rx="3" ry="3" style="stroke:#038048;stroke-width:1.0;"/><text fill="#000000" font-family="sans-serif" font-size="14" lengthAdjust="spacing" textLength="196" x="920.5" y="610.678">&#171;override&#187; ToString() : string</text></g><!--class Ponto--><g id="elem_Ponto"><rect codeLine="1" fill="#F1F1F1" height="113.9531" id="Ponto" rx="2.5" ry="2.5" style="stroke:#181818;stroke-width:0.5;" width="361" x="1932.5" y="445.97"/><ellipse cx="2088.75" cy="461.97" fill="#ADD1B2" rx="11" ry="11" style="stroke:#181818;stroke-width:1.0;"/><path d="M2091.2231,468.1131 Q2090.6421,468.4119 2090.0029,468.5613 Q2089.3638,468.7107 2088.6582,468.7107 Q2086.1514,468.7107 2084.8315,467.0589 Q2083.5117,465.407 2083.5117,462.2859 Q2083.5117,459.1565 2084.8315,457.5047 Q2086.1514,455.8528 2088.6582,455.8528 Q2089.3638,455.8528 2090.0112,456.0022 Q2090.6587,456.1516 2091.2231,456.4505 L2091.2231,459.1731 Q2090.5923,458.5921 2089.9988,458.3223 Q2089.4053,458.0525 2088.7744,458.0525 Q2087.4297,458.0525 2086.7449,459.1192 Q2086.0601,460.1858 2086.0601,462.2859 Q2086.0601,464.3777 2086.7449,465.4444 Q2087.4297,466.511 2088.7744,466.511 Q2089.4053,466.511 2089.9988,466.2412 Q2090.5923,465.9715 2091.2231,465.3904 Z " fill="#000000"/><text fill="#000000" font-family="sans-serif" font-size="14" lengthAdjust="spacing" textLength="40" x="2109.25" y="467.261">Ponto</text><line style="stroke:#181818;stroke-width:0.5;" x1="1933.5" x2="2292.5" y1="477.97" y2="477.97"/><line style="stroke:#181818;stroke-width:0.5;" x1="1933.5" x2="2292.5" y1="485.97" y2="485.97"/><ellipse cx="1943.5" cy="499.7141" fill="#84BE84" rx="3" ry="3" style="stroke:#038048;stroke-width:1.0;"/><text fill="#000000" font-family="sans-serif" font-size="14" lengthAdjust="spacing" textLength="241" x="1952.5" y="503.5052">Ponto(_paiRef:Objeto, _rotulo:char)</text><ellipse cx="1943.5" cy="516.2024" fill="#84BE84" rx="3" ry="3" style="stroke:#038048;stroke-width:1.0;"/><text fill="#000000" font-family="sans-serif" font-size="14" lengthAdjust="spacing" textLength="335" x="1952.5" y="519.9934">Ponto(_paiRef:Objeto, _rotulo:char, pto:Ponto4D)</text><ellipse cx="1943.5" cy="532.6907" fill="#84BE84" rx="3" ry="3" style="stroke:#038048;stroke-width:1.0;"/><text fill="#000000" font-family="sans-serif" font-size="14" lengthAdjust="spacing" textLength="113" x="1952.5" y="536.4817">Atualizar() : void</text><ellipse cx="1943.5" cy="549.179" fill="#84BE84" rx="3" ry="3" style="stroke:#038048;stroke-width:1.0;"/><text fill="#000000" font-family="sans-serif" font-size="14" lengthAdjust="spacing" textLength="196" x="1952.5" y="552.97">&#171;override&#187; ToString() : string</text></g><!--class Circulo--><g id="elem_Circulo"><rect codeLine="1" fill="#F1F1F1" height="113.9531" id="Circulo" rx="2.5" ry="2.5" style="stroke:#181818;stroke-width:0.5;" width="561" x="2328.5" y="445.97"/><ellipse cx="2580.25" cy="461.97" fill="#ADD1B2" rx="11" ry="11" style="stroke:#181818;stroke-width:1.0;"/><path d="M2582.7231,468.1131 Q2582.1421,468.4119 2581.5029,468.5613 Q2580.8638,468.7107 2580.1582,468.7107 Q2577.6514,468.7107 2576.3315,467.0589 Q2575.0117,465.407 2575.0117,462.2859 Q2575.0117,459.1565 2576.3315,457.5047 Q2577.6514,455.8528 2580.1582,455.8528 Q2580.8638,455.8528 2581.5112,456.0022 Q2582.1587,456.1516 2582.7231,456.4505 L2582.7231,459.1731 Q2582.0923,458.5921 2581.4988,458.3223 Q2580.9053,458.0525 2580.2744,458.0525 Q2578.9297,458.0525 2578.2449,459.1192 Q2577.5601,460.1858 2577.5601,462.2859 Q2577.5601,464.3777 2578.2449,465.4444 Q2578.9297,466.511 2580.2744,466.511 Q2580.9053,466.511 2581.4988,466.2412 Q2582.0923,465.9715 2582.7231,465.3904 Z " fill="#000000"/><text fill="#000000" font-family="sans-serif" font-size="14" lengthAdjust="spacing" textLength="49" x="2600.75" y="467.261">Circulo</text><line style="stroke:#181818;stroke-width:0.5;" x1="2329.5" x2="2888.5" y1="477.97" y2="477.97"/><line style="stroke:#181818;stroke-width:0.5;" x1="2329.5" x2="2888.5" y1="485.97" y2="485.97"/><ellipse cx="2339.5" cy="499.7141" fill="#84BE84" rx="3" ry="3" style="stroke:#038048;stroke-width:1.0;"/><text fill="#000000" font-family="sans-serif" font-size="14" lengthAdjust="spacing" textLength="344" x="2348.5" y="503.5052">Circulo(_paiRef:Objeto, _rotulo:char, _raio:double)</text><ellipse cx="2339.5" cy="516.2024" fill="#84BE84" rx="3" ry="3" style="stroke:#038048;stroke-width:1.0;"/><text fill="#000000" font-family="sans-serif" font-size="14" lengthAdjust="spacing" textLength="535" x="2348.5" y="519.9934">Circulo(_paiRef:Objeto, _rotulo:char, _raio:double, ptoDeslocamento:Ponto4D)</text><ellipse cx="2339.5" cy="532.6907" fill="#84BE84" rx="3" ry="3" style="stroke:#038048;stroke-width:1.0;"/><text fill="#000000" font-family="sans-serif" font-size="14" lengthAdjust="spacing" textLength="296" x="2348.5" y="536.4817">Atualizar(ptoDeslocamento:Ponto4D) : void</text><ellipse cx="2339.5" cy="549.179" fill="#84BE84" rx="3" ry="3" style="stroke:#038048;stroke-width:1.0;"/><text fill="#000000" font-family="sans-serif" font-size="14" lengthAdjust="spacing" textLength="196" x="2348.5" y="552.97">&#171;override&#187; ToString() : string</text></g><!--class SegReta--><g id="elem_SegReta"><rect codeLine="1" fill="#F1F1F1" height="113.9531" id="SegReta" rx="2.5" ry="2.5" style="stroke:#181818;stroke-width:0.5;" width="512" x="2925" y="445.97"/><ellipse cx="3149.25" cy="461.97" fill="#ADD1B2" rx="11" ry="11" style="stroke:#181818;stroke-width:1.0;"/><path d="M3151.7231,468.1131 Q3151.1421,468.4119 3150.5029,468.5613 Q3149.8638,468.7107 3149.1582,468.7107 Q3146.6514,468.7107 3145.3315,467.0589 Q3144.0117,465.407 3144.0117,462.2859 Q3144.0117,459.1565 3145.3315,457.5047 Q3146.6514,455.8528 3149.1582,455.8528 Q3149.8638,455.8528 3150.5112,456.0022 Q3151.1587,456.1516 3151.7231,456.4505 L3151.7231,459.1731 Q3151.0923,458.5921 3150.4988,458.3223 Q3149.9053,458.0525 3149.2744,458.0525 Q3147.9297,458.0525 3147.2449,459.1192 Q3146.5601,460.1858 3146.5601,462.2859 Q3146.5601,464.3777 3147.2449,465.4444 Q3147.9297,466.511 3149.2744,466.511 Q3149.9053,466.511 3150.4988,466.2412 Q3151.0923,465.9715 3151.7231,465.3904 Z " fill="#000000"/><text fill="#000000" font-family="sans-serif" font-size="14" lengthAdjust="spacing" textLength="55" x="3169.75" y="467.261">SegReta</text><line style="stroke:#181818;stroke-width:0.5;" x1="2926" x2="3436" y1="477.97" y2="477.97"/><line style="stroke:#181818;stroke-width:0.5;" x1="2926" x2="3436" y1="485.97" y2="485.97"/><ellipse cx="2936" cy="499.7141" fill="#84BE84" rx="3" ry="3" style="stroke:#038048;stroke-width:1.0;"/><text fill="#000000" font-family="sans-serif" font-size="14" lengthAdjust="spacing" textLength="256" x="2945" y="503.5052">SegReta(_paiRef:Objeto, _rotulo:char)</text><ellipse cx="2936" cy="516.2024" fill="#84BE84" rx="3" ry="3" style="stroke:#038048;stroke-width:1.0;"/><text fill="#000000" font-family="sans-serif" font-size="14" lengthAdjust="spacing" textLength="486" x="2945" y="519.9934">SegReta(_paiRef:Objeto, _rotulo:char, ptoIni:Ponto4D, ptoFim:Ponto4D)</text><ellipse cx="2936" cy="532.6907" fill="#84BE84" rx="3" ry="3" style="stroke:#038048;stroke-width:1.0;"/><text fill="#000000" font-family="sans-serif" font-size="14" lengthAdjust="spacing" textLength="113" x="2945" y="536.4817">Atualizar() : void</text><ellipse cx="2936" cy="549.179" fill="#84BE84" rx="3" ry="3" style="stroke:#038048;stroke-width:1.0;"/><text fill="#000000" font-family="sans-serif" font-size="14" lengthAdjust="spacing" textLength="196" x="2945" y="552.97">&#171;override&#187; ToString() : string</text></g><!--class Program--><g id="elem_Program"><rect codeLine="1" fill="#F1F1F1" height="56.6211" id="Program" rx="2.5" ry="2.5" style="stroke:#181818;stroke-width:0.5;" width="91" x="452.5" y="7"/><ellipse cx="467.5" cy="27.3105" fill="#ADD1B2" rx="11" ry="11" style="stroke:#181818;stroke-width:1.0;"/><path d="M469.9731,33.4536 Q469.3921,33.7524 468.7529,33.9019 Q468.1138,34.0513 467.4082,34.0513 Q464.9014,34.0513 463.5815,32.3994 Q462.2617,30.7476 462.2617,27.6265 Q462.2617,24.4971 463.5815,22.8452 Q464.9014,21.1934 467.4082,21.1934 Q468.1138,21.1934 468.7612,21.3428 Q469.4087,21.4922 469.9731,21.791 L469.9731,24.5137 Q469.3423,23.9326 468.7488,23.6628 Q468.1553,23.3931 467.5244,23.3931 Q466.1797,23.3931 465.4949,24.4597 Q464.8101,25.5264 464.8101,27.6265 Q464.8101,29.7183 465.4949,30.7849 Q466.1797,31.8516 467.5244,31.8516 Q468.1553,31.8516 468.7488,31.5818 Q469.3423,31.312 469.9731,30.731 Z " fill="#000000"/><text fill="#000000" font-family="sans-serif" font-size="12" font-style="italic" lengthAdjust="spacing" textLength="42" x="490" y="23.6016">&#171;static&#187;</text><text fill="#000000" font-family="sans-serif" font-size="14" lengthAdjust="spacing" textLength="59" x="481.5" y="39.668">Program</text><line style="stroke:#181818;stroke-width:0.5;" x1="453.5" x2="542.5" y1="47.6211" y2="47.6211"/><line style="stroke:#181818;stroke-width:0.5;" x1="453.5" x2="542.5" y1="55.6211" y2="55.6211"/></g><!--reverse link Objeto to Poligono--><g id="link_Objeto_Poligono"><path codeLine="6" d="M1919.3239,224.2501 C2153.5639,230.3701 3340.41,266.77 3454,380.02 C3534.73,460.5 3517.69,608.98 3501.95,685.39 " fill="none" id="Objeto-backto-Poligono" style="stroke:#181818;stroke-width:1.0;"/><polygon fill="none" points="1901.33,223.78,1919.1672,230.2481,1919.4806,218.2522,1901.33,223.78" style="stroke:#181818;stroke-width:1.0;"/></g><!--reverse link Objeto to SrPalito--><g id="link_Objeto_SrPalito"><path codeLine="11" d="M1804.9083,230.1759 C1614.0783,254.8259 807.91,359.74 757,380.02 C735.75,388.48 714.62,400.08 694.82,412.78 " fill="none" id="Objeto-backto-SrPalito" style="stroke:#181818;stroke-width:1.0;"/><polygon fill="none" points="1822.76,227.87,1804.1397,224.2254,1805.677,236.1265,1822.76,227.87" style="stroke:#181818;stroke-width:1.0;"/></g><!--link SrPalito to Ponto4D--><g id="link_SrPalito_Ponto4D"><path codeLine="12" d="M750.9582,559.561 C769.8882,552.681 773.1214,548.7091 792.0514,531.3191 " fill="none" id="SrPalito-Ponto4D" style="stroke:#181818;stroke-width:1.0;"/><polygon fill="none" points="739.68,563.66,746.6854,565.3699,750.9582,559.561,743.9528,557.8511,739.68,563.66" style="stroke:#181818;stroke-width:1.0;"/><polygon fill="#181818" points="796.47,527.26,787.1361,530.4029,792.7879,530.6426,792.5482,536.2944,796.47,527.26" style="stroke:#181818;stroke-width:1.0;"/><text fill="#000000" font-family="sans-serif" font-size="13" lengthAdjust="spacing" textLength="35" x="751.4689" y="547.6199">ptoPe</text></g><!--link SrPalito to Ponto4D--><g id="link_SrPalito_Ponto4D"><path codeLine="13" d="M750.9582,446.329 C769.8882,453.209 773.1214,457.1809 792.0514,474.5709 " fill="none" id="SrPalito-Ponto4D-1" style="stroke:#181818;stroke-width:1.0;"/><polygon fill="none" points="739.68,442.23,743.9528,448.0389,750.9582,446.329,746.6854,440.5201,739.68,442.23" style="stroke:#181818;stroke-width:1.0;"/><polygon fill="#181818" points="796.47,478.63,792.5482,469.5956,792.7879,475.2474,787.1361,475.4871,796.47,478.63" style="stroke:#181818;stroke-width:1.0;"/><text fill="#000000" font-family="sans-serif" font-size="13" lengthAdjust="spacing" textLength="66" x="798.8967" y="468.0843">ptoCabeca</text></g><!--reverse link GameWindow to Mundo--><g id="link_GameWindow_Mundo"><path codeLine="14" d="M355,77.68 C355,94.16 355,99.47 355,123.24 " fill="none" id="GameWindow-backto-Mundo" style="stroke:#181818;stroke-width:1.0;"/><polygon fill="none" points="355,59.68,349,77.68,361,77.68,355,59.68" style="stroke:#181818;stroke-width:1.0;"/></g><!--link Mundo to Objeto--><g id="link_Mundo_Objeto"><path codeLine="15" d="M649.8139,120.1984 C681.3739,112.2184 701.68,108.36 732.67,103.62 C1157.25,38.73 1671.36,168.3 1816.79,208.81 " fill="none" id="Mundo-Objeto" style="stroke:#181818;stroke-width:1.0;"/><polygon fill="none" points="638.18,123.14,644.9775,125.5471,649.8139,120.1984,643.0164,117.7912,638.18,123.14" style="stroke:#181818;stroke-width:1.0;"/><polygon fill="#181818" points="1822.57,210.42,1814.9734,204.1517,1817.7534,209.0783,1812.8267,211.8583,1822.57,210.42" style="stroke:#181818;stroke-width:1.0;"/><text fill="#000000" font-family="sans-serif" font-size="13" lengthAdjust="spacing" textLength="44" x="1771.0832" y="205.7038">mundo</text></g><!--link Mundo to Objeto--><g id="link_Mundo_Objeto"><path codeLine="17" d="M603.8667,119.3729 C653.2367,102.9529 694.15,92.26 744.33,83.62 C1163.9,11.37 1672.6306,160.1654 1816.9906,206.8054 " fill="none" id="Mundo-Objeto-1" style="stroke:#181818;stroke-width:1.0;"/><polygon fill="none" points="592.48,123.16,599.4357,125.062,603.8667,119.3729,596.911,117.4709,592.48,123.16" style="stroke:#181818;stroke-width:1.0;"/><polygon fill="#181818" points="1822.7,208.65,1815.3656,202.0768,1817.9422,207.1128,1812.9061,209.6894,1822.7,208.65" style="stroke:#181818;stroke-width:1.0;"/><text fill="#000000" font-family="sans-serif" font-size="13" lengthAdjust="spacing" textLength="115" x="1699.9863" y="220.7789">objetoSelecionado</text></g><!--link Mundo to Dictionary`2--><g id="link_Mundo_Dictionary`2"><path codeLine="16" d="M543.6271,118.4468 C651.3071,72.2268 778.59,42.18 893.5,93.62 C941.03,114.9 973.9275,161.5528 991.9975,192.4028 " fill="none" id="Mundo-Dictionary`2" style="stroke:#181818;stroke-width:1.0;"/><polygon fill="none" points="532.6,123.18,539.6913,124.4891,543.6271,118.4468,536.5358,117.1377,532.6,123.18" style="stroke:#181818;stroke-width:1.0;"/><polygon fill="#181818" points="995.03,197.58,993.9327,187.7925,992.5029,193.2656,987.0297,191.8358,995.03,197.58" style="stroke:#181818;stroke-width:1.0;"/><text fill="#000000" font-family="sans-serif" font-size="13" lengthAdjust="spacing" textLength="156" x="815.7189" y="187.0548">grafoLista&lt;char,Objeto&gt;</text></g><!--link Mundo to Transformacao4D--><g id="link_Mundo_Transformacao4D"><path codeLine="18" d="M715.45,221.82 C727.03,221.82 720.61,221.82 732.18,221.82 " fill="none" id="Mundo-Transformacao4D" style="stroke:#181818;stroke-width:1.0;"/><polygon fill="none" points="703.45,221.82,709.45,225.82,715.45,221.82,709.45,217.82,703.45,221.82" style="stroke:#181818;stroke-width:1.0;"/><polygon fill="#181818" points="738.18,221.82,729.18,217.82,733.18,221.82,729.18,225.82,738.18,221.82" style="stroke:#181818;stroke-width:1.0;"/><text fill="#000000" font-family="sans-serif" font-size="13" lengthAdjust="spacing" textLength="74" x="656.9101" y="211.8409">matrizGrafo</text></g><!--link Mundo to Shader--><g id="link_Mundo_Shader"><path codeLine="19" d="M317.61,320.44 C313.13,377.2 315.7156,438.6019 329.9456,473.1619 " fill="none" id="Mundo-to-Shader" style="stroke:#181818;stroke-width:1.0;"/><polygon fill="#181818" points="332.23,478.71,332.5021,468.8649,330.3263,474.0866,325.1046,471.9108,332.23,478.71" style="stroke:#181818;stroke-width:1.0;"/><text fill="#000000" font-family="sans-serif" font-size="13" lengthAdjust="spacing" textLength="107" x="205.6858" y="468.1848">_shaderVermelha</text></g><!--link Mundo to Shader--><g id="link_Mundo_Shader"><path codeLine="20" d="M342.78,320.44 C341.31,377.2 342.1099,438.2036 346.7599,472.7636 " fill="none" id="Mundo-to-Shader-1" style="stroke:#181818;stroke-width:1.0;"/><polygon fill="#181818" points="347.56,478.71,350.3242,469.257,346.8933,473.7547,342.3956,470.3238,347.56,478.71" style="stroke:#181818;stroke-width:1.0;"/><text fill="#000000" font-family="sans-serif" font-size="13" lengthAdjust="spacing" textLength="84" x="344.0056" y="468.038">_shaderVerde</text></g><!--link Mundo to Shader--><g id="link_Mundo_Shader"><path codeLine="21" d="M367.94,320.44 C369.49,377.2 368.6573,438.2101 363.7273,472.7701 " fill="none" id="Mundo-to-Shader-2" style="stroke:#181818;stroke-width:1.0;"/><polygon fill="#181818" points="362.88,478.71,368.1109,470.3651,363.5861,473.7601,360.1911,469.2353,362.88,478.71" style="stroke:#181818;stroke-width:1.0;"/><text fill="#000000" font-family="sans-serif" font-size="13" lengthAdjust="spacing" textLength="77" x="379.3112" y="468.3546">_shaderAzul</text></g><!--link Mundo to Shader--><g id="link_Mundo_Shader"><path codeLine="22" d="M393.11,320.44 C397.68,377.2 395.0327,438.6178 380.5227,473.1778 " fill="none" id="Mundo-to-Shader-3" style="stroke:#181818;stroke-width:1.0;"/><polygon fill="#181818" points="378.2,478.71,385.3722,471.9602,380.1356,474.0998,377.9959,468.8633,378.2,478.71" style="stroke:#181818;stroke-width:1.0;"/><text fill="#000000" font-family="sans-serif" font-size="13" lengthAdjust="spacing" textLength="85" x="288.2544" y="468.1848">_shaderCiano</text></g><!--link Mundo to Ponto4D--><g id="link_Mundo_Ponto4D"><path codeLine="23" d="M671.78,320.45 C702.48,337.41 731.6,357.13 757,380.02 C786.92,406.97 802.9604,445.7558 811.6504,472.8958 " fill="none" id="Mundo-to-Ponto4D" style="stroke:#181818;stroke-width:1.0;"/><polygon fill="#181818" points="813.48,478.61,814.545,468.8189,811.9553,473.8481,806.926,471.2584,813.48,478.61" style="stroke:#181818;stroke-width:1.0;"/><text fill="#000000" font-family="sans-serif" font-size="13" lengthAdjust="spacing" textLength="123" x="747.8794" y="465.2891">mouseMovtoUltimo</text></g><!--reverse link Objeto to Retangulo--><g id="link_Objeto_Retangulo"><path codeLine="7" d="M1828.9944,259.5245 C1789.8244,303.0845 1716.55,384.57 1661.55,445.73 " fill="none" id="Objeto-backto-Retangulo" style="stroke:#181818;stroke-width:1.0;"/><polygon fill="none" points="1841.03,246.14,1824.5329,255.5126,1833.4559,263.5364,1841.03,246.14" style="stroke:#181818;stroke-width:1.0;"/></g><!--reverse link Objeto to SplineBezier--><g id="link_Objeto_SplineBezier"><path codeLine="15" d="M1919.3145,225.1376 C2139.1945,234.2776 3199.64,282.67 3516,380.02 C3525.04,382.8 3534.12,385.97 3543.18,389.45 " fill="none" id="Objeto-backto-SplineBezier" style="stroke:#181818;stroke-width:1.0;"/><polygon fill="none" points="1901.33,224.39,1919.0653,231.1324,1919.5637,219.1428,1901.33,224.39" style="stroke:#181818;stroke-width:1.0;"/></g><!--link SplineBezier to Poligono--><g id="link_SplineBezier_Poligono"><path codeLine="16" d="M3606.01,626.17 C3583.22,647.28 3565.2031,663.9742 3546.2331,681.5342 " fill="none" id="SplineBezier-to-Poligono" style="stroke:#181818;stroke-width:1.0;"/><polygon fill="#181818" points="3541.83,685.61,3551.1519,682.4316,3545.4993,682.2135,3545.7175,676.5608,3541.83,685.61" style="stroke:#181818;stroke-width:1.0;"/><text fill="#000000" font-family="sans-serif" font-size="13" lengthAdjust="spacing" textLength="106" x="3435.6655" y="675.2545">poliedroControle</text></g><!--reverse link Objeto to SplineInter--><g id="link_Objeto_SplineInter"><path codeLine="14" d="M1804.8887,234.0756 C1712.3787,252.8256 1492.94,301.63 1307,380.02 C1301.13,382.49 1295.22,385.09 1289.3,387.8 " fill="none" id="Objeto-backto-SplineInter" style="stroke:#181818;stroke-width:1.0;"/><polygon fill="none" points="1822.53,230.5,1803.6969,228.1951,1806.0806,239.956,1822.53,230.5" style="stroke:#181818;stroke-width:1.0;"/></g><!--link SplineInter to Poligono--><g id="link_SplineInter_Poligono"><path codeLine="15" d="M1283.77,618.12 C1291.5,620.99 1299.26,623.6 1307,625.88 C1487.31,678.82 2689.6919,714.191 3227.1319,727.541 " fill="none" id="SplineInter-to-Poligono" style="stroke:#181818;stroke-width:1.0;"/><polygon fill="#181818" points="3233.13,727.69,3224.2321,723.4677,3228.1315,727.5658,3224.0334,731.4653,3233.13,727.69" style="stroke:#181818;stroke-width:1.0;"/><text fill="#000000" font-family="sans-serif" font-size="13" lengthAdjust="spacing" textLength="106" x="3119.8674" y="724.924">poliedroControle</text></g><!--reverse link Objeto to Ponto--><g id="link_Objeto_Ponto"><path codeLine="7" d="M1895.0056,259.5245 C1934.1756,303.0845 2007.45,384.57 2062.45,445.73 " fill="none" id="Objeto-backto-Ponto" style="stroke:#181818;stroke-width:1.0;"/><polygon fill="none" points="1882.97,246.14,1890.5441,263.5364,1899.4671,255.5126,1882.97,246.14" style="stroke:#181818;stroke-width:1.0;"/></g><!--reverse link Objeto to Circulo--><g id="link_Objeto_Circulo"><path codeLine="7" d="M1918.3585,241.4956 C1996.7285,267.5856 2160.8,323.04 2311,380.02 C2365.09,400.54 2424.16,424.39 2475.33,445.54 " fill="none" id="Objeto-backto-Circulo" style="stroke:#181818;stroke-width:1.0;"/><polygon fill="none" points="1901.28,235.81,1916.4633,247.1884,1920.2537,235.8027,1901.28,235.81" style="stroke:#181818;stroke-width:1.0;"/></g><!--reverse link Objeto to SegReta--><g id="link_Objeto_SegReta"><path codeLine="7" d="M1919.2086,225.9721 C2058.7886,234.2221 2525.27,268.59 2907,380.02 C2963.35,396.46 3023.22,422.08 3072.57,445.59 " fill="none" id="Objeto-backto-SegReta" style="stroke:#181818;stroke-width:1.0;"/><polygon fill="none" points="1901.24,224.91,1918.8546,231.9616,1919.5627,219.9825,1901.24,224.91" style="stroke:#181818;stroke-width:1.0;"/></g><!--SRC=[KypCIyufJKbLqDCFoC_9JC_FozShACtDuL94I0GN1IJcP9PWIlYMvgLWYWQbbYJcfPVcO36e82SpBzKfjIepjGY7f6TU2HQvWFmyBDOxPnObOxKcDHta1anJYlBJYn9pmU80]--></g></svg>