<?xml version="1.0" encoding="us-ascii" standalone="no"?><svg xmlns="http://www.w3.org/2000/svg" xmlns:xlink="http://www.w3.org/1999/xlink" contentStyleType="text/css" height="426px" preserveAspectRatio="none" style="width:1289px;height:426px;background:#FFFFFF;" version="1.1" viewBox="0 0 1289 426" width="1289px" zoomAndPan="magnify"><defs/><g><!--class Mundo--><g id="elem_Mundo"><rect codeLine="1" fill="#F1F1F1" height="196.3945" id="Mundo" rx="2.5" ry="2.5" style="stroke:#181818;stroke-width:0.5;" width="696" x="7" y="115"/><ellipse cx="326.75" cy="131" fill="#ADD1B2" rx="11" ry="11" style="stroke:#181818;stroke-width:1.0;"/><path d="M329.2231,137.1431 Q328.6421,137.4419 328.0029,137.5913 Q327.3638,137.7407 326.6582,137.7407 Q324.1514,137.7407 322.8315,136.0889 Q321.5117,134.437 321.5117,131.3159 Q321.5117,128.1865 322.8315,126.5347 Q324.1514,124.8828 326.6582,124.8828 Q327.3638,124.8828 328.0112,125.0322 Q328.6587,125.1816 329.2231,125.4805 L329.2231,128.2031 Q328.5923,127.6221 327.9988,127.3523 Q327.4053,127.0825 326.7744,127.0825 Q325.4297,127.0825 324.7449,128.1492 Q324.0601,129.2158 324.0601,131.3159 Q324.0601,133.4077 324.7449,134.4744 Q325.4297,135.541 326.7744,135.541 Q327.4053,135.541 327.9988,135.2712 Q328.5923,135.0015 329.2231,134.4204 Z " fill="#000000"/><text fill="#000000" font-family="sans-serif" font-size="14" lengthAdjust="spacing" textLength="48" x="347.25" y="136.291">Mundo</text><line style="stroke:#181818;stroke-width:0.5;" x1="8" x2="702" y1="147" y2="147"/><rect fill="none" height="6" style="stroke:#C82930;stroke-width:1.0;" width="6" x="15" y="157.7441"/><text fill="#000000" font-family="sans-serif" font-size="14" lengthAdjust="spacing" textLength="151" x="27" y="164.5352">rotuloAtual : char = '?'</text><rect fill="none" height="6" style="stroke:#C82930;stroke-width:1.0;" width="6" x="15" y="174.2324"/><text fill="#000000" font-family="sans-serif" font-size="14" lengthAdjust="spacing" textLength="236" x="27" y="181.0234">mouseMovtoPrimeiro : bool = true</text><line style="stroke:#181818;stroke-width:0.5;" x1="8" x2="702" y1="187.9766" y2="187.9766"/><ellipse cx="18" cy="201.7207" fill="#84BE84" rx="3" ry="3" style="stroke:#038048;stroke-width:1.0;"/><text fill="#000000" font-family="sans-serif" font-size="14" lengthAdjust="spacing" textLength="670" x="27" y="205.5117">Mundo(gameWindowSettings:GameWindowSettings, nativeWindowSettings:NativeWindowSettings)</text><rect fill="#F24D5C" height="6" style="stroke:#C82930;stroke-width:1.0;" width="6" x="15" y="215.209"/><text fill="#000000" font-family="sans-serif" font-size="14" lengthAdjust="spacing" textLength="179" x="27" y="222">&#171;override&#187; OnLoad() : void</text><rect fill="#F24D5C" height="6" style="stroke:#C82930;stroke-width:1.0;" width="6" x="15" y="231.6973"/><text fill="#000000" font-family="sans-serif" font-size="14" lengthAdjust="spacing" textLength="362" x="27" y="238.4883">&#171;override&#187; OnRenderFrame(e:FrameEventArgs) : void</text><rect fill="#F24D5C" height="6" style="stroke:#C82930;stroke-width:1.0;" width="6" x="15" y="248.1855"/><text fill="#000000" font-family="sans-serif" font-size="14" lengthAdjust="spacing" textLength="362" x="27" y="254.9766">&#171;override&#187; OnUpdateFrame(e:FrameEventArgs) : void</text><rect fill="#F24D5C" height="6" style="stroke:#C82930;stroke-width:1.0;" width="6" x="15" y="264.6738"/><text fill="#000000" font-family="sans-serif" font-size="14" lengthAdjust="spacing" textLength="315" x="27" y="271.4648">&#171;override&#187; OnResize(e:ResizeEventArgs) : void</text><rect fill="#F24D5C" height="6" style="stroke:#C82930;stroke-width:1.0;" width="6" x="15" y="281.1621"/><text fill="#000000" font-family="sans-serif" font-size="14" lengthAdjust="spacing" textLength="195" x="27" y="287.9531">&#171;override&#187; OnUnload() : void</text><rect fill="#F24D5C" height="6" style="stroke:#C82930;stroke-width:1.0;" width="6" x="15" y="297.6504"/><text fill="#000000" font-family="sans-serif" font-size="14" lengthAdjust="spacing" textLength="144" x="27" y="304.4414">Gizmo_Sru3D() : void</text></g><!--class Dictionary`2--><g id="elem_Dictionary`2"><rect codeLine="12" fill="#F1F1F1" height="48" id="Dictionary`2" rx="2.5" ry="2.5" style="stroke:#181818;stroke-width:0.5;" width="159" x="928.5" y="189.19"/><ellipse cx="943.5" cy="205.19" fill="#ADD1B2" rx="11" ry="11" style="stroke:#181818;stroke-width:1.0;"/><path d="M945.9731,211.3331 Q945.3921,211.6319 944.7529,211.7813 Q944.1138,211.9307 943.4082,211.9307 Q940.9014,211.9307 939.5815,210.2789 Q938.2617,208.627 938.2617,205.5059 Q938.2617,202.3765 939.5815,200.7247 Q940.9014,199.0728 943.4082,199.0728 Q944.1138,199.0728 944.7612,199.2222 Q945.4087,199.3716 945.9731,199.6705 L945.9731,202.3931 Q945.3423,201.8121 944.7488,201.5423 Q944.1553,201.2725 943.5244,201.2725 Q942.1797,201.2725 941.4949,202.3392 Q940.8101,203.4058 940.8101,205.5059 Q940.8101,207.5977 941.4949,208.6644 Q942.1797,209.731 943.5244,209.731 Q944.1553,209.731 944.7488,209.4612 Q945.3423,209.1915 945.9731,208.6104 Z " fill="#000000"/><text fill="#000000" font-family="sans-serif" font-size="14" lengthAdjust="spacing" textLength="87" x="957.5" y="210.481">Dictionary`2</text><rect fill="#FFFFFF" height="16.1328" style="stroke:#181818;stroke-width:1.0;stroke-dasharray:2.0,2.0;" width="38" x="1052.5" y="186.19"/><text fill="#000000" font-family="sans-serif" font-size="12" font-style="italic" lengthAdjust="spacing" textLength="36" x="1053.5" y="198.7916">T1,T2</text><line style="stroke:#181818;stroke-width:0.5;" x1="929.5" x2="1086.5" y1="221.19" y2="221.19"/><line style="stroke:#181818;stroke-width:0.5;" x1="929.5" x2="1086.5" y1="229.19" y2="229.19"/></g><!--class GameWindow--><g id="elem_GameWindow"><rect fill="#F1F1F1" height="48" id="GameWindow" rx="2.5" ry="2.5" style="stroke:#181818;stroke-width:0.5;" width="125" x="292.5" y="7"/><ellipse cx="307.5" cy="23" fill="#ADD1B2" rx="11" ry="11" style="stroke:#181818;stroke-width:1.0;"/><path d="M309.9731,29.1431 Q309.3921,29.4419 308.7529,29.5913 Q308.1138,29.7407 307.4082,29.7407 Q304.9014,29.7407 303.5815,28.0889 Q302.2617,26.437 302.2617,23.3159 Q302.2617,20.1865 303.5815,18.5347 Q304.9014,16.8828 307.4082,16.8828 Q308.1138,16.8828 308.7612,17.0322 Q309.4087,17.1816 309.9731,17.4805 L309.9731,20.2031 Q309.3423,19.6221 308.7488,19.3523 Q308.1553,19.0825 307.5244,19.0825 Q306.1797,19.0825 305.4949,20.1492 Q304.8101,21.2158 304.8101,23.3159 Q304.8101,25.4077 305.4949,26.4744 Q306.1797,27.541 307.5244,27.541 Q308.1553,27.541 308.7488,27.2712 Q309.3423,27.0015 309.9731,26.4204 Z " fill="#000000"/><text fill="#000000" font-family="sans-serif" font-size="14" lengthAdjust="spacing" textLength="93" x="321.5" y="28.291">GameWindow</text><line style="stroke:#181818;stroke-width:0.5;" x1="293.5" x2="416.5" y1="39" y2="39"/><line style="stroke:#181818;stroke-width:0.5;" x1="293.5" x2="416.5" y1="47" y2="47"/></g><!--class Objeto--><g id="elem_Objeto"><rect fill="#F1F1F1" height="48" id="Objeto" rx="2.5" ry="2.5" style="stroke:#181818;stroke-width:0.5;" width="78" x="1122" y="189.19"/><ellipse cx="1137" cy="205.19" fill="#ADD1B2" rx="11" ry="11" style="stroke:#181818;stroke-width:1.0;"/><path d="M1139.4731,211.3331 Q1138.8921,211.6319 1138.2529,211.7813 Q1137.6138,211.9307 1136.9082,211.9307 Q1134.4014,211.9307 1133.0815,210.2789 Q1131.7617,208.627 1131.7617,205.5059 Q1131.7617,202.3765 1133.0815,200.7247 Q1134.4014,199.0728 1136.9082,199.0728 Q1137.6138,199.0728 1138.2612,199.2222 Q1138.9087,199.3716 1139.4731,199.6705 L1139.4731,202.3931 Q1138.8423,201.8121 1138.2488,201.5423 Q1137.6553,201.2725 1137.0244,201.2725 Q1135.6797,201.2725 1134.9949,202.3392 Q1134.3101,203.4058 1134.3101,205.5059 Q1134.3101,207.5977 1134.9949,208.6644 Q1135.6797,209.731 1137.0244,209.731 Q1137.6553,209.731 1138.2488,209.4612 Q1138.8423,209.1915 1139.4731,208.6104 Z " fill="#000000"/><text fill="#000000" font-family="sans-serif" font-size="14" lengthAdjust="spacing" textLength="46" x="1151" y="210.481">Objeto</text><line style="stroke:#181818;stroke-width:0.5;" x1="1123" x2="1199" y1="221.19" y2="221.19"/><line style="stroke:#181818;stroke-width:0.5;" x1="1123" x2="1199" y1="229.19" y2="229.19"/></g><!--class Transformacao4D--><g id="elem_Transformacao4D"><rect fill="#F1F1F1" height="48" id="Transformacao4D" rx="2.5" ry="2.5" style="stroke:#181818;stroke-width:0.5;" width="155" x="738.5" y="189.19"/><ellipse cx="753.5" cy="205.19" fill="#ADD1B2" rx="11" ry="11" style="stroke:#181818;stroke-width:1.0;"/><path d="M755.9731,211.3331 Q755.3921,211.6319 754.7529,211.7813 Q754.1138,211.9307 753.4082,211.9307 Q750.9014,211.9307 749.5815,210.2789 Q748.2617,208.627 748.2617,205.5059 Q748.2617,202.3765 749.5815,200.7247 Q750.9014,199.0728 753.4082,199.0728 Q754.1138,199.0728 754.7612,199.2222 Q755.4087,199.3716 755.9731,199.6705 L755.9731,202.3931 Q755.3423,201.8121 754.7488,201.5423 Q754.1553,201.2725 753.5244,201.2725 Q752.1797,201.2725 751.4949,202.3392 Q750.8101,203.4058 750.8101,205.5059 Q750.8101,207.5977 751.4949,208.6644 Q752.1797,209.731 753.5244,209.731 Q754.1553,209.731 754.7488,209.4612 Q755.3423,209.1915 755.9731,208.6104 Z " fill="#000000"/><text fill="#000000" font-family="sans-serif" font-size="14" lengthAdjust="spacing" textLength="123" x="767.5" y="210.481">Transformacao4D</text><line style="stroke:#181818;stroke-width:0.5;" x1="739.5" x2="892.5" y1="221.19" y2="221.19"/><line style="stroke:#181818;stroke-width:0.5;" x1="739.5" x2="892.5" y1="229.19" y2="229.19"/></g><!--class Shader--><g id="elem_Shader"><rect fill="#F1F1F1" height="48" id="Shader" rx="2.5" ry="2.5" style="stroke:#181818;stroke-width:0.5;" width="80" x="315" y="371.39"/><ellipse cx="330" cy="387.39" fill="#ADD1B2" rx="11" ry="11" style="stroke:#181818;stroke-width:1.0;"/><path d="M332.4731,393.5331 Q331.8921,393.8319 331.2529,393.9813 Q330.6138,394.1307 329.9082,394.1307 Q327.4014,394.1307 326.0815,392.4789 Q324.7617,390.827 324.7617,387.7059 Q324.7617,384.5765 326.0815,382.9247 Q327.4014,381.2728 329.9082,381.2728 Q330.6138,381.2728 331.2612,381.4222 Q331.9087,381.5716 332.4731,381.8705 L332.4731,384.5931 Q331.8423,384.0121 331.2488,383.7423 Q330.6553,383.4725 330.0244,383.4725 Q328.6797,383.4725 327.9949,384.5392 Q327.3101,385.6058 327.3101,387.7059 Q327.3101,389.7977 327.9949,390.8644 Q328.6797,391.931 330.0244,391.931 Q330.6553,391.931 331.2488,391.6612 Q331.8423,391.3915 332.4731,390.8104 Z " fill="#000000"/><text fill="#000000" font-family="sans-serif" font-size="14" lengthAdjust="spacing" textLength="48" x="344" y="392.681">Shader</text><line style="stroke:#181818;stroke-width:0.5;" x1="316" x2="394" y1="403.39" y2="403.39"/><line style="stroke:#181818;stroke-width:0.5;" x1="316" x2="394" y1="411.39" y2="411.39"/></g><!--class Ponto4D--><g id="elem_Ponto4D"><rect fill="#F1F1F1" height="48" id="Ponto4D" rx="2.5" ry="2.5" style="stroke:#181818;stroke-width:0.5;" width="91" x="430.5" y="371.39"/><ellipse cx="445.5" cy="387.39" fill="#ADD1B2" rx="11" ry="11" style="stroke:#181818;stroke-width:1.0;"/><path d="M447.9731,393.5331 Q447.3921,393.8319 446.7529,393.9813 Q446.1138,394.1307 445.4082,394.1307 Q442.9014,394.1307 441.5815,392.4789 Q440.2617,390.827 440.2617,387.7059 Q440.2617,384.5765 441.5815,382.9247 Q442.9014,381.2728 445.4082,381.2728 Q446.1138,381.2728 446.7612,381.4222 Q447.4087,381.5716 447.9731,381.8705 L447.9731,384.5931 Q447.3423,384.0121 446.7488,383.7423 Q446.1553,383.4725 445.5244,383.4725 Q444.1797,383.4725 443.4949,384.5392 Q442.8101,385.6058 442.8101,387.7059 Q442.8101,389.7977 443.4949,390.8644 Q444.1797,391.931 445.5244,391.931 Q446.1553,391.931 446.7488,391.6612 Q447.3423,391.3915 447.9731,390.8104 Z " fill="#000000"/><text fill="#000000" font-family="sans-serif" font-size="14" lengthAdjust="spacing" textLength="59" x="459.5" y="392.681">Ponto4D</text><line style="stroke:#181818;stroke-width:0.5;" x1="431.5" x2="520.5" y1="403.39" y2="403.39"/><line style="stroke:#181818;stroke-width:0.5;" x1="431.5" x2="520.5" y1="411.39" y2="411.39"/></g><!--reverse link GameWindow to Mundo--><g id="link_GameWindow_Mundo"><path codeLine="14" d="M355,73.18 C355,88.77 355,92.48 355,114.8 " fill="none" id="GameWindow-backto-Mundo" style="stroke:#181818;stroke-width:1.0;"/><polygon fill="none" points="355,55.18,349,73.18,361,73.18,355,55.18" style="stroke:#181818;stroke-width:1.0;"/></g><!--link Mundo to Objeto--><g id="link_Mundo_Objeto"><path codeLine="15" d="M649.8139,111.5684 C681.3739,103.5884 701.68,99.73 732.67,95 C772.28,88.94 1058.58,75.04 1093.33,95 C1128.19,115.02 1144.8799,154.8189 1153.3099,183.1689 " fill="none" id="Mundo-Objeto" style="stroke:#181818;stroke-width:1.0;"/><polygon fill="none" points="638.18,114.51,644.9775,116.9171,649.8139,111.5684,643.0164,109.1612,638.18,114.51" style="stroke:#181818;stroke-width:1.0;"/><polygon fill="#181818" points="1155.02,188.92,1156.2889,179.1532,1153.5949,184.1274,1148.6207,181.4334,1155.02,188.92" style="stroke:#181818;stroke-width:1.0;"/><text fill="#000000" font-family="sans-serif" font-size="13" lengthAdjust="spacing" textLength="44" x="1103.8501" y="178.3871">mundo</text></g><!--link Mundo to Objeto--><g id="link_Mundo_Objeto"><path codeLine="17" d="M603.8674,110.745 C653.2374,94.335 694.15,83.64 744.33,75 C818.21,62.27 1016.66,37.66 1081.67,75 C1124.13,99.38 1144.1533,150.3404 1153.4833,183.0304 " fill="none" id="Mundo-Objeto-1" style="stroke:#181818;stroke-width:1.0;"/><polygon fill="none" points="592.48,114.53,599.4354,116.4333,603.8674,110.745,596.912,108.8417,592.48,114.53" style="stroke:#181818;stroke-width:1.0;"/><polygon fill="#181818" points="1155.13,188.8,1156.5064,179.0478,1153.7578,183.992,1148.8136,181.2434,1155.13,188.8" style="stroke:#181818;stroke-width:1.0;"/><text fill="#000000" font-family="sans-serif" font-size="13" lengthAdjust="spacing" textLength="115" x="1167.7148" y="178.633">objetoSelecionado</text></g><!--link Mundo to Dictionary`2--><g id="link_Mundo_Dictionary`2"><path codeLine="16" d="M543.6267,109.8259 C651.3067,63.5959 778.59,33.56 893.5,85 C941.03,106.27 973.9275,152.9328 991.9975,183.7828 " fill="none" id="Mundo-Dictionary`2" style="stroke:#181818;stroke-width:1.0;"/><polygon fill="none" points="532.6,114.56,539.6914,115.8685,543.6267,109.8259,536.5353,108.5174,532.6,114.56" style="stroke:#181818;stroke-width:1.0;"/><polygon fill="#181818" points="995.03,188.96,993.9327,179.1725,992.5029,184.6456,987.0297,183.2158,995.03,188.96" style="stroke:#181818;stroke-width:1.0;"/><text fill="#000000" font-family="sans-serif" font-size="13" lengthAdjust="spacing" textLength="156" x="815.7189" y="178.4373">grafoLista&lt;char,Objeto&gt;</text></g><!--link Mundo to Transformacao4D--><g id="link_Mundo_Transformacao4D"><path codeLine="18" d="M715.45,213.19 C727.03,213.19 720.61,213.19 732.18,213.19 " fill="none" id="Mundo-Transformacao4D" style="stroke:#181818;stroke-width:1.0;"/><polygon fill="none" points="703.45,213.19,709.45,217.19,715.45,213.19,709.45,209.19,703.45,213.19" style="stroke:#181818;stroke-width:1.0;"/><polygon fill="#181818" points="738.18,213.19,729.18,209.19,733.18,213.19,729.18,217.19,738.18,213.19" style="stroke:#181818;stroke-width:1.0;"/><text fill="#000000" font-family="sans-serif" font-size="13" lengthAdjust="spacing" textLength="74" x="656.9101" y="203.2085">matrizGrafo</text></g><!--link Mundo to Shader--><g id="link_Mundo_Shader"><path codeLine="19" d="M316.12,311.67 C316.82,333.9 318.228,350.0574 325.298,365.6174 " fill="none" id="Mundo-to-Shader" style="stroke:#181818;stroke-width:1.0;"/><polygon fill="#181818" points="327.78,371.08,327.6987,361.2315,325.7116,366.5279,320.4153,364.5408,327.78,371.08" style="stroke:#181818;stroke-width:1.0;"/><text fill="#000000" font-family="sans-serif" font-size="13" lengthAdjust="spacing" textLength="107" x="200.0955" y="360.5368">_shaderVermelha</text></g><!--link Mundo to Shader--><g id="link_Mundo_Shader"><path codeLine="20" d="M342.29,311.67 C342.52,333.9 342.9089,349.585 345.2189,365.145 " fill="none" id="Mundo-to-Shader-1" style="stroke:#181818;stroke-width:1.0;"/><polygon fill="#181818" points="346.1,371.08,348.735,361.5902,345.3658,366.1342,340.8217,362.765,346.1,371.08" style="stroke:#181818;stroke-width:1.0;"/><text fill="#000000" font-family="sans-serif" font-size="13" lengthAdjust="spacing" textLength="84" x="354.5819" y="360.5368">_shaderVerde</text></g><!--link Mundo to Shader--><g id="link_Mundo_Shader"><path codeLine="21" d="M368.46,311.67 C368.22,333.9 367.8032,349.593 365.3532,365.153 " fill="none" id="Mundo-to-Shader-2" style="stroke:#181818;stroke-width:1.0;"/><polygon fill="#181818" points="364.42,371.08,369.7712,362.8117,365.1977,366.1409,361.8685,361.5674,364.42,371.08" style="stroke:#181818;stroke-width:1.0;"/><text fill="#000000" font-family="sans-serif" font-size="13" lengthAdjust="spacing" textLength="77" x="393.6805" y="360.5998">_shaderAzul</text></g><!--link Mundo to Shader--><g id="link_Mundo_Shader"><path codeLine="22" d="M394.63,311.67 C393.91,333.9 392.4697,350.0747 385.2697,365.6347 " fill="none" id="Mundo-to-Shader-3" style="stroke:#181818;stroke-width:1.0;"/><polygon fill="#181818" points="382.75,371.08,390.1597,364.5918,384.8497,366.5423,382.8993,361.2323,382.75,371.08" style="stroke:#181818;stroke-width:1.0;"/><text fill="#000000" font-family="sans-serif" font-size="13" lengthAdjust="spacing" textLength="85" x="400.7516" y="360.5368">_shaderCiano</text></g><!--link Mundo to Ponto4D--><g id="link_Mundo_Ponto4D"><path codeLine="23" d="M420.46,311.67 C435.38,333.9 446.5548,350.5391 457.0048,366.0991 " fill="none" id="Mundo-to-Ponto4D" style="stroke:#181818;stroke-width:1.0;"/><polygon fill="#181818" points="460.35,371.08,458.6529,361.3785,457.5624,366.9292,452.0116,365.8387,460.35,371.08" style="stroke:#181818;stroke-width:1.0;"/><text fill="#000000" font-family="sans-serif" font-size="13" lengthAdjust="spacing" textLength="123" x="472.0991" y="360.5368">mouseMovtoUltimo</text></g><!--SRC=[dP9DJy9048Rl_8fDBq2a1z4JgJL4b0i8uKEFEBG3hDdTCTDjZLN_kzkM1CM667lPsNsV-TY-6ob84Z5EJKpYlI7SvmiccohgsnIKw8be1ookHFEwkPSrfGcEARCqPQbHCZbgJQGSPJd54ZkhQhQseF5HkkXrZjPAiqrwmrz77M70okmOlAyvRE-720BAa5d668PYOaO4SQljviX8nlN834sCVCUkUmjxvNgReR5zTbLFPYvVOh3udymP9Z8laghWh_sCghdEKEQQLdDEBmO7wRCHbGPw0nbPIGRuxQdh1Olppg8REaC_6uU_BO8FtwziQLI6anyAJnUX9oRhPxG_X2t3XaOoiH0KRw1J4Q5trEnx2fN871L6XLvVLuDbcG-BwfvOC9XaGwmX0heSx3c_u5R93fnZ3yWQrGuyCI_tzKYC9_H-dgeJyeq4GtNwuQKlbPNQCLCoretv1G00]--></g></svg>