<?xml version="1.0" encoding="us-ascii" standalone="no"?><svg xmlns="http://www.w3.org/2000/svg" xmlns:xlink="http://www.w3.org/1999/xlink" contentStyleType="text/css" height="219px" preserveAspectRatio="none" style="width:527px;height:219px;background:#FFFFFF;" version="1.1" viewBox="0 0 527 219" width="527px" zoomAndPan="magnify"><defs/><g><!--class Poligono--><g id="elem_Poligono"><rect codeLine="1" fill="#F1F1F1" height="97.4648" id="Poligono" rx="2.5" ry="2.5" style="stroke:#181818;stroke-width:0.5;" width="513" x="7" y="115"/><ellipse cx="228.75" cy="131" fill="#ADD1B2" rx="11" ry="11" style="stroke:#181818;stroke-width:1.0;"/><path d="M231.2231,137.1431 Q230.6421,137.4419 230.0029,137.5913 Q229.3638,137.7407 228.6582,137.7407 Q226.1514,137.7407 224.8315,136.0889 Q223.5117,134.437 223.5117,131.3159 Q223.5117,128.1865 224.8315,126.5347 Q226.1514,124.8828 228.6582,124.8828 Q229.3638,124.8828 230.0112,125.0322 Q230.6587,125.1816 231.2231,125.4805 L231.2231,128.2031 Q230.5923,127.6221 229.9988,127.3523 Q229.4053,127.0825 228.7744,127.0825 Q227.4297,127.0825 226.7449,128.1492 Q226.0601,129.2158 226.0601,131.3159 Q226.0601,133.4077 226.7449,134.4744 Q227.4297,135.541 228.7744,135.541 Q229.4053,135.541 229.9988,135.2712 Q230.5923,135.0015 231.2231,134.4204 Z " fill="#000000"/><text fill="#000000" font-family="sans-serif" font-size="14" lengthAdjust="spacing" textLength="61" x="249.25" y="136.291">Poligono</text><line style="stroke:#181818;stroke-width:0.5;" x1="8" x2="519" y1="147" y2="147"/><line style="stroke:#181818;stroke-width:0.5;" x1="8" x2="519" y1="155" y2="155"/><ellipse cx="18" cy="168.7441" fill="#84BE84" rx="3" ry="3" style="stroke:#038048;stroke-width:1.0;"/><text fill="#000000" font-family="sans-serif" font-size="14" lengthAdjust="spacing" textLength="487" x="27" y="172.5352">Poligono(_paiRef:Objeto, _rotulo:char, pontosPoligono:List&lt;Ponto4D&gt;)</text><ellipse cx="18" cy="185.2324" fill="#84BE84" rx="3" ry="3" style="stroke:#038048;stroke-width:1.0;"/><text fill="#000000" font-family="sans-serif" font-size="14" lengthAdjust="spacing" textLength="113" x="27" y="189.0234">Atualizar() : void</text><ellipse cx="18" cy="201.7207" fill="#84BE84" rx="3" ry="3" style="stroke:#038048;stroke-width:1.0;"/><text fill="#000000" font-family="sans-serif" font-size="14" lengthAdjust="spacing" textLength="196" x="27" y="205.5117">&#171;override&#187; ToString() : string</text></g><!--class Objeto--><g id="elem_Objeto"><rect fill="#F1F1F1" height="48" id="Objeto" rx="2.5" ry="2.5" style="stroke:#181818;stroke-width:0.5;" width="78" x="224.5" y="7"/><ellipse cx="239.5" cy="23" fill="#ADD1B2" rx="11" ry="11" style="stroke:#181818;stroke-width:1.0;"/><path d="M241.9731,29.1431 Q241.3921,29.4419 240.7529,29.5913 Q240.1138,29.7407 239.4082,29.7407 Q236.9014,29.7407 235.5815,28.0889 Q234.2617,26.437 234.2617,23.3159 Q234.2617,20.1865 235.5815,18.5347 Q236.9014,16.8828 239.4082,16.8828 Q240.1138,16.8828 240.7612,17.0322 Q241.4087,17.1816 241.9731,17.4805 L241.9731,20.2031 Q241.3423,19.6221 240.7488,19.3523 Q240.1553,19.0825 239.5244,19.0825 Q238.1797,19.0825 237.4949,20.1492 Q236.8101,21.2158 236.8101,23.3159 Q236.8101,25.4077 237.4949,26.4744 Q238.1797,27.541 239.5244,27.541 Q240.1553,27.541 240.7488,27.2712 Q241.3423,27.0015 241.9731,26.4204 Z " fill="#000000"/><text fill="#000000" font-family="sans-serif" font-size="14" lengthAdjust="spacing" textLength="46" x="253.5" y="28.291">Objeto</text><line style="stroke:#181818;stroke-width:0.5;" x1="225.5" x2="301.5" y1="39" y2="39"/><line style="stroke:#181818;stroke-width:0.5;" x1="225.5" x2="301.5" y1="47" y2="47"/></g><!--reverse link Objeto to Poligono--><g id="link_Objeto_Poligono"><path codeLine="6" d="M263.5,73.37 C263.5,89.82 263.5,94.42 263.5,114.65 " fill="none" id="Objeto-backto-Poligono" style="stroke:#181818;stroke-width:1.0;"/><polygon fill="none" points="263.5,55.37,257.5,73.37,269.5,73.37,263.5,55.37" style="stroke:#181818;stroke-width:1.0;"/></g><!--SRC=[FKwx3i8m4Dlp5JUsejsOeYWI4YCI5R1NeGtbK9IhBjSEFFuTAAMUBDkotGIN4bGKiAD8y53mmMeHihftUF0NlJ_Vl501DPCCWNHpTLn0Jr4e_SDwXqbCzTNMMvlFLHiPNC2xuom73IDXEnl6qEYPiVNMmecEmXYxAPGcgbxgjmhcMPRBfJS0]--></g></svg>