<?xml version="1.0" encoding="us-ascii" standalone="no"?><svg xmlns="http://www.w3.org/2000/svg" xmlns:xlink="http://www.w3.org/1999/xlink" contentStyleType="text/css" height="325px" preserveAspectRatio="none" style="width:663px;height:325px;background:#FFFFFF;" version="1.1" viewBox="0 0 663 325" width="663px" zoomAndPan="magnify"><defs/><g><!--class BBox--><g id="elem_BBox"><rect codeLine="1" fill="#F1F1F1" height="311.8125" id="BBox" rx="2.5" ry="2.5" style="stroke:#181818;stroke-width:0.5;" width="505" x="7" y="7"/><ellipse cx="238.25" cy="23" fill="#ADD1B2" rx="11" ry="11" style="stroke:#181818;stroke-width:1.0;"/><path d="M240.7231,29.1431 Q240.1421,29.4419 239.5029,29.5913 Q238.8638,29.7407 238.1582,29.7407 Q235.6514,29.7407 234.3315,28.0889 Q233.0117,26.437 233.0117,23.3159 Q233.0117,20.1865 234.3315,18.5347 Q235.6514,16.8828 238.1582,16.8828 Q238.8638,16.8828 239.5112,17.0322 Q240.1587,17.1816 240.7231,17.4805 L240.7231,20.2031 Q240.0923,19.6221 239.4988,19.3523 Q238.9053,19.0825 238.2744,19.0825 Q236.9297,19.0825 236.2449,20.1492 Q235.5601,21.2158 235.5601,23.3159 Q235.5601,25.4077 236.2449,26.4744 Q236.9297,27.541 238.2744,27.541 Q238.9053,27.541 239.4988,27.2712 Q240.0923,27.0015 240.7231,26.4204 Z " fill="#000000"/><text fill="#000000" font-family="sans-serif" font-size="14" lengthAdjust="spacing" textLength="34" x="258.75" y="28.291">BBox</text><line style="stroke:#181818;stroke-width:0.5;" x1="8" x2="511" y1="39" y2="39"/><rect fill="none" height="6" style="stroke:#C82930;stroke-width:1.0;" width="6" x="15" y="49.7441"/><text fill="#000000" font-family="sans-serif" font-size="14" lengthAdjust="spacing" textLength="114" x="27" y="56.5352">menorX : double</text><rect fill="none" height="6" style="stroke:#C82930;stroke-width:1.0;" width="6" x="15" y="66.2324"/><text fill="#000000" font-family="sans-serif" font-size="14" lengthAdjust="spacing" textLength="114" x="27" y="73.0234">menorY : double</text><rect fill="none" height="6" style="stroke:#C82930;stroke-width:1.0;" width="6" x="15" y="82.7207"/><text fill="#000000" font-family="sans-serif" font-size="14" lengthAdjust="spacing" textLength="113" x="27" y="89.5117">menorZ : double</text><rect fill="none" height="6" style="stroke:#C82930;stroke-width:1.0;" width="6" x="15" y="99.209"/><text fill="#000000" font-family="sans-serif" font-size="14" lengthAdjust="spacing" textLength="109" x="27" y="106">maiorX : double</text><rect fill="none" height="6" style="stroke:#C82930;stroke-width:1.0;" width="6" x="15" y="115.6973"/><text fill="#000000" font-family="sans-serif" font-size="14" lengthAdjust="spacing" textLength="109" x="27" y="122.4883">maiorY : double</text><rect fill="none" height="6" style="stroke:#C82930;stroke-width:1.0;" width="6" x="15" y="132.1855"/><text fill="#000000" font-family="sans-serif" font-size="14" lengthAdjust="spacing" textLength="108" x="27" y="138.9766">maiorZ : double</text><ellipse cx="18" cy="151.6738" fill="none" rx="3" ry="3" style="stroke:#038048;stroke-width:1.0;"/><text fill="#000000" font-family="sans-serif" font-size="14" lengthAdjust="spacing" textLength="192" x="27" y="155.4648">ObterMenorX : double &#171;get&#187;</text><ellipse cx="18" cy="168.1621" fill="none" rx="3" ry="3" style="stroke:#038048;stroke-width:1.0;"/><text fill="#000000" font-family="sans-serif" font-size="14" lengthAdjust="spacing" textLength="192" x="27" y="171.9531">ObterMenorY : double &#171;get&#187;</text><ellipse cx="18" cy="184.6504" fill="none" rx="3" ry="3" style="stroke:#038048;stroke-width:1.0;"/><text fill="#000000" font-family="sans-serif" font-size="14" lengthAdjust="spacing" textLength="191" x="27" y="188.4414">ObterMenorZ : double &#171;get&#187;</text><ellipse cx="18" cy="201.1387" fill="none" rx="3" ry="3" style="stroke:#038048;stroke-width:1.0;"/><text fill="#000000" font-family="sans-serif" font-size="14" lengthAdjust="spacing" textLength="187" x="27" y="204.9297">ObterMaiorX : double &#171;get&#187;</text><ellipse cx="18" cy="217.627" fill="none" rx="3" ry="3" style="stroke:#038048;stroke-width:1.0;"/><text fill="#000000" font-family="sans-serif" font-size="14" lengthAdjust="spacing" textLength="187" x="27" y="221.418">ObterMaiorY : double &#171;get&#187;</text><ellipse cx="18" cy="234.1152" fill="none" rx="3" ry="3" style="stroke:#038048;stroke-width:1.0;"/><text fill="#000000" font-family="sans-serif" font-size="14" lengthAdjust="spacing" textLength="186" x="27" y="237.9063">ObterMaiorZ : double &#171;get&#187;</text><line style="stroke:#181818;stroke-width:0.5;" x1="8" x2="511" y1="244.8594" y2="244.8594"/><ellipse cx="18" cy="258.6035" fill="#84BE84" rx="3" ry="3" style="stroke:#038048;stroke-width:1.0;"/><text fill="#000000" font-family="sans-serif" font-size="14" lengthAdjust="spacing" textLength="44" x="27" y="262.3945">BBox()</text><ellipse cx="18" cy="275.0918" fill="#84BE84" rx="3" ry="3" style="stroke:#038048;stroke-width:1.0;"/><text fill="#000000" font-family="sans-serif" font-size="14" lengthAdjust="spacing" textLength="479" x="27" y="278.8828">Atualizar(matriz:Transformacao4D, pontosLista:List&lt;Ponto4D&gt;) : void</text><ellipse cx="18" cy="291.5801" fill="#84BE84" rx="3" ry="3" style="stroke:#038048;stroke-width:1.0;"/><text fill="#000000" font-family="sans-serif" font-size="14" lengthAdjust="spacing" textLength="186" x="27" y="295.3711">Dentro(pto:Ponto4D) : bool</text><ellipse cx="18" cy="308.0684" fill="#84BE84" rx="3" ry="3" style="stroke:#038048;stroke-width:1.0;"/><text fill="#000000" font-family="sans-serif" font-size="14" lengthAdjust="spacing" textLength="116" x="27" y="311.8594">Desenhar() : void</text></g><!--class Ponto4D--><g id="elem_Ponto4D"><rect fill="#F1F1F1" height="48" id="Ponto4D" rx="2.5" ry="2.5" style="stroke:#181818;stroke-width:0.5;" width="91" x="547" y="138.9"/><ellipse cx="562" cy="154.9" fill="#ADD1B2" rx="11" ry="11" style="stroke:#181818;stroke-width:1.0;"/><path d="M564.4731,161.0431 Q563.8921,161.3419 563.2529,161.4913 Q562.6138,161.6407 561.9082,161.6407 Q559.4014,161.6407 558.0815,159.9889 Q556.7617,158.337 556.7617,155.2159 Q556.7617,152.0865 558.0815,150.4347 Q559.4014,148.7828 561.9082,148.7828 Q562.6138,148.7828 563.2612,148.9322 Q563.9087,149.0816 564.4731,149.3805 L564.4731,152.1031 Q563.8423,151.5221 563.2488,151.2523 Q562.6553,150.9825 562.0244,150.9825 Q560.6797,150.9825 559.9949,152.0492 Q559.3101,153.1158 559.3101,155.2159 Q559.3101,157.3077 559.9949,158.3744 Q560.6797,159.441 562.0244,159.441 Q562.6553,159.441 563.2488,159.1712 Q563.8423,158.9015 564.4731,158.3204 Z " fill="#000000"/><text fill="#000000" font-family="sans-serif" font-size="14" lengthAdjust="spacing" textLength="59" x="576" y="160.191">Ponto4D</text><line style="stroke:#181818;stroke-width:0.5;" x1="548" x2="637" y1="170.9" y2="170.9"/><line style="stroke:#181818;stroke-width:0.5;" x1="548" x2="637" y1="178.9" y2="178.9"/></g><!--link BBox to Ponto4D--><g id="link_BBox_Ponto4D"><path codeLine="19" d="M521.8875,241.4556 C542.5975,226.4056 549.8429,217.6561 570.5529,191.7561 " fill="none" id="BBox-Ponto4D" style="stroke:#181818;stroke-width:1.0;"/><polygon fill="none" points="512.18,248.51,519.3852,248.2186,521.8875,241.4556,514.6823,241.747,512.18,248.51" style="stroke:#181818;stroke-width:1.0;"/><polygon fill="#181818" points="574.3,187.07,565.5553,191.6011,571.1774,190.9751,571.8035,196.5972,574.3,187.07" style="stroke:#181818;stroke-width:1.0;"/><text fill="#000000" font-family="sans-serif" font-size="13" lengthAdjust="spacing" textLength="40" x="524.9888" y="207.3958">centro</text></g><!--link BBox to Ponto4D--><g id="link_BBox_Ponto4D"><path codeLine="20" d="M512.18,77.3 C532.89,92.35 549.8438,108.1432 570.5538,134.0532 " fill="none" id="BBox-to-Ponto4D" style="stroke:#181818;stroke-width:1.0;"/><polygon fill="#181818" points="574.3,138.74,571.8053,129.2123,571.1782,134.8343,565.5562,134.2073,574.3,138.74" style="stroke:#181818;stroke-width:1.0;"/><text fill="#000000" font-family="sans-serif" font-size="13" lengthAdjust="spacing" textLength="77" x="579.5019" y="128.2353">ObterCentro</text></g><!--SRC=[XP6n2i8m54Ltl-BXLD5kJgKKh1aL7HoisskD6cZp94b5AlwxJGrYRTKCWTntk0adMOvQGnpJ5Mu3g9SF1PUajX30dieqv-zfqflkEYcAlWQR9htfHyEuUP0tSeUPAJ4N5IglGAD45MmKIdqWLM26D6KJE9Cqf1T26mpi7gvjC6NHg2w-aDYx9iQbKUIT3GMEi41Ab3jWbHgkbcq148P7RgAeWoJ_aTrlfEtfAvByHxvUnBZcybIxUwcu3vhl9Z-2OTO86OApyPpuTj9KpzlZ1m00]--></g></svg>