<?xml version="1.0" encoding="us-ascii" standalone="no"?><svg xmlns="http://www.w3.org/2000/svg" xmlns:xlink="http://www.w3.org/1999/xlink" contentStyleType="text/css" height="598px" preserveAspectRatio="none" style="width:550px;height:598px;background:#FFFFFF;" version="1.1" viewBox="0 0 550 598" width="550px" zoomAndPan="magnify"><defs/><g><!--class Objeto--><g id="elem_Objeto"><rect codeLine="1" fill="#F1F1F1" height="476.6953" id="Objeto" rx="2.5" ry="2.5" style="stroke:#181818;stroke-width:0.5;" width="536" x="7" y="7"/><ellipse cx="247.75" cy="23" fill="#ADD1B2" rx="11" ry="11" style="stroke:#181818;stroke-width:1.0;"/><path d="M250.2231,29.1431 Q249.6421,29.4419 249.0029,29.5913 Q248.3638,29.7407 247.6582,29.7407 Q245.1514,29.7407 243.8315,28.0889 Q242.5117,26.437 242.5117,23.3159 Q242.5117,20.1865 243.8315,18.5347 Q245.1514,16.8828 247.6582,16.8828 Q248.3638,16.8828 249.0112,17.0322 Q249.6587,17.1816 250.2231,17.4805 L250.2231,20.2031 Q249.5923,19.6221 248.9988,19.3523 Q248.4053,19.0825 247.7744,19.0825 Q246.4297,19.0825 245.7449,20.1492 Q245.0601,21.2158 245.0601,23.3159 Q245.0601,25.4077 245.7449,26.4744 Q246.4297,27.541 247.7744,27.541 Q248.4053,27.541 248.9988,27.2712 Q249.5923,27.0015 250.2231,26.4204 Z " fill="#000000"/><text fill="#000000" font-family="sans-serif" font-size="14" lengthAdjust="spacing" textLength="46" x="268.25" y="28.291">Objeto</text><line style="stroke:#181818;stroke-width:0.5;" x1="8" x2="542" y1="39" y2="39"/><ellipse cx="18" cy="52.7441" fill="none" rx="3" ry="3" style="stroke:#038048;stroke-width:1.0;"/><text fill="#000000" font-family="sans-serif" font-size="14" lengthAdjust="spacing" textLength="127" x="27" y="56.5352">Rotulo : char &#171;get&#187;</text><ellipse cx="18" cy="69.2324" fill="none" rx="3" ry="3" style="stroke:#038048;stroke-width:1.0;"/><text fill="#000000" font-family="sans-serif" font-size="14" lengthAdjust="spacing" textLength="245" x="27" y="73.0234">PrimitivaTamanho : float &#171;get&#187; &#171;set&#187;</text><line style="stroke:#181818;stroke-width:0.5;" x1="8" x2="542" y1="79.9766" y2="79.9766"/><ellipse cx="18" cy="93.7207" fill="#84BE84" rx="3" ry="3" style="stroke:#038048;stroke-width:1.0;"/><text fill="#000000" font-family="sans-serif" font-size="14" lengthAdjust="spacing" textLength="91" x="27" y="97.5117">Bbox() : BBox</text><ellipse cx="18" cy="110.209" fill="#84BE84" rx="3" ry="3" style="stroke:#038048;stroke-width:1.0;"/><text fill="#000000" font-family="sans-serif" font-size="14" lengthAdjust="spacing" textLength="239" x="27" y="114">TrocaEixoRotacao(eixo:char) : void</text><ellipse cx="18" cy="126.6973" fill="#84BE84" rx="3" ry="3" style="stroke:#038048;stroke-width:1.0;"/><text fill="#000000" font-family="sans-serif" font-size="14" lengthAdjust="spacing" textLength="376" x="27" y="130.4883">Objeto(paiRef:Objeto, _rotulo:char, objetoFilho:Objeto)</text><ellipse cx="18" cy="143.1855" fill="#84BE84" rx="3" ry="3" style="stroke:#038048;stroke-width:1.0;"/><text fill="#000000" font-family="sans-serif" font-size="14" lengthAdjust="spacing" textLength="157" x="27" y="146.9766">ObjetoRemover() : void</text><ellipse cx="18" cy="159.6738" fill="#84BE84" rx="3" ry="3" style="stroke:#038048;stroke-width:1.0;"/><text fill="#000000" font-family="sans-serif" font-size="14" lengthAdjust="spacing" textLength="159" x="27" y="163.4648">ObjetoAtualizar() : void</text><ellipse cx="18" cy="176.1621" fill="#84BE84" rx="3" ry="3" style="stroke:#038048;stroke-width:1.0;"/><text fill="#000000" font-family="sans-serif" font-size="14" lengthAdjust="spacing" textLength="510" x="27" y="179.9531">Desenhar(matrizGrafo:Transformacao4D, objetoSelecionado:Objeto) : void</text><ellipse cx="18" cy="192.6504" fill="#84BE84" rx="3" ry="3" style="stroke:#038048;stroke-width:1.0;"/><text fill="#000000" font-family="sans-serif" font-size="14" lengthAdjust="spacing" textLength="232" x="27" y="196.4414">FilhoAdicionar(filho:Objeto) : void</text><ellipse cx="18" cy="209.1387" fill="#84BE84" rx="3" ry="3" style="stroke:#038048;stroke-width:1.0;"/><text fill="#000000" font-family="sans-serif" font-size="14" lengthAdjust="spacing" textLength="176" x="27" y="212.9297">PontosId(id:int) : Ponto4D</text><ellipse cx="18" cy="225.627" fill="#84BE84" rx="3" ry="3" style="stroke:#038048;stroke-width:1.0;"/><text fill="#000000" font-family="sans-serif" font-size="14" lengthAdjust="spacing" textLength="250" x="27" y="229.418">PontosAdicionar(pto:Ponto4D) : void</text><ellipse cx="18" cy="242.1152" fill="#84BE84" rx="3" ry="3" style="stroke:#038048;stroke-width:1.0;"/><text fill="#000000" font-family="sans-serif" font-size="14" lengthAdjust="spacing" textLength="314" x="27" y="245.9063">PontosAlterar(pto:Ponto4D, posicao:int) : void</text><ellipse cx="18" cy="258.6035" fill="#84BE84" rx="3" ry="3" style="stroke:#038048;stroke-width:1.0;"/><text fill="#000000" font-family="sans-serif" font-size="14" lengthAdjust="spacing" textLength="378" x="27" y="262.3945">PontoMaisPerto(mousePto:Ponto4D, remover:bool) : int</text><ellipse cx="18" cy="275.0918" fill="#84BE84" rx="3" ry="3" style="stroke:#038048;stroke-width:1.0;"/><text fill="#000000" font-family="sans-serif" font-size="14" lengthAdjust="spacing" textLength="260" x="27" y="278.8828">GrafocenaBusca(_rotulo:char) : Objeto</text><ellipse cx="18" cy="291.5801" fill="#84BE84" rx="3" ry="3" style="stroke:#038048;stroke-width:1.0;"/><text fill="#000000" font-family="sans-serif" font-size="14" lengthAdjust="spacing" textLength="365" x="27" y="295.3711">GrafocenaBuscaProximo(objetoAtual:Objeto) : Objeto</text><ellipse cx="18" cy="308.0684" fill="#84BE84" rx="3" ry="3" style="stroke:#038048;stroke-width:1.0;"/><text fill="#000000" font-family="sans-serif" font-size="14" lengthAdjust="spacing" textLength="243" x="27" y="311.8594">GrafocenaImprimir(idt:String) : void</text><ellipse cx="18" cy="324.5566" fill="#84BE84" rx="3" ry="3" style="stroke:#038048;stroke-width:1.0;"/><text fill="#000000" font-family="sans-serif" font-size="14" lengthAdjust="spacing" textLength="153" x="27" y="328.3477">MatrizImprimir() : void</text><ellipse cx="18" cy="341.0449" fill="#84BE84" rx="3" ry="3" style="stroke:#038048;stroke-width:1.0;"/><text fill="#000000" font-family="sans-serif" font-size="14" lengthAdjust="spacing" textLength="220" x="27" y="344.8359">MatrizAtribuirIdentidade() : void</text><ellipse cx="18" cy="357.5332" fill="#84BE84" rx="3" ry="3" style="stroke:#038048;stroke-width:1.0;"/><text fill="#000000" font-family="sans-serif" font-size="14" lengthAdjust="spacing" textLength="406" x="27" y="361.3242">MatrizTranslacaoXYZ(tx:double, ty:double, tz:double) : void</text><ellipse cx="18" cy="374.0215" fill="#84BE84" rx="3" ry="3" style="stroke:#038048;stroke-width:1.0;"/><text fill="#000000" font-family="sans-serif" font-size="14" lengthAdjust="spacing" textLength="382" x="27" y="377.8125">MatrizEscalaXYZ(Sx:double, Sy:double, Sz:double) : void</text><ellipse cx="18" cy="390.5098" fill="#84BE84" rx="3" ry="3" style="stroke:#038048;stroke-width:1.0;"/><text fill="#000000" font-family="sans-serif" font-size="14" lengthAdjust="spacing" textLength="416" x="27" y="394.3008">MatrizEscalaXYZBBox(Sx:double, Sy:double, Sz:double) : void</text><ellipse cx="18" cy="406.998" fill="#84BE84" rx="3" ry="3" style="stroke:#038048;stroke-width:1.0;"/><text fill="#000000" font-family="sans-serif" font-size="14" lengthAdjust="spacing" textLength="279" x="27" y="410.7891">MatrizRotacaoEixo(angulo:double) : void</text><ellipse cx="18" cy="423.4863" fill="#84BE84" rx="3" ry="3" style="stroke:#038048;stroke-width:1.0;"/><text fill="#000000" font-family="sans-serif" font-size="14" lengthAdjust="spacing" textLength="249" x="27" y="427.2773">MatrizRotacao(angulo:double) : void</text><ellipse cx="18" cy="439.9746" fill="#84BE84" rx="3" ry="3" style="stroke:#038048;stroke-width:1.0;"/><text fill="#000000" font-family="sans-serif" font-size="14" lengthAdjust="spacing" textLength="291" x="27" y="443.7656">MatrizRotacaoZBBox(angulo:double) : void</text><ellipse cx="18" cy="456.4629" fill="#84BE84" rx="3" ry="3" style="stroke:#038048;stroke-width:1.0;"/><text fill="#000000" font-family="sans-serif" font-size="14" lengthAdjust="spacing" textLength="120" x="27" y="460.2539">OnUnload() : void</text><ellipse cx="18" cy="472.9512" fill="#84BE84" rx="3" ry="3" style="stroke:#038048;stroke-width:1.0;"/><text fill="#000000" font-family="sans-serif" font-size="14" lengthAdjust="spacing" textLength="428" x="27" y="476.7422">ScanLine(ptoClique:Ponto4D, objetoSelecionado:Objeto) : bool</text></g><!--class PrimitiveType--><g id="elem_PrimitiveType"><rect fill="#F1F1F1" height="48" id="PrimitiveType" rx="2.5" ry="2.5" style="stroke:#181818;stroke-width:0.5;" width="124" x="145" y="543.7"/><ellipse cx="160" cy="559.7" fill="#ADD1B2" rx="11" ry="11" style="stroke:#181818;stroke-width:1.0;"/><path d="M162.4731,565.8431 Q161.8921,566.1419 161.2529,566.2913 Q160.6138,566.4407 159.9082,566.4407 Q157.4014,566.4407 156.0815,564.7889 Q154.7617,563.137 154.7617,560.0159 Q154.7617,556.8865 156.0815,555.2347 Q157.4014,553.5828 159.9082,553.5828 Q160.6138,553.5828 161.2612,553.7322 Q161.9087,553.8816 162.4731,554.1805 L162.4731,556.9031 Q161.8423,556.3221 161.2488,556.0523 Q160.6553,555.7825 160.0244,555.7825 Q158.6797,555.7825 157.9949,556.8492 Q157.3101,557.9158 157.3101,560.0159 Q157.3101,562.1077 157.9949,563.1744 Q158.6797,564.241 160.0244,564.241 Q160.6553,564.241 161.2488,563.9712 Q161.8423,563.7015 162.4731,563.1204 Z " fill="#000000"/><text fill="#000000" font-family="sans-serif" font-size="14" lengthAdjust="spacing" textLength="92" x="174" y="564.991">PrimitiveType</text><line style="stroke:#181818;stroke-width:0.5;" x1="146" x2="268" y1="575.7" y2="575.7"/><line style="stroke:#181818;stroke-width:0.5;" x1="146" x2="268" y1="583.7" y2="583.7"/></g><!--class Shader--><g id="elem_Shader"><rect fill="#F1F1F1" height="48" id="Shader" rx="2.5" ry="2.5" style="stroke:#181818;stroke-width:0.5;" width="80" x="304" y="543.7"/><ellipse cx="319" cy="559.7" fill="#ADD1B2" rx="11" ry="11" style="stroke:#181818;stroke-width:1.0;"/><path d="M321.4731,565.8431 Q320.8921,566.1419 320.2529,566.2913 Q319.6138,566.4407 318.9082,566.4407 Q316.4014,566.4407 315.0815,564.7889 Q313.7617,563.137 313.7617,560.0159 Q313.7617,556.8865 315.0815,555.2347 Q316.4014,553.5828 318.9082,553.5828 Q319.6138,553.5828 320.2612,553.7322 Q320.9087,553.8816 321.4731,554.1805 L321.4731,556.9031 Q320.8423,556.3221 320.2488,556.0523 Q319.6553,555.7825 319.0244,555.7825 Q317.6797,555.7825 316.9949,556.8492 Q316.3101,557.9158 316.3101,560.0159 Q316.3101,562.1077 316.9949,563.1744 Q317.6797,564.241 319.0244,564.241 Q319.6553,564.241 320.2488,563.9712 Q320.8423,563.7015 321.4731,563.1204 Z " fill="#000000"/><text fill="#000000" font-family="sans-serif" font-size="14" lengthAdjust="spacing" textLength="48" x="333" y="564.991">Shader</text><line style="stroke:#181818;stroke-width:0.5;" x1="305" x2="383" y1="575.7" y2="575.7"/><line style="stroke:#181818;stroke-width:0.5;" x1="305" x2="383" y1="583.7" y2="583.7"/></g><!--link Objeto to PrimitiveType--><g id="link_Objeto_PrimitiveType"><path codeLine="29" d="M224.6,483.79 C219.53,507.67 216.3466,522.6609 213.1966,537.4909 " fill="none" id="Objeto-to-PrimitiveType" style="stroke:#181818;stroke-width:1.0;"/><polygon fill="#181818" points="211.95,543.36,217.7327,535.3875,212.9889,538.4691,209.9072,533.7253,211.95,543.36" style="stroke:#181818;stroke-width:1.0;"/><text fill="#000000" font-family="sans-serif" font-size="13" lengthAdjust="spacing" textLength="83" x="119.5841" y="532.8091">PrimitivaTipo</text></g><!--link Objeto to Shader--><g id="link_Objeto_Shader"><path codeLine="30" d="M326.14,483.79 C331.28,507.67 334.5182,522.6642 337.7082,537.4942 " fill="none" id="Objeto-to-Shader" style="stroke:#181818;stroke-width:1.0;"/><polygon fill="#181818" points="338.97,543.36,340.9879,533.7201,337.9185,538.4718,333.1668,535.4024,338.97,543.36" style="stroke:#181818;stroke-width:1.0;"/><text fill="#000000" font-family="sans-serif" font-size="13" lengthAdjust="spacing" textLength="64" x="268.907" y="532.8088">shaderCor</text></g><!--SRC=[dPJ1Rjim38RlUGeX9nLBRpqPHO2awOO0Ash46R3jKj0sat2GHK-IWpJ3tdsIuyHsPdJ5VB1fwVj9YfIKAR1MFAS_qB7uDHB- -I1Mx2h58XBP3eoulz-YcqwRkTXGGOxsi8O2z2vG6yNWpfZ_sWu-J_aWRpmqd_EX6LiRpk2H3kpZG0OiqTjHY1N0FLFUWAUqP0cqmarq-fk85rEdLmicWklHZwHst10tFVKA2zwZaOEkPwu2HKVuQtg15hNtBmjmXewV36muMXlGTiEc24dVBSwn4rIO4Ml8BndqdTN9pNAg8ICttLpxPCpQiLtcalA8j0kpzT3TeWUqlah7KKCCkfefXwRFJKJ9blmApX6kHKz0DaRZ2rzmPJ7kIisfcb7Ah8BMksYaTOaor32lR0QoswG0dfOxoCQ63rImvBObdUeC2vT56VQXyOLoKU9RfBTNItcg6tVX1cTd_fLMP9OvQaSvv3ZCrOrNeUjVltsNxX3bNAKA9yAzjkQnCGSzFFfrAWZgf5KdhJfvdpeSel_oq9oqSEWaw6tepB_fzvEdnDx2d_KNxQ-9_Bh0IGRwCsaCE_H1qSyAsytsrl4A6t3qUzHSNBUtKp5kRoOgUNovg73zMc8Fj3lVQVF0PYoIslm3]--></g></svg>