<?xml version="1.0" encoding="us-ascii" standalone="no"?><svg xmlns="http://www.w3.org/2000/svg" xmlns:xlink="http://www.w3.org/1999/xlink" contentStyleType="text/css" height="781px" preserveAspectRatio="none" style="width:1831px;height:781px;background:#FFFFFF;" version="1.1" viewBox="0 0 1831 781" width="1831px" zoomAndPan="magnify"><defs/><g><!--class Poligono--><g id="elem_Poligono"><rect codeLine="1" fill="#F1F1F1" height="97.4648" id="Poligono" rx="2.5" ry="2.5" style="stroke:#181818;stroke-width:0.5;" width="513" x="1311.5" y="676.81"/><ellipse cx="1533.25" cy="692.81" fill="#ADD1B2" rx="11" ry="11" style="stroke:#181818;stroke-width:1.0;"/><path d="M1535.7231,698.9531 Q1535.1421,699.2519 1534.5029,699.4013 Q1533.8638,699.5507 1533.1582,699.5507 Q1530.6514,699.5507 1529.3315,697.8989 Q1528.0117,696.247 1528.0117,693.1259 Q1528.0117,689.9965 1529.3315,688.3447 Q1530.6514,686.6928 1533.1582,686.6928 Q1533.8638,686.6928 1534.5112,686.8422 Q1535.1587,686.9916 1535.7231,687.2905 L1535.7231,690.0131 Q1535.0923,689.4321 1534.4988,689.1623 Q1533.9053,688.8925 1533.2744,688.8925 Q1531.9297,688.8925 1531.2449,689.9592 Q1530.5601,691.0258 1530.5601,693.1259 Q1530.5601,695.2177 1531.2449,696.2844 Q1531.9297,697.351 1533.2744,697.351 Q1533.9053,697.351 1534.4988,697.0812 Q1535.0923,696.8115 1535.7231,696.2304 Z " fill="#000000"/><text fill="#000000" font-family="sans-serif" font-size="14" lengthAdjust="spacing" textLength="61" x="1553.75" y="698.101">Poligono</text><line style="stroke:#181818;stroke-width:0.5;" x1="1312.5" x2="1823.5" y1="708.81" y2="708.81"/><line style="stroke:#181818;stroke-width:0.5;" x1="1312.5" x2="1823.5" y1="716.81" y2="716.81"/><ellipse cx="1322.5" cy="730.5541" fill="#84BE84" rx="3" ry="3" style="stroke:#038048;stroke-width:1.0;"/><text fill="#000000" font-family="sans-serif" font-size="14" lengthAdjust="spacing" textLength="487" x="1331.5" y="734.3452">Poligono(_paiRef:Objeto, _rotulo:char, pontosPoligono:List&lt;Ponto4D&gt;)</text><rect fill="#F24D5C" height="6" style="stroke:#C82930;stroke-width:1.0;" width="6" x="1319.5" y="744.0424"/><text fill="#000000" font-family="sans-serif" font-size="14" lengthAdjust="spacing" textLength="113" x="1331.5" y="750.8334">Atualizar() : void</text><ellipse cx="1322.5" cy="763.5307" fill="#84BE84" rx="3" ry="3" style="stroke:#038048;stroke-width:1.0;"/><text fill="#000000" font-family="sans-serif" font-size="14" lengthAdjust="spacing" textLength="196" x="1331.5" y="767.3217">&#171;override&#187; ToString() : string</text></g><!--class Objeto--><g id="elem_Objeto"><rect codeLine="1" fill="#F1F1F1" height="493.1836" id="Objeto" rx="2.5" ry="2.5" style="stroke:#181818;stroke-width:0.5;" width="539" x="1122.5" y="123.62"/><ellipse cx="1364.75" cy="139.62" fill="#ADD1B2" rx="11" ry="11" style="stroke:#181818;stroke-width:1.0;"/><path d="M1367.2231,145.7631 Q1366.6421,146.0619 1366.0029,146.2113 Q1365.3638,146.3607 1364.6582,146.3607 Q1362.1514,146.3607 1360.8315,144.7089 Q1359.5117,143.057 1359.5117,139.9359 Q1359.5117,136.8065 1360.8315,135.1547 Q1362.1514,133.5028 1364.6582,133.5028 Q1365.3638,133.5028 1366.0112,133.6522 Q1366.6587,133.8016 1367.2231,134.1005 L1367.2231,136.8231 Q1366.5923,136.2421 1365.9988,135.9723 Q1365.4053,135.7025 1364.7744,135.7025 Q1363.4297,135.7025 1362.7449,136.7692 Q1362.0601,137.8358 1362.0601,139.9359 Q1362.0601,142.0277 1362.7449,143.0944 Q1363.4297,144.161 1364.7744,144.161 Q1365.4053,144.161 1365.9988,143.8912 Q1366.5923,143.6215 1367.2231,143.0404 Z " fill="#000000"/><text fill="#000000" font-family="sans-serif" font-size="14" lengthAdjust="spacing" textLength="46" x="1385.25" y="144.911">Objeto</text><line style="stroke:#181818;stroke-width:0.5;" x1="1123.5" x2="1660.5" y1="155.62" y2="155.62"/><ellipse cx="1133.5" cy="169.3641" fill="none" rx="3" ry="3" style="stroke:#038048;stroke-width:1.0;"/><text fill="#000000" font-family="sans-serif" font-size="14" lengthAdjust="spacing" textLength="245" x="1142.5" y="173.1552">PrimitivaTamanho : float &#171;get&#187; &#171;set&#187;</text><line style="stroke:#181818;stroke-width:0.5;" x1="1123.5" x2="1660.5" y1="180.1083" y2="180.1083"/><ellipse cx="1133.5" cy="193.8524" fill="#84BE84" rx="3" ry="3" style="stroke:#038048;stroke-width:1.0;"/><text fill="#000000" font-family="sans-serif" font-size="14" lengthAdjust="spacing" textLength="91" x="1142.5" y="197.6434">Bbox() : BBox</text><ellipse cx="1133.5" cy="210.3407" fill="#84BE84" rx="3" ry="3" style="stroke:#038048;stroke-width:1.0;"/><text fill="#000000" font-family="sans-serif" font-size="14" lengthAdjust="spacing" textLength="239" x="1142.5" y="214.1317">TrocaEixoRotacao(eixo:char) : void</text><ellipse cx="1133.5" cy="226.829" fill="#84BE84" rx="3" ry="3" style="stroke:#038048;stroke-width:1.0;"/><text fill="#000000" font-family="sans-serif" font-size="14" lengthAdjust="spacing" textLength="383" x="1142.5" y="230.62">Objeto(_paiRef:Objeto, _rotulo:char, objetoFilho:Objeto)</text><ellipse cx="1133.5" cy="243.3173" fill="#84BE84" rx="3" ry="3" style="stroke:#038048;stroke-width:1.0;"/><text fill="#000000" font-family="sans-serif" font-size="14" lengthAdjust="spacing" textLength="157" x="1142.5" y="247.1083">ObjetoRemover() : void</text><ellipse cx="1133.5" cy="259.8055" fill="#84BE84" rx="3" ry="3" style="stroke:#038048;stroke-width:1.0;"/><text fill="#000000" font-family="sans-serif" font-size="14" lengthAdjust="spacing" textLength="159" x="1142.5" y="263.5966">ObjetoAtualizar() : void</text><ellipse cx="1133.5" cy="276.2938" fill="#84BE84" rx="3" ry="3" style="stroke:#038048;stroke-width:1.0;"/><text fill="#000000" font-family="sans-serif" font-size="14" lengthAdjust="spacing" textLength="513" x="1142.5" y="280.0848">ObjetoMatrizGlobal(matrizGlobalPai:Transformacao4D) : Transformacao4D</text><ellipse cx="1133.5" cy="292.7821" fill="#84BE84" rx="3" ry="3" style="stroke:#038048;stroke-width:1.0;"/><text fill="#000000" font-family="sans-serif" font-size="14" lengthAdjust="spacing" textLength="510" x="1142.5" y="296.5731">Desenhar(matrizGrafo:Transformacao4D, objetoSelecionado:Objeto) : void</text><ellipse cx="1133.5" cy="309.2704" fill="#84BE84" rx="3" ry="3" style="stroke:#038048;stroke-width:1.0;"/><text fill="#000000" font-family="sans-serif" font-size="14" lengthAdjust="spacing" textLength="232" x="1142.5" y="313.0614">FilhoAdicionar(filho:Objeto) : void</text><ellipse cx="1133.5" cy="325.7587" fill="#84BE84" rx="3" ry="3" style="stroke:#038048;stroke-width:1.0;"/><text fill="#000000" font-family="sans-serif" font-size="14" lengthAdjust="spacing" textLength="176" x="1142.5" y="329.5497">PontosId(id:int) : Ponto4D</text><ellipse cx="1133.5" cy="342.247" fill="#84BE84" rx="3" ry="3" style="stroke:#038048;stroke-width:1.0;"/><text fill="#000000" font-family="sans-serif" font-size="14" lengthAdjust="spacing" textLength="250" x="1142.5" y="346.038">PontosAdicionar(pto:Ponto4D) : void</text><ellipse cx="1133.5" cy="358.7352" fill="#84BE84" rx="3" ry="3" style="stroke:#038048;stroke-width:1.0;"/><text fill="#000000" font-family="sans-serif" font-size="14" lengthAdjust="spacing" textLength="314" x="1142.5" y="362.5263">PontosAlterar(pto:Ponto4D, posicao:int) : void</text><ellipse cx="1133.5" cy="375.2235" fill="#84BE84" rx="3" ry="3" style="stroke:#038048;stroke-width:1.0;"/><text fill="#000000" font-family="sans-serif" font-size="14" lengthAdjust="spacing" textLength="145" x="1142.5" y="379.0145">PontosLimpar() : void</text><ellipse cx="1133.5" cy="391.7118" fill="#84BE84" rx="3" ry="3" style="stroke:#038048;stroke-width:1.0;"/><text fill="#000000" font-family="sans-serif" font-size="14" lengthAdjust="spacing" textLength="378" x="1142.5" y="395.5028">PontoMaisPerto(mousePto:Ponto4D, remover:bool) : int</text><ellipse cx="1133.5" cy="408.2001" fill="#84BE84" rx="3" ry="3" style="stroke:#038048;stroke-width:1.0;"/><text fill="#000000" font-family="sans-serif" font-size="14" lengthAdjust="spacing" textLength="260" x="1142.5" y="411.9911">GrafocenaBusca(_rotulo:char) : Objeto</text><ellipse cx="1133.5" cy="424.6884" fill="#84BE84" rx="3" ry="3" style="stroke:#038048;stroke-width:1.0;"/><text fill="#000000" font-family="sans-serif" font-size="14" lengthAdjust="spacing" textLength="365" x="1142.5" y="428.4794">GrafocenaBuscaProximo(objetoAtual:Objeto) : Objeto</text><ellipse cx="1133.5" cy="441.1766" fill="#84BE84" rx="3" ry="3" style="stroke:#038048;stroke-width:1.0;"/><text fill="#000000" font-family="sans-serif" font-size="14" lengthAdjust="spacing" textLength="242" x="1142.5" y="444.9677">GrafocenaImprimir(idt:string) : void</text><ellipse cx="1133.5" cy="457.6649" fill="#84BE84" rx="3" ry="3" style="stroke:#038048;stroke-width:1.0;"/><text fill="#000000" font-family="sans-serif" font-size="14" lengthAdjust="spacing" textLength="153" x="1142.5" y="461.4559">MatrizImprimir() : void</text><ellipse cx="1133.5" cy="474.1532" fill="#84BE84" rx="3" ry="3" style="stroke:#038048;stroke-width:1.0;"/><text fill="#000000" font-family="sans-serif" font-size="14" lengthAdjust="spacing" textLength="220" x="1142.5" y="477.9442">MatrizAtribuirIdentidade() : void</text><ellipse cx="1133.5" cy="490.6415" fill="#84BE84" rx="3" ry="3" style="stroke:#038048;stroke-width:1.0;"/><text fill="#000000" font-family="sans-serif" font-size="14" lengthAdjust="spacing" textLength="406" x="1142.5" y="494.4325">MatrizTranslacaoXYZ(tx:double, ty:double, tz:double) : void</text><ellipse cx="1133.5" cy="507.1298" fill="#84BE84" rx="3" ry="3" style="stroke:#038048;stroke-width:1.0;"/><text fill="#000000" font-family="sans-serif" font-size="14" lengthAdjust="spacing" textLength="382" x="1142.5" y="510.9208">MatrizEscalaXYZ(Sx:double, Sy:double, Sz:double) : void</text><ellipse cx="1133.5" cy="523.618" fill="#84BE84" rx="3" ry="3" style="stroke:#038048;stroke-width:1.0;"/><text fill="#000000" font-family="sans-serif" font-size="14" lengthAdjust="spacing" textLength="416" x="1142.5" y="527.4091">MatrizEscalaXYZBBox(Sx:double, Sy:double, Sz:double) : void</text><ellipse cx="1133.5" cy="540.1063" fill="#84BE84" rx="3" ry="3" style="stroke:#038048;stroke-width:1.0;"/><text fill="#000000" font-family="sans-serif" font-size="14" lengthAdjust="spacing" textLength="279" x="1142.5" y="543.8973">MatrizRotacaoEixo(angulo:double) : void</text><ellipse cx="1133.5" cy="556.5946" fill="#84BE84" rx="3" ry="3" style="stroke:#038048;stroke-width:1.0;"/><text fill="#000000" font-family="sans-serif" font-size="14" lengthAdjust="spacing" textLength="249" x="1142.5" y="560.3856">MatrizRotacao(angulo:double) : void</text><ellipse cx="1133.5" cy="573.0829" fill="#84BE84" rx="3" ry="3" style="stroke:#038048;stroke-width:1.0;"/><text fill="#000000" font-family="sans-serif" font-size="14" lengthAdjust="spacing" textLength="291" x="1142.5" y="576.8739">MatrizRotacaoZBBox(angulo:double) : void</text><ellipse cx="1133.5" cy="589.5712" fill="#84BE84" rx="3" ry="3" style="stroke:#038048;stroke-width:1.0;"/><text fill="#000000" font-family="sans-serif" font-size="14" lengthAdjust="spacing" textLength="120" x="1142.5" y="593.3622">OnUnload() : void</text><ellipse cx="1133.5" cy="606.0595" fill="#84BE84" rx="3" ry="3" style="stroke:#038048;stroke-width:1.0;"/><text fill="#000000" font-family="sans-serif" font-size="14" lengthAdjust="spacing" textLength="428" x="1142.5" y="609.8505">ScanLine(ptoClique:Ponto4D, objetoSelecionado:Objeto) : bool</text></g><!--class Mundo--><g id="elem_Mundo"><rect codeLine="1" fill="#F1F1F1" height="97.4648" id="Mundo" rx="2.5" ry="2.5" style="stroke:#181818;stroke-width:0.5;" width="696" x="7" y="321.48"/><ellipse cx="326.75" cy="337.48" fill="#ADD1B2" rx="11" ry="11" style="stroke:#181818;stroke-width:1.0;"/><path d="M329.2231,343.6231 Q328.6421,343.9219 328.0029,344.0713 Q327.3638,344.2207 326.6582,344.2207 Q324.1514,344.2207 322.8315,342.5689 Q321.5117,340.917 321.5117,337.7959 Q321.5117,334.6665 322.8315,333.0147 Q324.1514,331.3628 326.6582,331.3628 Q327.3638,331.3628 328.0112,331.5122 Q328.6587,331.6616 329.2231,331.9605 L329.2231,334.6831 Q328.5923,334.1021 327.9988,333.8323 Q327.4053,333.5625 326.7744,333.5625 Q325.4297,333.5625 324.7449,334.6292 Q324.0601,335.6958 324.0601,337.7959 Q324.0601,339.8877 324.7449,340.9544 Q325.4297,342.021 326.7744,342.021 Q327.4053,342.021 327.9988,341.7512 Q328.5923,341.4815 329.2231,340.9004 Z " fill="#000000"/><text fill="#000000" font-family="sans-serif" font-size="14" lengthAdjust="spacing" textLength="48" x="347.25" y="342.771">Mundo</text><line style="stroke:#181818;stroke-width:0.5;" x1="8" x2="702" y1="353.48" y2="353.48"/><rect fill="none" height="6" style="stroke:#C82930;stroke-width:1.0;" width="6" x="15" y="364.2241"/><text fill="#000000" font-family="sans-serif" font-size="14" lengthAdjust="spacing" textLength="151" x="27" y="371.0152">rotuloAtual : char = '?'</text><line style="stroke:#181818;stroke-width:0.5;" x1="8" x2="702" y1="377.9683" y2="377.9683"/><ellipse cx="18" cy="391.7124" fill="#84BE84" rx="3" ry="3" style="stroke:#038048;stroke-width:1.0;"/><text fill="#000000" font-family="sans-serif" font-size="14" lengthAdjust="spacing" textLength="670" x="27" y="395.5034">Mundo(gameWindowSettings:GameWindowSettings, nativeWindowSettings:NativeWindowSettings)</text><rect fill="#F24D5C" height="6" style="stroke:#C82930;stroke-width:1.0;" width="6" x="15" y="405.2007"/><text fill="#000000" font-family="sans-serif" font-size="14" lengthAdjust="spacing" textLength="144" x="27" y="411.9917">Gizmo_Sru3D() : void</text></g><!--class Dictionary`2--><g id="elem_Dictionary`2"><rect codeLine="6" fill="#F1F1F1" height="48" id="Dictionary`2" rx="2.5" ry="2.5" style="stroke:#181818;stroke-width:0.5;" width="159" x="928.5" y="346.21"/><ellipse cx="943.5" cy="362.21" fill="#ADD1B2" rx="11" ry="11" style="stroke:#181818;stroke-width:1.0;"/><path d="M945.9731,368.3531 Q945.3921,368.6519 944.7529,368.8013 Q944.1138,368.9507 943.4082,368.9507 Q940.9014,368.9507 939.5815,367.2989 Q938.2617,365.647 938.2617,362.5259 Q938.2617,359.3965 939.5815,357.7447 Q940.9014,356.0928 943.4082,356.0928 Q944.1138,356.0928 944.7612,356.2422 Q945.4087,356.3916 945.9731,356.6905 L945.9731,359.4131 Q945.3423,358.8321 944.7488,358.5623 Q944.1553,358.2925 943.5244,358.2925 Q942.1797,358.2925 941.4949,359.3592 Q940.8101,360.4258 940.8101,362.5259 Q940.8101,364.6177 941.4949,365.6844 Q942.1797,366.751 943.5244,366.751 Q944.1553,366.751 944.7488,366.4812 Q945.3423,366.2115 945.9731,365.6304 Z " fill="#000000"/><text fill="#000000" font-family="sans-serif" font-size="14" lengthAdjust="spacing" textLength="87" x="957.5" y="367.501">Dictionary`2</text><rect fill="#FFFFFF" height="16.1328" style="stroke:#181818;stroke-width:1.0;stroke-dasharray:2.0,2.0;" width="38" x="1052.5" y="343.21"/><text fill="#000000" font-family="sans-serif" font-size="12" font-style="italic" lengthAdjust="spacing" textLength="36" x="1053.5" y="355.8116">T1,T2</text><line style="stroke:#181818;stroke-width:0.5;" x1="929.5" x2="1086.5" y1="378.21" y2="378.21"/><line style="stroke:#181818;stroke-width:0.5;" x1="929.5" x2="1086.5" y1="386.21" y2="386.21"/></g><!--class GameWindow--><g id="elem_GameWindow"><rect fill="#F1F1F1" height="48" id="GameWindow" rx="2.5" ry="2.5" style="stroke:#181818;stroke-width:0.5;" width="125" x="292.5" y="11.31"/><ellipse cx="307.5" cy="27.31" fill="#ADD1B2" rx="11" ry="11" style="stroke:#181818;stroke-width:1.0;"/><path d="M309.9731,33.4531 Q309.3921,33.7519 308.7529,33.9013 Q308.1138,34.0507 307.4082,34.0507 Q304.9014,34.0507 303.5815,32.3989 Q302.2617,30.747 302.2617,27.6259 Q302.2617,24.4965 303.5815,22.8447 Q304.9014,21.1928 307.4082,21.1928 Q308.1138,21.1928 308.7612,21.3422 Q309.4087,21.4916 309.9731,21.7905 L309.9731,24.5131 Q309.3423,23.9321 308.7488,23.6623 Q308.1553,23.3925 307.5244,23.3925 Q306.1797,23.3925 305.4949,24.4592 Q304.8101,25.5258 304.8101,27.6259 Q304.8101,29.7177 305.4949,30.7844 Q306.1797,31.851 307.5244,31.851 Q308.1553,31.851 308.7488,31.5812 Q309.3423,31.3115 309.9731,30.7304 Z " fill="#000000"/><text fill="#000000" font-family="sans-serif" font-size="14" lengthAdjust="spacing" textLength="93" x="321.5" y="32.601">GameWindow</text><line style="stroke:#181818;stroke-width:0.5;" x1="293.5" x2="416.5" y1="43.31" y2="43.31"/><line style="stroke:#181818;stroke-width:0.5;" x1="293.5" x2="416.5" y1="51.31" y2="51.31"/></g><!--class Transformacao4D--><g id="elem_Transformacao4D"><rect fill="#F1F1F1" height="48" id="Transformacao4D" rx="2.5" ry="2.5" style="stroke:#181818;stroke-width:0.5;" width="155" x="738.5" y="346.21"/><ellipse cx="753.5" cy="362.21" fill="#ADD1B2" rx="11" ry="11" style="stroke:#181818;stroke-width:1.0;"/><path d="M755.9731,368.3531 Q755.3921,368.6519 754.7529,368.8013 Q754.1138,368.9507 753.4082,368.9507 Q750.9014,368.9507 749.5815,367.2989 Q748.2617,365.647 748.2617,362.5259 Q748.2617,359.3965 749.5815,357.7447 Q750.9014,356.0928 753.4082,356.0928 Q754.1138,356.0928 754.7612,356.2422 Q755.4087,356.3916 755.9731,356.6905 L755.9731,359.4131 Q755.3423,358.8321 754.7488,358.5623 Q754.1553,358.2925 753.5244,358.2925 Q752.1797,358.2925 751.4949,359.3592 Q750.8101,360.4258 750.8101,362.5259 Q750.8101,364.6177 751.4949,365.6844 Q752.1797,366.751 753.5244,366.751 Q754.1553,366.751 754.7488,366.4812 Q755.3423,366.2115 755.9731,365.6304 Z " fill="#000000"/><text fill="#000000" font-family="sans-serif" font-size="14" lengthAdjust="spacing" textLength="123" x="767.5" y="367.501">Transformacao4D</text><line style="stroke:#181818;stroke-width:0.5;" x1="739.5" x2="892.5" y1="378.21" y2="378.21"/><line style="stroke:#181818;stroke-width:0.5;" x1="739.5" x2="892.5" y1="386.21" y2="386.21"/></g><!--class Shader--><g id="elem_Shader"><rect fill="#F1F1F1" height="48" id="Shader" rx="2.5" ry="2.5" style="stroke:#181818;stroke-width:0.5;" width="80" x="315" y="701.54"/><ellipse cx="330" cy="717.54" fill="#ADD1B2" rx="11" ry="11" style="stroke:#181818;stroke-width:1.0;"/><path d="M332.4731,723.6831 Q331.8921,723.9819 331.2529,724.1313 Q330.6138,724.2807 329.9082,724.2807 Q327.4014,724.2807 326.0815,722.6289 Q324.7617,720.977 324.7617,717.8559 Q324.7617,714.7265 326.0815,713.0747 Q327.4014,711.4228 329.9082,711.4228 Q330.6138,711.4228 331.2612,711.5722 Q331.9087,711.7216 332.4731,712.0205 L332.4731,714.7431 Q331.8423,714.1621 331.2488,713.8923 Q330.6553,713.6225 330.0244,713.6225 Q328.6797,713.6225 327.9949,714.6892 Q327.3101,715.7558 327.3101,717.8559 Q327.3101,719.9477 327.9949,721.0144 Q328.6797,722.081 330.0244,722.081 Q330.6553,722.081 331.2488,721.8112 Q331.8423,721.5415 332.4731,720.9604 Z " fill="#000000"/><text fill="#000000" font-family="sans-serif" font-size="14" lengthAdjust="spacing" textLength="48" x="344" y="722.831">Shader</text><line style="stroke:#181818;stroke-width:0.5;" x1="316" x2="394" y1="733.54" y2="733.54"/><line style="stroke:#181818;stroke-width:0.5;" x1="316" x2="394" y1="741.54" y2="741.54"/></g><!--class PrimitiveType--><g id="elem_PrimitiveType"><rect fill="#F1F1F1" height="48" id="PrimitiveType" rx="2.5" ry="2.5" style="stroke:#181818;stroke-width:0.5;" width="124" x="1153" y="701.54"/><ellipse cx="1168" cy="717.54" fill="#ADD1B2" rx="11" ry="11" style="stroke:#181818;stroke-width:1.0;"/><path d="M1170.4731,723.6831 Q1169.8921,723.9819 1169.2529,724.1313 Q1168.6138,724.2807 1167.9082,724.2807 Q1165.4014,724.2807 1164.0815,722.6289 Q1162.7617,720.977 1162.7617,717.8559 Q1162.7617,714.7265 1164.0815,713.0747 Q1165.4014,711.4228 1167.9082,711.4228 Q1168.6138,711.4228 1169.2612,711.5722 Q1169.9087,711.7216 1170.4731,712.0205 L1170.4731,714.7431 Q1169.8423,714.1621 1169.2488,713.8923 Q1168.6553,713.6225 1168.0244,713.6225 Q1166.6797,713.6225 1165.9949,714.6892 Q1165.3101,715.7558 1165.3101,717.8559 Q1165.3101,719.9477 1165.9949,721.0144 Q1166.6797,722.081 1168.0244,722.081 Q1168.6553,722.081 1169.2488,721.8112 Q1169.8423,721.5415 1170.4731,720.9604 Z " fill="#000000"/><text fill="#000000" font-family="sans-serif" font-size="14" lengthAdjust="spacing" textLength="92" x="1182" y="722.831">PrimitiveType</text><line style="stroke:#181818;stroke-width:0.5;" x1="1154" x2="1276" y1="733.54" y2="733.54"/><line style="stroke:#181818;stroke-width:0.5;" x1="1154" x2="1276" y1="741.54" y2="741.54"/></g><!--class Program--><g id="elem_Program"><rect codeLine="1" fill="#F1F1F1" height="56.6211" id="Program" rx="2.5" ry="2.5" style="stroke:#181818;stroke-width:0.5;" width="91" x="452.5" y="7"/><ellipse cx="467.5" cy="27.3105" fill="#ADD1B2" rx="11" ry="11" style="stroke:#181818;stroke-width:1.0;"/><path d="M469.9731,33.4536 Q469.3921,33.7524 468.7529,33.9019 Q468.1138,34.0513 467.4082,34.0513 Q464.9014,34.0513 463.5815,32.3994 Q462.2617,30.7476 462.2617,27.6265 Q462.2617,24.4971 463.5815,22.8452 Q464.9014,21.1934 467.4082,21.1934 Q468.1138,21.1934 468.7612,21.3428 Q469.4087,21.4922 469.9731,21.791 L469.9731,24.5137 Q469.3423,23.9326 468.7488,23.6628 Q468.1553,23.3931 467.5244,23.3931 Q466.1797,23.3931 465.4949,24.4597 Q464.8101,25.5264 464.8101,27.6265 Q464.8101,29.7183 465.4949,30.7849 Q466.1797,31.8516 467.5244,31.8516 Q468.1553,31.8516 468.7488,31.5818 Q469.3423,31.312 469.9731,30.731 Z " fill="#000000"/><text fill="#000000" font-family="sans-serif" font-size="12" font-style="italic" lengthAdjust="spacing" textLength="42" x="490" y="23.6016">&#171;static&#187;</text><text fill="#000000" font-family="sans-serif" font-size="14" lengthAdjust="spacing" textLength="59" x="481.5" y="39.668">Program</text><line style="stroke:#181818;stroke-width:0.5;" x1="453.5" x2="542.5" y1="47.6211" y2="47.6211"/><line style="stroke:#181818;stroke-width:0.5;" x1="453.5" x2="542.5" y1="55.6211" y2="55.6211"/></g><!--reverse link Objeto to Poligono--><g id="link_Objeto_Poligono"><path codeLine="6" d="M1522.5035,633.2028 C1533.4835,655.2528 1535.6,659.49 1544.02,676.41 " fill="none" id="Objeto-backto-Poligono" style="stroke:#181818;stroke-width:1.0;"/><polygon fill="none" points="1514.48,617.09,1517.1326,635.8773,1527.8745,630.5283,1514.48,617.09" style="stroke:#181818;stroke-width:1.0;"/></g><!--reverse link GameWindow to Mundo--><g id="link_GameWindow_Mundo"><path codeLine="8" d="M355,77.72 C355,131.81 355,248.4 355,320.98 " fill="none" id="GameWindow-backto-Mundo" style="stroke:#181818;stroke-width:1.0;"/><polygon fill="none" points="355,59.72,349,77.72,361,77.72,355,59.72" style="stroke:#181818;stroke-width:1.0;"/></g><!--link Mundo to Objeto--><g id="link_Mundo_Objeto"><path codeLine="9" d="M412.4338,312.7285 C479.1438,249.2585 597.11,150.34 729.75,108.62 C768.6,96.4 1058.17,94.2 1096.25,108.62 C1107.47,112.87 1113.1605,115.0826 1124.0505,120.5126 " fill="none" id="Mundo-Objeto" style="stroke:#181818;stroke-width:1.0;"/><polygon fill="none" points="403.74,321,410.8441,319.7622,412.4338,312.7285,405.3297,313.9663,403.74,321" style="stroke:#181818;stroke-width:1.0;"/><polygon fill="#181818" points="1129.42,123.19,1123.1506,115.5943,1124.9454,120.9589,1119.5808,122.7536,1129.42,123.19" style="stroke:#181818;stroke-width:1.0;"/><text fill="#000000" font-family="sans-serif" font-size="13" lengthAdjust="spacing" textLength="44" x="1076.9715" y="113.2069">mundo</text></g><!--link Mundo to Objeto--><g id="link_Mundo_Objeto"><path codeLine="11" d="M410.1794,312.5989 C477.2394,245.9189 599.65,138.47 738.5,93.62 C775.4,81.7 1051.33,79.65 1087.5,93.62 C1108.15,101.6 1123.1204,108.6208 1142.5204,120.2208 " fill="none" id="Mundo-Objeto-1" style="stroke:#181818;stroke-width:1.0;"/><polygon fill="none" points="401.67,321.06,408.7451,319.6659,410.1794,312.5989,403.1043,313.993,401.67,321.06" style="stroke:#181818;stroke-width:1.0;"/><polygon fill="#181818" points="1147.67,123.3,1141.9983,115.2482,1143.3786,120.734,1137.8928,122.1143,1147.67,123.3" style="stroke:#181818;stroke-width:1.0;"/><text fill="#000000" font-family="sans-serif" font-size="13" lengthAdjust="spacing" textLength="115" x="1141.5396" y="112.5256">objetoSelecionado</text></g><!--link Mundo to Objeto--><g id="link_Mundo_Objeto"><path codeLine="12" d="M408.1855,312.4276 C475.5655,242.6476 602.25,126.61 747.25,78.62 C782.22,67.05 1044.47,65.14 1078.75,78.62 C1107.62,89.98 1130.4349,102.0214 1156.7149,119.8514 " fill="none" id="Mundo-Objeto-2" style="stroke:#181818;stroke-width:1.0;"/><polygon fill="none" points="399.85,321.06,406.8952,319.5223,408.1855,312.4276,401.1403,313.9653,399.85,321.06" style="stroke:#181818;stroke-width:1.0;"/><polygon fill="#181818" points="1161.68,123.22,1156.4781,114.857,1157.5424,120.4128,1151.9866,121.4771,1161.68,123.22" style="stroke:#181818;stroke-width:1.0;"/><text fill="#000000" font-family="sans-serif" font-size="13" lengthAdjust="spacing" textLength="73" x="1063.2487" y="112.9766">objetoNovo</text></g><!--link Mundo to Dictionary`2--><g id="link_Mundo_Dictionary`2"><path codeLine="10" d="M410.1794,312.5989 C477.2394,245.9189 599.65,138.47 738.5,93.62 C804.05,72.45 833.76,59.31 893.5,93.62 C984.76,146.04 1002.8971,282.6129 1006.6571,339.9029 " fill="none" id="Mundo-Dictionary`2" style="stroke:#181818;stroke-width:1.0;"/><polygon fill="none" points="401.67,321.06,408.7451,319.6659,410.1794,312.5989,403.1043,313.993,401.67,321.06" style="stroke:#181818;stroke-width:1.0;"/><polygon fill="#181818" points="1007.05,345.89,1010.452,336.6474,1006.7225,340.9007,1002.4692,337.1713,1007.05,345.89" style="stroke:#181818;stroke-width:1.0;"/><text fill="#000000" font-family="sans-serif" font-size="13" lengthAdjust="spacing" textLength="156" x="830.8191" y="335.3443">grafoLista&lt;char,Objeto&gt;</text></g><!--link Mundo to Transformacao4D--><g id="link_Mundo_Transformacao4D"><path codeLine="13" d="M715.45,370.21 C727.03,370.21 720.61,370.21 732.18,370.21 " fill="none" id="Mundo-Transformacao4D" style="stroke:#181818;stroke-width:1.0;"/><polygon fill="none" points="703.45,370.21,709.45,374.21,715.45,370.21,709.45,366.21,703.45,370.21" style="stroke:#181818;stroke-width:1.0;"/><polygon fill="#181818" points="738.18,370.21,729.18,366.21,733.18,370.21,729.18,374.21,738.18,370.21" style="stroke:#181818;stroke-width:1.0;"/><text fill="#000000" font-family="sans-serif" font-size="13" lengthAdjust="spacing" textLength="74" x="656.9101" y="360.2296">matrizGrafo</text></g><!--link Mundo to Shader--><g id="link_Mundo_Shader"><path codeLine="14" d="M298.97,419.23 C264.09,496.97 265.5793,642.6392 311.0193,698.3892 " fill="none" id="Mundo-to-Shader" style="stroke:#181818;stroke-width:1.0;"/><polygon fill="#181818" points="314.81,703.04,312.2244,693.5366,311.651,699.1643,306.0233,698.5909,314.81,703.04" style="stroke:#181818;stroke-width:1.0;"/><text fill="#000000" font-family="sans-serif" font-size="13" lengthAdjust="spacing" textLength="90" x="216.9565" y="697.857">_shaderBranca</text></g><!--link Mundo to Shader--><g id="link_Mundo_Shader"><path codeLine="15" d="M317.65,419.23 C294.62,496.21 295.094,639.0504 324.574,696.0604 " fill="none" id="Mundo-to-Shader-1" style="stroke:#181818;stroke-width:1.0;"/><polygon fill="#181818" points="327.33,701.39,326.7491,691.5583,325.0334,696.9487,319.643,695.2329,327.33,701.39" style="stroke:#181818;stroke-width:1.0;"/><text fill="#000000" font-family="sans-serif" font-size="13" lengthAdjust="spacing" textLength="107" x="333.9489" y="690.8878">_shaderVermelha</text></g><!--link Mundo to Shader--><g id="link_Mundo_Shader"><path codeLine="16" d="M336.32,419.23 C324.81,496.21 324.9171,638.5713 339.6671,695.5813 " fill="none" id="Mundo-to-Shader-2" style="stroke:#181818;stroke-width:1.0;"/><polygon fill="#181818" points="341.17,701.39,342.7882,691.675,339.9176,696.5494,335.0432,693.6788,341.17,701.39" style="stroke:#181818;stroke-width:1.0;"/><text fill="#000000" font-family="sans-serif" font-size="13" lengthAdjust="spacing" textLength="84" x="222.9741" y="703.8553">_shaderVerde</text></g><!--link Mundo to Shader--><g id="link_Mundo_Shader"><path codeLine="17" d="M355,419.23 C355,496.21 355,638.38 355,695.39 " fill="none" id="Mundo-to-Shader-3" style="stroke:#181818;stroke-width:1.0;"/><polygon fill="#181818" points="355,701.39,359,692.39,355,696.39,351,692.39,355,701.39" style="stroke:#181818;stroke-width:1.0;"/><text fill="#000000" font-family="sans-serif" font-size="13" lengthAdjust="spacing" textLength="77" x="402.1625" y="693.7523">_shaderAzul</text></g><!--link Mundo to Shader--><g id="link_Mundo_Shader"><path codeLine="18" d="M373.68,419.23 C385.19,496.21 385.0829,638.5713 370.3329,695.5813 " fill="none" id="Mundo-to-Shader-4" style="stroke:#181818;stroke-width:1.0;"/><polygon fill="#181818" points="368.83,701.39,374.9568,693.6788,370.0824,696.5494,367.2118,691.675,368.83,701.39" style="stroke:#181818;stroke-width:1.0;"/><text fill="#000000" font-family="sans-serif" font-size="13" lengthAdjust="spacing" textLength="85" x="383.2646" y="690.8878">_shaderCiano</text></g><!--link Mundo to Shader--><g id="link_Mundo_Shader"><path codeLine="19" d="M392.35,419.23 C415.38,496.21 414.906,639.0504 385.426,696.0604 " fill="none" id="Mundo-to-Shader-5" style="stroke:#181818;stroke-width:1.0;"/><polygon fill="#181818" points="382.67,701.39,390.357,695.2329,384.9666,696.9487,383.2509,691.5583,382.67,701.39" style="stroke:#181818;stroke-width:1.0;"/><text fill="#000000" font-family="sans-serif" font-size="13" lengthAdjust="spacing" textLength="102" x="402.8292" y="709.7316">_shaderMagenta</text></g><!--link Mundo to Shader--><g id="link_Mundo_Shader"><path codeLine="20" d="M411.03,419.23 C445.91,496.97 444.4207,642.6392 398.9807,698.3892 " fill="none" id="Mundo-to-Shader-6" style="stroke:#181818;stroke-width:1.0;"/><polygon fill="#181818" points="395.19,703.04,403.9767,698.5909,398.349,699.1643,397.7756,693.5366,395.19,703.04" style="stroke:#181818;stroke-width:1.0;"/><text fill="#000000" font-family="sans-serif" font-size="13" lengthAdjust="spacing" textLength="100" x="402.9407" y="714.3326">_shaderAmarela</text></g><!--link Objeto to PrimitiveType--><g id="link_Objeto_PrimitiveType"><path codeLine="30" d="M1268.83,617.09 C1251.67,651.34 1239.2577,676.1156 1229.4577,695.6756 " fill="none" id="Objeto-to-PrimitiveType" style="stroke:#181818;stroke-width:1.0;"/><polygon fill="#181818" points="1226.77,701.04,1234.3777,694.7852,1229.0097,696.5697,1227.2253,691.2017,1226.77,701.04" style="stroke:#181818;stroke-width:1.0;"/><text fill="#000000" font-family="sans-serif" font-size="13" lengthAdjust="spacing" textLength="83" x="1136.5233" y="690.8462">PrimitivaTipo</text></g><!--link Objeto to Shader--><g id="link_Objeto_Shader"><path codeLine="31" d="M1122.39,608.44 C1116.62,611.37 1110.82,614.17 1105,616.81 C975.73,675.35 537.634,711.2915 401.184,721.2915 " fill="none" id="Objeto-to-Shader" style="stroke:#181818;stroke-width:1.0;"/><polygon fill="#181818" points="395.2,721.73,404.4683,725.0615,400.1866,721.3645,403.8836,717.0829,395.2,721.73" style="stroke:#181818;stroke-width:1.0;"/><text fill="#000000" font-family="sans-serif" font-size="13" lengthAdjust="spacing" textLength="84" x="403.0347" y="734.6649">ShaderObjeto</text></g><!--SRC=[KypCIyufJKbLqDCFoC_9JC_FozShACtDuL94IFYMvgLWYledPQMMO0e75EMd5oNcWiK1]--></g></svg>