<?xml version="1.0" encoding="us-ascii" standalone="no"?><svg xmlns="http://www.w3.org/2000/svg" xmlns:xlink="http://www.w3.org/1999/xlink" contentStyleType="text/css" height="327px" preserveAspectRatio="none" style="width:1279px;height:327px;background:#FFFFFF;" version="1.1" viewBox="0 0 1279 327" width="1279px" zoomAndPan="magnify"><defs/><g><!--class Mundo--><g id="elem_Mundo"><rect codeLine="1" fill="#F1F1F1" height="97.4648" id="Mundo" rx="2.5" ry="2.5" style="stroke:#181818;stroke-width:0.5;" width="696" x="7" y="115"/><ellipse cx="326.75" cy="131" fill="#ADD1B2" rx="11" ry="11" style="stroke:#181818;stroke-width:1.0;"/><path d="M329.2231,137.1431 Q328.6421,137.4419 328.0029,137.5913 Q327.3638,137.7407 326.6582,137.7407 Q324.1514,137.7407 322.8315,136.0889 Q321.5117,134.437 321.5117,131.3159 Q321.5117,128.1865 322.8315,126.5347 Q324.1514,124.8828 326.6582,124.8828 Q327.3638,124.8828 328.0112,125.0322 Q328.6587,125.1816 329.2231,125.4805 L329.2231,128.2031 Q328.5923,127.6221 327.9988,127.3523 Q327.4053,127.0825 326.7744,127.0825 Q325.4297,127.0825 324.7449,128.1492 Q324.0601,129.2158 324.0601,131.3159 Q324.0601,133.4077 324.7449,134.4744 Q325.4297,135.541 326.7744,135.541 Q327.4053,135.541 327.9988,135.2712 Q328.5923,135.0015 329.2231,134.4204 Z " fill="#000000"/><text fill="#000000" font-family="sans-serif" font-size="14" lengthAdjust="spacing" textLength="48" x="347.25" y="136.291">Mundo</text><line style="stroke:#181818;stroke-width:0.5;" x1="8" x2="702" y1="147" y2="147"/><rect fill="none" height="6" style="stroke:#C82930;stroke-width:1.0;" width="6" x="15" y="157.7441"/><text fill="#000000" font-family="sans-serif" font-size="14" lengthAdjust="spacing" textLength="151" x="27" y="164.5352">rotuloAtual : char = '?'</text><line style="stroke:#181818;stroke-width:0.5;" x1="8" x2="702" y1="171.4883" y2="171.4883"/><ellipse cx="18" cy="185.2324" fill="#84BE84" rx="3" ry="3" style="stroke:#038048;stroke-width:1.0;"/><text fill="#000000" font-family="sans-serif" font-size="14" lengthAdjust="spacing" textLength="670" x="27" y="189.0234">Mundo(gameWindowSettings:GameWindowSettings, nativeWindowSettings:NativeWindowSettings)</text><rect fill="#F24D5C" height="6" style="stroke:#C82930;stroke-width:1.0;" width="6" x="15" y="198.7207"/><text fill="#000000" font-family="sans-serif" font-size="14" lengthAdjust="spacing" textLength="144" x="27" y="205.5117">Gizmo_Sru3D() : void</text></g><!--class Dictionary`2--><g id="elem_Dictionary`2"><rect codeLine="6" fill="#F1F1F1" height="48" id="Dictionary`2" rx="2.5" ry="2.5" style="stroke:#181818;stroke-width:0.5;" width="159" x="928.5" y="139.73"/><ellipse cx="943.5" cy="155.73" fill="#ADD1B2" rx="11" ry="11" style="stroke:#181818;stroke-width:1.0;"/><path d="M945.9731,161.8731 Q945.3921,162.1719 944.7529,162.3213 Q944.1138,162.4707 943.4082,162.4707 Q940.9014,162.4707 939.5815,160.8189 Q938.2617,159.167 938.2617,156.0459 Q938.2617,152.9165 939.5815,151.2647 Q940.9014,149.6128 943.4082,149.6128 Q944.1138,149.6128 944.7612,149.7622 Q945.4087,149.9116 945.9731,150.2105 L945.9731,152.9331 Q945.3423,152.3521 944.7488,152.0823 Q944.1553,151.8125 943.5244,151.8125 Q942.1797,151.8125 941.4949,152.8792 Q940.8101,153.9458 940.8101,156.0459 Q940.8101,158.1377 941.4949,159.2044 Q942.1797,160.271 943.5244,160.271 Q944.1553,160.271 944.7488,160.0012 Q945.3423,159.7315 945.9731,159.1504 Z " fill="#000000"/><text fill="#000000" font-family="sans-serif" font-size="14" lengthAdjust="spacing" textLength="87" x="957.5" y="161.021">Dictionary`2</text><rect fill="#FFFFFF" height="16.1328" style="stroke:#181818;stroke-width:1.0;stroke-dasharray:2.0,2.0;" width="38" x="1052.5" y="136.73"/><text fill="#000000" font-family="sans-serif" font-size="12" font-style="italic" lengthAdjust="spacing" textLength="36" x="1053.5" y="149.3316">T1,T2</text><line style="stroke:#181818;stroke-width:0.5;" x1="929.5" x2="1086.5" y1="171.73" y2="171.73"/><line style="stroke:#181818;stroke-width:0.5;" x1="929.5" x2="1086.5" y1="179.73" y2="179.73"/></g><!--class GameWindow--><g id="elem_GameWindow"><rect fill="#F1F1F1" height="48" id="GameWindow" rx="2.5" ry="2.5" style="stroke:#181818;stroke-width:0.5;" width="125" x="292.5" y="7"/><ellipse cx="307.5" cy="23" fill="#ADD1B2" rx="11" ry="11" style="stroke:#181818;stroke-width:1.0;"/><path d="M309.9731,29.1431 Q309.3921,29.4419 308.7529,29.5913 Q308.1138,29.7407 307.4082,29.7407 Q304.9014,29.7407 303.5815,28.0889 Q302.2617,26.437 302.2617,23.3159 Q302.2617,20.1865 303.5815,18.5347 Q304.9014,16.8828 307.4082,16.8828 Q308.1138,16.8828 308.7612,17.0322 Q309.4087,17.1816 309.9731,17.4805 L309.9731,20.2031 Q309.3423,19.6221 308.7488,19.3523 Q308.1553,19.0825 307.5244,19.0825 Q306.1797,19.0825 305.4949,20.1492 Q304.8101,21.2158 304.8101,23.3159 Q304.8101,25.4077 305.4949,26.4744 Q306.1797,27.541 307.5244,27.541 Q308.1553,27.541 308.7488,27.2712 Q309.3423,27.0015 309.9731,26.4204 Z " fill="#000000"/><text fill="#000000" font-family="sans-serif" font-size="14" lengthAdjust="spacing" textLength="93" x="321.5" y="28.291">GameWindow</text><line style="stroke:#181818;stroke-width:0.5;" x1="293.5" x2="416.5" y1="39" y2="39"/><line style="stroke:#181818;stroke-width:0.5;" x1="293.5" x2="416.5" y1="47" y2="47"/></g><!--class Objeto--><g id="elem_Objeto"><rect fill="#F1F1F1" height="48" id="Objeto" rx="2.5" ry="2.5" style="stroke:#181818;stroke-width:0.5;" width="78" x="1122" y="139.73"/><ellipse cx="1137" cy="155.73" fill="#ADD1B2" rx="11" ry="11" style="stroke:#181818;stroke-width:1.0;"/><path d="M1139.4731,161.8731 Q1138.8921,162.1719 1138.2529,162.3213 Q1137.6138,162.4707 1136.9082,162.4707 Q1134.4014,162.4707 1133.0815,160.8189 Q1131.7617,159.167 1131.7617,156.0459 Q1131.7617,152.9165 1133.0815,151.2647 Q1134.4014,149.6128 1136.9082,149.6128 Q1137.6138,149.6128 1138.2612,149.7622 Q1138.9087,149.9116 1139.4731,150.2105 L1139.4731,152.9331 Q1138.8423,152.3521 1138.2488,152.0823 Q1137.6553,151.8125 1137.0244,151.8125 Q1135.6797,151.8125 1134.9949,152.8792 Q1134.3101,153.9458 1134.3101,156.0459 Q1134.3101,158.1377 1134.9949,159.2044 Q1135.6797,160.271 1137.0244,160.271 Q1137.6553,160.271 1138.2488,160.0012 Q1138.8423,159.7315 1139.4731,159.1504 Z " fill="#000000"/><text fill="#000000" font-family="sans-serif" font-size="14" lengthAdjust="spacing" textLength="46" x="1151" y="161.021">Objeto</text><line style="stroke:#181818;stroke-width:0.5;" x1="1123" x2="1199" y1="171.73" y2="171.73"/><line style="stroke:#181818;stroke-width:0.5;" x1="1123" x2="1199" y1="179.73" y2="179.73"/></g><!--class Transformacao4D--><g id="elem_Transformacao4D"><rect fill="#F1F1F1" height="48" id="Transformacao4D" rx="2.5" ry="2.5" style="stroke:#181818;stroke-width:0.5;" width="155" x="738.5" y="139.73"/><ellipse cx="753.5" cy="155.73" fill="#ADD1B2" rx="11" ry="11" style="stroke:#181818;stroke-width:1.0;"/><path d="M755.9731,161.8731 Q755.3921,162.1719 754.7529,162.3213 Q754.1138,162.4707 753.4082,162.4707 Q750.9014,162.4707 749.5815,160.8189 Q748.2617,159.167 748.2617,156.0459 Q748.2617,152.9165 749.5815,151.2647 Q750.9014,149.6128 753.4082,149.6128 Q754.1138,149.6128 754.7612,149.7622 Q755.4087,149.9116 755.9731,150.2105 L755.9731,152.9331 Q755.3423,152.3521 754.7488,152.0823 Q754.1553,151.8125 753.5244,151.8125 Q752.1797,151.8125 751.4949,152.8792 Q750.8101,153.9458 750.8101,156.0459 Q750.8101,158.1377 751.4949,159.2044 Q752.1797,160.271 753.5244,160.271 Q754.1553,160.271 754.7488,160.0012 Q755.3423,159.7315 755.9731,159.1504 Z " fill="#000000"/><text fill="#000000" font-family="sans-serif" font-size="14" lengthAdjust="spacing" textLength="123" x="767.5" y="161.021">Transformacao4D</text><line style="stroke:#181818;stroke-width:0.5;" x1="739.5" x2="892.5" y1="171.73" y2="171.73"/><line style="stroke:#181818;stroke-width:0.5;" x1="739.5" x2="892.5" y1="179.73" y2="179.73"/></g><!--class Shader--><g id="elem_Shader"><rect fill="#F1F1F1" height="48" id="Shader" rx="2.5" ry="2.5" style="stroke:#181818;stroke-width:0.5;" width="80" x="315" y="272.46"/><ellipse cx="330" cy="288.46" fill="#ADD1B2" rx="11" ry="11" style="stroke:#181818;stroke-width:1.0;"/><path d="M332.4731,294.6031 Q331.8921,294.9019 331.2529,295.0513 Q330.6138,295.2007 329.9082,295.2007 Q327.4014,295.2007 326.0815,293.5489 Q324.7617,291.897 324.7617,288.7759 Q324.7617,285.6465 326.0815,283.9947 Q327.4014,282.3428 329.9082,282.3428 Q330.6138,282.3428 331.2612,282.4922 Q331.9087,282.6416 332.4731,282.9405 L332.4731,285.6631 Q331.8423,285.0821 331.2488,284.8123 Q330.6553,284.5425 330.0244,284.5425 Q328.6797,284.5425 327.9949,285.6092 Q327.3101,286.6758 327.3101,288.7759 Q327.3101,290.8677 327.9949,291.9344 Q328.6797,293.001 330.0244,293.001 Q330.6553,293.001 331.2488,292.7312 Q331.8423,292.4615 332.4731,291.8804 Z " fill="#000000"/><text fill="#000000" font-family="sans-serif" font-size="14" lengthAdjust="spacing" textLength="48" x="344" y="293.751">Shader</text><line style="stroke:#181818;stroke-width:0.5;" x1="316" x2="394" y1="304.46" y2="304.46"/><line style="stroke:#181818;stroke-width:0.5;" x1="316" x2="394" y1="312.46" y2="312.46"/></g><!--reverse link GameWindow to Mundo--><g id="link_GameWindow_Mundo"><path codeLine="8" d="M355,73.37 C355,89.82 355,94.42 355,114.65 " fill="none" id="GameWindow-backto-Mundo" style="stroke:#181818;stroke-width:1.0;"/><polygon fill="none" points="355,55.37,349,73.37,361,73.37,355,55.37" style="stroke:#181818;stroke-width:1.0;"/></g><!--link Mundo to Objeto--><g id="link_Mundo_Objeto"><path codeLine="9" d="M621.3865,112.7351 C661.4765,106.7051 690.7,103.29 729.75,100 C770.33,96.57 1058.57,84.56 1096.25,100 C1115.66,107.95 1128.6164,120.1672 1140.2064,134.5572 " fill="none" id="Mundo-Objeto" style="stroke:#181818;stroke-width:1.0;"/><polygon fill="none" points="609.52,114.52,616.0482,117.5831,621.3865,112.7351,614.8583,109.6721,609.52,114.52" style="stroke:#181818;stroke-width:1.0;"/><polygon fill="#181818" points="1143.97,139.23,1141.4398,129.7117,1140.8337,135.336,1135.2094,134.7298,1143.97,139.23" style="stroke:#181818;stroke-width:1.0;"/><text fill="#000000" font-family="sans-serif" font-size="13" lengthAdjust="spacing" textLength="44" x="1090.4564" y="129.0362">mundo</text></g><!--link Mundo to Objeto--><g id="link_Mundo_Objeto"><path codeLine="11" d="M567.5787,112.0871 C626.1087,99.9171 678.66,91.07 738.5,85 C777.08,81.08 1051.93,69.54 1087.5,85 C1112.88,96.02 1130.0882,115.6707 1142.9582,134.4507 " fill="none" id="Mundo-Objeto-1" style="stroke:#181818;stroke-width:1.0;"/><polygon fill="none" points="555.83,114.53,562.5187,117.2248,567.5787,112.0871,560.8901,109.3923,555.83,114.53" style="stroke:#181818;stroke-width:1.0;"/><polygon fill="#181818" points="1146.35,139.4,1144.5619,129.7148,1143.5235,135.2756,1137.9628,134.2372,1146.35,139.4" style="stroke:#181818;stroke-width:1.0;"/><text fill="#000000" font-family="sans-serif" font-size="13" lengthAdjust="spacing" textLength="115" x="1157.3303" y="128.8517">objetoSelecionado</text></g><!--link Mundo to Objeto--><g id="link_Mundo_Objeto"><path codeLine="12" d="M533.9973,111.5838 C602.9773,93.7338 672.5,78.8 747.25,70 C783.83,65.69 1045.2,54.8 1078.75,70 C1109.91,84.11 1130.8222,111.3736 1144.6522,134.1136 " fill="none" id="Mundo-Objeto-2" style="stroke:#181818;stroke-width:1.0;"/><polygon fill="none" points="522.38,114.59,529.1907,116.9593,533.9973,111.5838,527.1866,109.2144,522.38,114.59" style="stroke:#181818;stroke-width:1.0;"/><polygon fill="#181818" points="1147.77,139.24,1146.511,129.472,1145.1719,134.968,1139.6758,133.629,1147.77,139.24" style="stroke:#181818;stroke-width:1.0;"/><text fill="#000000" font-family="sans-serif" font-size="13" lengthAdjust="spacing" textLength="73" x="1057.048" y="128.7073">objetoNovo</text></g><!--link Mundo to Dictionary`2--><g id="link_Mundo_Dictionary`2"><path codeLine="10" d="M491.8159,110.8412 C602.5459,74.6412 755.9,42.25 893.5,85 C927.83,95.66 956.4609,116.6331 978.1809,135.6031 " fill="none" id="Mundo-Dictionary`2" style="stroke:#181818;stroke-width:1.0;"/><polygon fill="none" points="480.41,114.57,487.3559,116.5076,491.8159,110.8412,484.87,108.9036,480.41,114.57" style="stroke:#181818;stroke-width:1.0;"/><polygon fill="#181818" points="982.7,139.55,978.5527,130.6169,978.9341,136.2609,973.2901,136.6424,982.7,139.55" style="stroke:#181818;stroke-width:1.0;"/><text fill="#000000" font-family="sans-serif" font-size="13" lengthAdjust="spacing" textLength="156" x="800.3266" y="128.9783">grafoLista&lt;char,Objeto&gt;</text></g><!--link Mundo to Transformacao4D--><g id="link_Mundo_Transformacao4D"><path codeLine="13" d="M715.45,163.73 C727.03,163.73 720.61,163.73 732.18,163.73 " fill="none" id="Mundo-Transformacao4D" style="stroke:#181818;stroke-width:1.0;"/><polygon fill="none" points="703.45,163.73,709.45,167.73,715.45,163.73,709.45,159.73,703.45,163.73" style="stroke:#181818;stroke-width:1.0;"/><polygon fill="#181818" points="738.18,163.73,729.18,159.73,733.18,163.73,729.18,167.73,738.18,163.73" style="stroke:#181818;stroke-width:1.0;"/><text fill="#000000" font-family="sans-serif" font-size="13" lengthAdjust="spacing" textLength="74" x="656.9101" y="153.7496">matrizGrafo</text></g><!--link Mundo to Shader--><g id="link_Mundo_Shader"><path codeLine="14" d="M278.79,212.67 C270.51,240.43 277.0031,270.2256 309.1831,284.9356 " fill="none" id="Mundo-to-Shader" style="stroke:#181818;stroke-width:1.0;"/><polygon fill="#181818" points="314.64,287.43,308.1176,280.0504,310.0926,285.3513,304.7917,287.3263,314.64,287.43" style="stroke:#181818;stroke-width:1.0;"/><text fill="#000000" font-family="sans-serif" font-size="13" lengthAdjust="spacing" textLength="90" x="217.0376" y="299.8759">_shaderBranca</text></g><!--link Mundo to Shader--><g id="link_Mundo_Shader"><path codeLine="15" d="M304.2,212.67 C300.05,233.51 300.1839,251.9063 311.2339,268.4963 " fill="none" id="Mundo-to-Shader-1" style="stroke:#181818;stroke-width:1.0;"/><polygon fill="#181818" points="314.56,273.49,312.9,263.7821,311.7882,269.3286,306.2417,268.2169,314.56,273.49" style="stroke:#181818;stroke-width:1.0;"/><text fill="#000000" font-family="sans-serif" font-size="13" lengthAdjust="spacing" textLength="107" x="200.0742" y="268.6427">_shaderVermelha</text></g><!--link Mundo to Shader--><g id="link_Mundo_Shader"><path codeLine="16" d="M329.6,212.67 C327.58,232.92 327.3682,249.8638 332.5282,266.3538 " fill="none" id="Mundo-to-Shader-2" style="stroke:#181818;stroke-width:1.0;"/><polygon fill="#181818" points="334.32,272.08,335.4497,262.2962,332.8268,267.3082,327.8148,264.6853,334.32,272.08" style="stroke:#181818;stroke-width:1.0;"/><text fill="#000000" font-family="sans-serif" font-size="13" lengthAdjust="spacing" textLength="84" x="339.5168" y="261.9155">_shaderVerde</text></g><!--link Mundo to Shader--><g id="link_Mundo_Shader"><path codeLine="17" d="M355,212.67 C355,232.92 355,249.59 355,266.08 " fill="none" id="Mundo-to-Shader-3" style="stroke:#181818;stroke-width:1.0;"/><polygon fill="#181818" points="355,272.08,359,263.08,355,267.08,351,263.08,355,272.08" style="stroke:#181818;stroke-width:1.0;"/><text fill="#000000" font-family="sans-serif" font-size="13" lengthAdjust="spacing" textLength="77" x="402.1625" y="264.1606">_shaderAzul</text></g><!--link Mundo to Shader--><g id="link_Mundo_Shader"><path codeLine="18" d="M380.4,212.67 C382.42,232.92 382.6318,249.8638 377.4718,266.3538 " fill="none" id="Mundo-to-Shader-4" style="stroke:#181818;stroke-width:1.0;"/><polygon fill="#181818" points="375.68,272.08,382.1852,264.6853,377.1732,267.3082,374.5503,262.2962,375.68,272.08" style="stroke:#181818;stroke-width:1.0;"/><text fill="#000000" font-family="sans-serif" font-size="13" lengthAdjust="spacing" textLength="85" x="391.0801" y="261.9155">_shaderCiano</text></g><!--link Mundo to Shader--><g id="link_Mundo_Shader"><path codeLine="19" d="M405.8,212.67 C409.95,233.51 409.8161,251.9063 398.7661,268.4963 " fill="none" id="Mundo-to-Shader-5" style="stroke:#181818;stroke-width:1.0;"/><polygon fill="#181818" points="395.44,273.49,403.7583,268.2169,398.2118,269.3286,397.1,263.7821,395.44,273.49" style="stroke:#181818;stroke-width:1.0;"/><text fill="#000000" font-family="sans-serif" font-size="13" lengthAdjust="spacing" textLength="102" x="403.0124" y="284.7901">_shaderMagenta</text></g><!--link Mundo to Shader--><g id="link_Mundo_Shader"><path codeLine="20" d="M431.21,212.67 C439.49,240.43 432.9969,270.2256 400.8169,284.9356 " fill="none" id="Mundo-to-Shader-6" style="stroke:#181818;stroke-width:1.0;"/><polygon fill="#181818" points="395.36,287.43,405.2083,287.3263,399.9074,285.3513,401.8824,280.0504,395.36,287.43" style="stroke:#181818;stroke-width:1.0;"/><text fill="#000000" font-family="sans-serif" font-size="13" lengthAdjust="spacing" textLength="100" x="403.1253" y="299.8802">_shaderAmarela</text></g><!--SRC=[XOyzJyCm48Rt_8gJbxOY6IXCLGagHEf2ov08nd8uRcfa-oJRAIBG_qu-AZvA53oTxtdizuuhT0vMfSa9tWEeJmIMVAbeuKjKC0E-GmjNCBeUjVYiayS5Ql4ew-er5TvBKxZPyayh18DUxa_5TKzpSWnVoahJ9hNbHJAUrF5xadbm27Wx9qiazv8CshUdAPjdvs4sZUkv3y5tDim_egWRCkZseYW6ffkImVtpY_2_G65nItVIUPmtguQT4REJi9zFg5LIeGHlUF-_dRIcVI_LwAsibaqsWyoYSLko6ZdIPNBqeiRRk1tcmjxK1aS6QNlh4Hw4rKBj_b5oCS0NLQa6yAr4GmDyXOKmVcY0XKOhr9Vn2G00]--></g></svg>