<?xml version="1.0" encoding="us-ascii" standalone="no"?><svg xmlns="http://www.w3.org/2000/svg" xmlns:xlink="http://www.w3.org/1999/xlink" contentStyleType="text/css" height="226px" preserveAspectRatio="none" style="width:458px;height:226px;background:#FFFFFF;" version="1.1" viewBox="0 0 458 226" width="458px" zoomAndPan="magnify"><defs/><g><!--class Camera--><g id="elem_Camera"><rect codeLine="1" fill="#F1F1F1" height="212.8828" id="Camera" rx="2.5" ry="2.5" style="stroke:#181818;stroke-width:0.5;" width="324" x="7" y="7"/><ellipse cx="138.25" cy="23" fill="#ADD1B2" rx="11" ry="11" style="stroke:#181818;stroke-width:1.0;"/><path d="M140.7231,29.1431 Q140.1421,29.4419 139.5029,29.5913 Q138.8638,29.7407 138.1582,29.7407 Q135.6514,29.7407 134.3315,28.0889 Q133.0117,26.437 133.0117,23.3159 Q133.0117,20.1865 134.3315,18.5347 Q135.6514,16.8828 138.1582,16.8828 Q138.8638,16.8828 139.5112,17.0322 Q140.1587,17.1816 140.7231,17.4805 L140.7231,20.2031 Q140.0923,19.6221 139.4988,19.3523 Q138.9053,19.0825 138.2744,19.0825 Q136.9297,19.0825 136.2449,20.1492 Q135.5601,21.2158 135.5601,23.3159 Q135.5601,25.4077 136.2449,26.4744 Q136.9297,27.541 138.2744,27.541 Q138.9053,27.541 139.4988,27.2712 Q140.0923,27.0015 140.7231,26.4204 Z " fill="#000000"/><text fill="#000000" font-family="sans-serif" font-size="14" lengthAdjust="spacing" textLength="53" x="158.75" y="28.291">Camera</text><line style="stroke:#181818;stroke-width:0.5;" x1="8" x2="330" y1="39" y2="39"/><rect fill="none" height="6" style="stroke:#C82930;stroke-width:1.0;" width="6" x="15" y="49.7441"/><text fill="#000000" font-family="sans-serif" font-size="14" lengthAdjust="spacing" textLength="84" x="27" y="56.5352">_pitch : float</text><rect fill="none" height="6" style="stroke:#C82930;stroke-width:1.0;" width="6" x="15" y="66.2324"/><text fill="#000000" font-family="sans-serif" font-size="14" lengthAdjust="spacing" textLength="76" x="27" y="73.0234">_yaw : float</text><rect fill="none" height="6" style="stroke:#C82930;stroke-width:1.0;" width="6" x="15" y="82.7207"/><text fill="#000000" font-family="sans-serif" font-size="14" lengthAdjust="spacing" textLength="71" x="27" y="89.5117">_fov : float</text><rect fill="none" height="6" style="stroke:#C82930;stroke-width:1.0;" width="6" x="15" y="99.209"/><text fill="#000000" font-family="sans-serif" font-size="14" lengthAdjust="spacing" textLength="162" x="27" y="106">AspectRatio : float &#171;set&#187;</text><rect fill="none" height="6" style="stroke:#C82930;stroke-width:1.0;" width="6" x="15" y="115.6973"/><text fill="#000000" font-family="sans-serif" font-size="14" lengthAdjust="spacing" textLength="154" x="27" y="122.4883">Pitch : float &#171;get&#187; &#171;set&#187;</text><rect fill="none" height="6" style="stroke:#C82930;stroke-width:1.0;" width="6" x="15" y="132.1855"/><text fill="#000000" font-family="sans-serif" font-size="14" lengthAdjust="spacing" textLength="149" x="27" y="138.9766">Yaw : float &#171;get&#187; &#171;set&#187;</text><rect fill="none" height="6" style="stroke:#C82930;stroke-width:1.0;" width="6" x="15" y="148.6738"/><text fill="#000000" font-family="sans-serif" font-size="14" lengthAdjust="spacing" textLength="145" x="27" y="155.4648">Fov : float &#171;get&#187; &#171;set&#187;</text><line style="stroke:#181818;stroke-width:0.5;" x1="8" x2="330" y1="162.418" y2="162.418"/><rect fill="#F24D5C" height="6" style="stroke:#C82930;stroke-width:1.0;" width="6" x="15" y="173.1621"/><text fill="#000000" font-family="sans-serif" font-size="14" lengthAdjust="spacing" textLength="298" x="27" y="179.9531">Camera(position:Vector3, aspectRatio:float)</text><rect fill="#F24D5C" height="6" style="stroke:#C82930;stroke-width:1.0;" width="6" x="15" y="189.6504"/><text fill="#000000" font-family="sans-serif" font-size="14" lengthAdjust="spacing" textLength="174" x="27" y="196.4414">GetViewMatrix() : Matrix4</text><rect fill="#F24D5C" height="6" style="stroke:#C82930;stroke-width:1.0;" width="6" x="15" y="206.1387"/><text fill="#000000" font-family="sans-serif" font-size="14" lengthAdjust="spacing" textLength="211" x="27" y="212.9297">GetProjectionMatrix() : Matrix4</text></g><!--class Vector3--><g id="elem_Vector3"><rect fill="#F1F1F1" height="48" id="Vector3" rx="2.5" ry="2.5" style="stroke:#181818;stroke-width:0.5;" width="85" x="366.5" y="89.44"/><ellipse cx="381.5" cy="105.44" fill="#ADD1B2" rx="11" ry="11" style="stroke:#181818;stroke-width:1.0;"/><path d="M383.9731,111.5831 Q383.3921,111.8819 382.7529,112.0313 Q382.1138,112.1807 381.4082,112.1807 Q378.9014,112.1807 377.5815,110.5289 Q376.2617,108.877 376.2617,105.7559 Q376.2617,102.6265 377.5815,100.9747 Q378.9014,99.3228 381.4082,99.3228 Q382.1138,99.3228 382.7612,99.4722 Q383.4087,99.6216 383.9731,99.9205 L383.9731,102.6431 Q383.3423,102.0621 382.7488,101.7923 Q382.1553,101.5225 381.5244,101.5225 Q380.1797,101.5225 379.4949,102.5892 Q378.8101,103.6558 378.8101,105.7559 Q378.8101,107.8477 379.4949,108.9144 Q380.1797,109.981 381.5244,109.981 Q382.1553,109.981 382.7488,109.7112 Q383.3423,109.4415 383.9731,108.8604 Z " fill="#000000"/><text fill="#000000" font-family="sans-serif" font-size="14" lengthAdjust="spacing" textLength="53" x="395.5" y="110.731">Vector3</text><line style="stroke:#181818;stroke-width:0.5;" x1="367.5" x2="450.5" y1="121.44" y2="121.44"/><line style="stroke:#181818;stroke-width:0.5;" x1="367.5" x2="450.5" y1="129.44" y2="129.44"/></g><!--link Camera to Vector3--><g id="link_Camera_Vector3"><path codeLine="13" d="M342.0606,178.3176 C361.3106,169.3176 365.6701,163.6843 384.9201,142.3543 " fill="none" id="Camera-Vector3" style="stroke:#181818;stroke-width:1.0;"/><polygon fill="none" points="331.19,183.4,338.3194,184.4824,342.0606,178.3176,334.9312,177.2353,331.19,183.4" style="stroke:#181818;stroke-width:1.0;"/><polygon fill="#181818" points="388.94,137.9,379.9406,141.9015,385.5901,141.6119,385.8797,147.2613,388.94,137.9" style="stroke:#181818;stroke-width:1.0;"/><text fill="#000000" font-family="sans-serif" font-size="13" lengthAdjust="spacing" textLength="38" x="341.9074" y="157.895">_front</text></g><!--link Camera to Vector3--><g id="link_Camera_Vector3"><path codeLine="14" d="M342.6464,156.5092 C358.0464,151.7092 356.9683,151.1337 372.3683,141.0637 " fill="none" id="Camera-Vector3-1" style="stroke:#181818;stroke-width:1.0;"/><polygon fill="none" points="331.19,160.08,338.1085,162.1134,342.6464,156.5092,335.7279,154.4758,331.19,160.08" style="stroke:#181818;stroke-width:1.0;"/><polygon fill="#181818" points="377.39,137.78,367.6683,139.3577,373.2052,140.5164,372.0466,146.0533,377.39,137.78" style="stroke:#181818;stroke-width:1.0;"/><text fill="#000000" font-family="sans-serif" font-size="13" lengthAdjust="spacing" textLength="23" x="372.4882" y="158.1472">_up</text></g><!--link Camera to Vector3--><g id="link_Camera_Vector3"><path codeLine="15" d="M343.0462,134.9078 C354.6962,133.0878 348.7197,134.0144 360.3697,130.6944 " fill="none" id="Camera-Vector3-2" style="stroke:#181818;stroke-width:1.0;"/><polygon fill="none" points="331.19,136.76,337.7355,139.786,343.0462,134.9078,336.5007,131.8818,331.19,136.76" style="stroke:#181818;stroke-width:1.0;"/><polygon fill="#181818" points="366.14,129.05,356.3883,127.6698,361.3314,130.4203,358.5809,135.3634,366.14,129.05" style="stroke:#181818;stroke-width:1.0;"/><text fill="#000000" font-family="sans-serif" font-size="13" lengthAdjust="spacing" textLength="37" x="321.82" y="129.9579">_right</text></g><!--link Camera to Vector3--><g id="link_Camera_Vector3"><path codeLine="16" d="M331.19,113.44 C342.84,113.44 348.49,113.44 360.14,113.44 " fill="none" id="Camera-to-Vector3" style="stroke:#181818;stroke-width:1.0;"/><polygon fill="#181818" points="366.14,113.44,357.14,109.44,361.14,113.44,357.14,117.44,366.14,113.44" style="stroke:#181818;stroke-width:1.0;"/><text fill="#000000" font-family="sans-serif" font-size="13" lengthAdjust="spacing" textLength="51" x="307.7679" y="104.0061">Position</text></g><!--link Camera to Vector3--><g id="link_Camera_Vector3"><path codeLine="17" d="M331.19,90.12 C342.84,91.93 348.721,92.851 360.371,96.181 " fill="none" id="Camera-to-Vector3-1" style="stroke:#181818;stroke-width:1.0;"/><polygon fill="#181818" points="366.14,97.83,358.5859,91.5106,361.3325,96.4558,356.3872,99.2025,366.14,97.83" style="stroke:#181818;stroke-width:1.0;"/><text fill="#000000" font-family="sans-serif" font-size="13" lengthAdjust="spacing" textLength="33" x="325.3751" y="88.5699">Front</text></g><!--link Camera to Vector3--><g id="link_Camera_Vector3"><path codeLine="18" d="M331.19,66.8 C346.59,71.6 356.9668,75.7486 372.3668,85.8086 " fill="none" id="Camera-to-Vector3-2" style="stroke:#181818;stroke-width:1.0;"/><polygon fill="#181818" points="377.39,89.09,372.0428,80.8191,373.204,86.3555,367.6676,87.5167,377.39,89.09" style="stroke:#181818;stroke-width:1.0;"/><text fill="#000000" font-family="sans-serif" font-size="13" lengthAdjust="spacing" textLength="17" x="371.4681" y="78.5366">Up</text></g><!--link Camera to Vector3--><g id="link_Camera_Vector3"><path codeLine="19" d="M331.19,43.47 C350.44,52.48 365.6701,63.1957 384.9201,84.5257 " fill="none" id="Camera-to-Vector3-3" style="stroke:#181818;stroke-width:1.0;"/><polygon fill="#181818" points="388.94,88.98,385.8797,79.6187,385.5901,85.2681,379.9406,84.9785,388.94,88.98" style="stroke:#181818;stroke-width:1.0;"/><text fill="#000000" font-family="sans-serif" font-size="13" lengthAdjust="spacing" textLength="33" x="388.0723" y="78.796">Right</text></g><!--SRC=[TP312u8m5CRl_XKFJmfvgfE8486T0X4IEicGgGjpOrjPHFzxKoTBqvqUt-zxxtrxUOs4W0EwOOxWRO5w7cICoBm27ugQ8ZcABzJEfO8-Pj8moM5K44beuwSubvHlDu04KsM2bEht3Qxks1impe8W45Y6eNR4lsaKApisyrnCk1L7PBAkE8vOfWIt9oGvUJgkSW_bpl2OqwjAgtwsuFfO-exK2y7E2auRQOE-m9JTsGhWfAp-cxoEnVgcopHQtDQZCrlMayckBm00]--></g></svg>