<?xml version="1.0" encoding="us-ascii" standalone="no"?><svg xmlns="http://www.w3.org/2000/svg" xmlns:xlink="http://www.w3.org/1999/xlink" contentStyleType="text/css" height="127px" preserveAspectRatio="none" style="width:785px;height:127px;background:#FFFFFF;" version="1.1" viewBox="0 0 785 127" width="785px" zoomAndPan="magnify"><defs/><g><!--class Grafocena--><g id="elem_Grafocena"><rect codeLine="1" fill="#F1F1F1" height="106.0859" id="Grafocena" rx="2.5" ry="2.5" style="stroke:#181818;stroke-width:0.5;" width="764" x="7" y="7"/><ellipse cx="349.75" cy="27.3105" fill="#ADD1B2" rx="11" ry="11" style="stroke:#181818;stroke-width:1.0;"/><path d="M352.2231,33.4536 Q351.6421,33.7524 351.0029,33.9019 Q350.3638,34.0513 349.6582,34.0513 Q347.1514,34.0513 345.8315,32.3994 Q344.5117,30.7476 344.5117,27.6265 Q344.5117,24.4971 345.8315,22.8452 Q347.1514,21.1934 349.6582,21.1934 Q350.3638,21.1934 351.0112,21.3428 Q351.6587,21.4922 352.2231,21.791 L352.2231,24.5137 Q351.5923,23.9326 350.9988,23.6628 Q350.4053,23.3931 349.7744,23.3931 Q348.4297,23.3931 347.7449,24.4597 Q347.0601,25.5264 347.0601,27.6265 Q347.0601,29.7183 347.7449,30.7849 Q348.4297,31.8516 349.7744,31.8516 Q350.4053,31.8516 350.9988,31.5818 Q351.5923,31.312 352.2231,30.731 Z " fill="#000000"/><text fill="#000000" font-family="sans-serif" font-size="12" font-style="italic" lengthAdjust="spacing" textLength="42" x="384.25" y="23.6016">&#171;static&#187;</text><text fill="#000000" font-family="sans-serif" font-size="14" lengthAdjust="spacing" textLength="70" x="370.25" y="39.668">Grafocena</text><line style="stroke:#181818;stroke-width:0.5;" x1="8" x2="770" y1="47.6211" y2="47.6211"/><line style="stroke:#181818;stroke-width:0.5;" x1="8" x2="770" y1="55.6211" y2="55.6211"/><ellipse cx="18" cy="69.3652" fill="#84BE84" rx="3" ry="3" style="stroke:#038048;stroke-width:1.0;"/><text fill="#000000" font-family="sans-serif" font-size="14" lengthAdjust="spacing" text-decoration="underline" textLength="537" x="27" y="73.1563">GrafocenaAtualizar(mundo:Objeto, grafoLista:Dictionary&lt;char, Objeto&gt;) : void</text><ellipse cx="18" cy="85.8535" fill="#84BE84" rx="3" ry="3" style="stroke:#038048;stroke-width:1.0;"/><text fill="#000000" font-family="sans-serif" font-size="14" lengthAdjust="spacing" text-decoration="underline" textLength="738" x="27" y="89.6445">GrafoCenaProximo(mundo:Objeto, objetoSelecionado:Objeto, grafoLista:Dictionary&lt;char, Objeto&gt;) : Objeto</text><ellipse cx="18" cy="102.3418" fill="#84BE84" rx="3" ry="3" style="stroke:#038048;stroke-width:1.0;"/><text fill="#000000" font-family="sans-serif" font-size="14" lengthAdjust="spacing" text-decoration="underline" textLength="537" x="27" y="106.1328">GrafoCenaImprimir(mundo:Objeto, grafoLista:Dictionary&lt;char, Objeto&gt;) : void</text></g><!--SRC=[Iyv9B2vMS2zAJCjFJirBLB2nAIv9BCbCjhDJgEPI009jXMg8I2r2bMD9QM9EPbLYaKPkQLvAlfL_KbPgIRwEGZf8WKycKBsLIsPoIMP-Nc9HfKroHcAHZW94ZPscWfL2MNvc2bQpdO5c1nJbLsJcvgEPd0-cWrDpKfD1ff9k9uI9qrRFt8AYpDnCIZnK2m00]--></g></svg>