<?xml version="1.0" encoding="us-ascii" standalone="no"?><svg xmlns="http://www.w3.org/2000/svg" xmlns:xlink="http://www.w3.org/1999/xlink" contentStyleType="text/css" height="684px" preserveAspectRatio="none" style="width:1208px;height:684px;background:#FFFFFF;" version="1.1" viewBox="0 0 1208 684" width="1208px" zoomAndPan="magnify"><defs/><g><!--class Objeto--><g id="elem_Objeto"><rect codeLine="1" fill="#F1F1F1" height="592.1133" id="Objeto" rx="2.5" ry="2.5" style="stroke:#181818;stroke-width:0.5;" width="562" x="7" y="85.11"/><ellipse cx="260.75" cy="101.11" fill="#ADD1B2" rx="11" ry="11" style="stroke:#181818;stroke-width:1.0;"/><path d="M263.2231,107.2531 Q262.6421,107.5519 262.0029,107.7013 Q261.3638,107.8507 260.6582,107.8507 Q258.1514,107.8507 256.8315,106.1989 Q255.5117,104.547 255.5117,101.4259 Q255.5117,98.2965 256.8315,96.6447 Q258.1514,94.9928 260.6582,94.9928 Q261.3638,94.9928 262.0112,95.1422 Q262.6587,95.2916 263.2231,95.5905 L263.2231,98.3131 Q262.5923,97.7321 261.9988,97.4623 Q261.4053,97.1925 260.7744,97.1925 Q259.4297,97.1925 258.7449,98.2592 Q258.0601,99.3258 258.0601,101.4259 Q258.0601,103.5177 258.7449,104.5844 Q259.4297,105.651 260.7744,105.651 Q261.4053,105.651 261.9988,105.3812 Q262.5923,105.1115 263.2231,104.5304 Z " fill="#000000"/><text fill="#000000" font-family="sans-serif" font-size="14" lengthAdjust="spacing" textLength="46" x="281.25" y="106.401">Objeto</text><line style="stroke:#181818;stroke-width:0.5;" x1="8" x2="568" y1="117.11" y2="117.11"/><rect fill="none" height="6" style="stroke:#C82930;stroke-width:1.0;" width="6" x="15" y="127.8541"/><text fill="#000000" font-family="sans-serif" font-size="14" lengthAdjust="spacing" textLength="162" x="27" y="134.6452">&#171;readonly&#187; rotulo : char</text><ellipse cx="18" cy="147.3424" fill="none" rx="3" ry="3" style="stroke:#038048;stroke-width:1.0;"/><text fill="#000000" font-family="sans-serif" font-size="14" lengthAdjust="spacing" textLength="127" x="27" y="151.1334">Rotulo : char &#171;get&#187;</text><rect fill="none" height="6" style="stroke:#C82930;stroke-width:1.0;" width="6" x="15" y="160.8307"/><text fill="#000000" font-family="sans-serif" font-size="14" lengthAdjust="spacing" textLength="196" x="27" y="167.6217">primitivaTamanho : float = 1</text><ellipse cx="18" cy="180.319" fill="none" rx="3" ry="3" style="stroke:#038048;stroke-width:1.0;"/><text fill="#000000" font-family="sans-serif" font-size="14" lengthAdjust="spacing" textLength="245" x="27" y="184.11">PrimitivaTamanho : float &#171;get&#187; &#171;set&#187;</text><ellipse cx="18" cy="196.8073" fill="none" rx="3" ry="3" style="stroke:#038048;stroke-width:1.0;"/><text fill="#000000" font-family="sans-serif" font-size="14" lengthAdjust="spacing" textLength="213" x="27" y="200.5983">PontosListaTamanho : int &#171;get&#187;</text><rect fill="none" height="6" style="stroke:#C82930;stroke-width:1.0;" width="6" x="15" y="210.2955"/><text fill="#000000" font-family="sans-serif" font-size="14" lengthAdjust="spacing" textLength="165" x="27" y="217.0866">_vertexBufferObject : int</text><rect fill="none" height="6" style="stroke:#C82930;stroke-width:1.0;" width="6" x="15" y="226.7838"/><text fill="#000000" font-family="sans-serif" font-size="14" lengthAdjust="spacing" textLength="161" x="27" y="233.5748">_vertexArrayObject : int</text><line style="stroke:#181818;stroke-width:0.5;" x1="8" x2="568" y1="240.528" y2="240.528"/><ellipse cx="18" cy="254.2721" fill="#84BE84" rx="3" ry="3" style="stroke:#038048;stroke-width:1.0;"/><text fill="#000000" font-family="sans-serif" font-size="14" lengthAdjust="spacing" textLength="91" x="27" y="258.0631">Bbox() : BBox</text><ellipse cx="18" cy="270.7604" fill="#84BE84" rx="3" ry="3" style="stroke:#038048;stroke-width:1.0;"/><text fill="#000000" font-family="sans-serif" font-size="14" lengthAdjust="spacing" textLength="383" x="27" y="274.5514">Objeto(_paiRef:Objeto, _rotulo:char, objetoFilho:Objeto)</text><ellipse cx="18" cy="287.2487" fill="#84BE84" rx="3" ry="3" style="stroke:#038048;stroke-width:1.0;"/><text fill="#000000" font-family="sans-serif" font-size="14" lengthAdjust="spacing" textLength="157" x="27" y="291.0397">ObjetoRemover() : void</text><ellipse cx="18" cy="303.737" fill="#84BE84" rx="3" ry="3" style="stroke:#038048;stroke-width:1.0;"/><text fill="#000000" font-family="sans-serif" font-size="14" lengthAdjust="spacing" textLength="159" x="27" y="307.528">ObjetoAtualizar() : void</text><ellipse cx="18" cy="320.2252" fill="#84BE84" rx="3" ry="3" style="stroke:#038048;stroke-width:1.0;"/><text fill="#000000" font-family="sans-serif" font-size="14" lengthAdjust="spacing" textLength="513" x="27" y="324.0163">ObjetoMatrizGlobal(matrizGlobalPai:Transformacao4D) : Transformacao4D</text><ellipse cx="18" cy="336.7135" fill="#84BE84" rx="3" ry="3" style="stroke:#038048;stroke-width:1.0;"/><text fill="#000000" font-family="sans-serif" font-size="14" lengthAdjust="spacing" textLength="510" x="27" y="340.5045">Desenhar(matrizGrafo:Transformacao4D, objetoSelecionado:Objeto) : void</text><ellipse cx="18" cy="353.2018" fill="#84BE84" rx="3" ry="3" style="stroke:#038048;stroke-width:1.0;"/><text fill="#000000" font-family="sans-serif" font-size="14" lengthAdjust="spacing" textLength="232" x="27" y="356.9928">FilhoAdicionar(filho:Objeto) : void</text><ellipse cx="18" cy="369.6901" fill="#84BE84" rx="3" ry="3" style="stroke:#038048;stroke-width:1.0;"/><text fill="#000000" font-family="sans-serif" font-size="14" lengthAdjust="spacing" textLength="176" x="27" y="373.4811">PontosId(id:int) : Ponto4D</text><ellipse cx="18" cy="386.1784" fill="#84BE84" rx="3" ry="3" style="stroke:#038048;stroke-width:1.0;"/><text fill="#000000" font-family="sans-serif" font-size="14" lengthAdjust="spacing" textLength="250" x="27" y="389.9694">PontosAdicionar(pto:Ponto4D) : void</text><ellipse cx="18" cy="402.6666" fill="#84BE84" rx="3" ry="3" style="stroke:#038048;stroke-width:1.0;"/><text fill="#000000" font-family="sans-serif" font-size="14" lengthAdjust="spacing" textLength="314" x="27" y="406.4577">PontosAlterar(pto:Ponto4D, posicao:int) : void</text><ellipse cx="18" cy="419.1549" fill="#84BE84" rx="3" ry="3" style="stroke:#038048;stroke-width:1.0;"/><text fill="#000000" font-family="sans-serif" font-size="14" lengthAdjust="spacing" textLength="148" x="27" y="422.9459">PontosApagar() : void</text><ellipse cx="18" cy="435.6432" fill="#84BE84" rx="3" ry="3" style="stroke:#038048;stroke-width:1.0;"/><text fill="#000000" font-family="sans-serif" font-size="14" lengthAdjust="spacing" textLength="348" x="27" y="439.4342">MatrizGlobalInversa(mousePto:Ponto4D) : Ponto4D</text><ellipse cx="18" cy="452.1315" fill="#84BE84" rx="3" ry="3" style="stroke:#038048;stroke-width:1.0;"/><text fill="#000000" font-family="sans-serif" font-size="14" lengthAdjust="spacing" textLength="378" x="27" y="455.9225">PontoMaisPerto(mousePto:Ponto4D, remover:bool) : int</text><ellipse cx="18" cy="468.6198" fill="#84BE84" rx="3" ry="3" style="stroke:#038048;stroke-width:1.0;"/><text fill="#000000" font-family="sans-serif" font-size="14" lengthAdjust="spacing" textLength="260" x="27" y="472.4108">GrafocenaBusca(_rotulo:char) : Objeto</text><ellipse cx="18" cy="485.108" fill="#84BE84" rx="3" ry="3" style="stroke:#038048;stroke-width:1.0;"/><text fill="#000000" font-family="sans-serif" font-size="14" lengthAdjust="spacing" textLength="536" x="27" y="488.8991">GrafocenaAtualizar(lista:Dictionary&lt;char, Objeto&gt;) : Dictionary&lt;char, Objeto&gt;</text><ellipse cx="18" cy="501.5963" fill="#84BE84" rx="3" ry="3" style="stroke:#038048;stroke-width:1.0;"/><text fill="#000000" font-family="sans-serif" font-size="14" lengthAdjust="spacing" textLength="242" x="27" y="505.3873">GrafocenaImprimir(idt:string) : void</text><ellipse cx="18" cy="518.0846" fill="#84BE84" rx="3" ry="3" style="stroke:#038048;stroke-width:1.0;"/><text fill="#000000" font-family="sans-serif" font-size="14" lengthAdjust="spacing" textLength="153" x="27" y="521.8756">MatrizImprimir() : void</text><ellipse cx="18" cy="534.5729" fill="#84BE84" rx="3" ry="3" style="stroke:#038048;stroke-width:1.0;"/><text fill="#000000" font-family="sans-serif" font-size="14" lengthAdjust="spacing" textLength="220" x="27" y="538.3639">MatrizAtribuirIdentidade() : void</text><ellipse cx="18" cy="551.0612" fill="#84BE84" rx="3" ry="3" style="stroke:#038048;stroke-width:1.0;"/><text fill="#000000" font-family="sans-serif" font-size="14" lengthAdjust="spacing" textLength="406" x="27" y="554.8522">MatrizTranslacaoXYZ(tx:double, ty:double, tz:double) : void</text><ellipse cx="18" cy="567.5495" fill="#84BE84" rx="3" ry="3" style="stroke:#038048;stroke-width:1.0;"/><text fill="#000000" font-family="sans-serif" font-size="14" lengthAdjust="spacing" textLength="382" x="27" y="571.3405">MatrizEscalaXYZ(Sx:double, Sy:double, Sz:double) : void</text><ellipse cx="18" cy="584.0377" fill="#84BE84" rx="3" ry="3" style="stroke:#038048;stroke-width:1.0;"/><text fill="#000000" font-family="sans-serif" font-size="14" lengthAdjust="spacing" textLength="416" x="27" y="587.8288">MatrizEscalaXYZBBox(Sx:double, Sy:double, Sz:double) : void</text><ellipse cx="18" cy="600.526" fill="#84BE84" rx="3" ry="3" style="stroke:#038048;stroke-width:1.0;"/><text fill="#000000" font-family="sans-serif" font-size="14" lengthAdjust="spacing" textLength="279" x="27" y="604.317">MatrizRotacaoEixo(angulo:double) : void</text><ellipse cx="18" cy="617.0143" fill="#84BE84" rx="3" ry="3" style="stroke:#038048;stroke-width:1.0;"/><text fill="#000000" font-family="sans-serif" font-size="14" lengthAdjust="spacing" textLength="249" x="27" y="620.8053">MatrizRotacao(angulo:double) : void</text><ellipse cx="18" cy="633.5026" fill="#84BE84" rx="3" ry="3" style="stroke:#038048;stroke-width:1.0;"/><text fill="#000000" font-family="sans-serif" font-size="14" lengthAdjust="spacing" textLength="291" x="27" y="637.2936">MatrizRotacaoZBBox(angulo:double) : void</text><ellipse cx="18" cy="649.9909" fill="#84BE84" rx="3" ry="3" style="stroke:#038048;stroke-width:1.0;"/><text fill="#000000" font-family="sans-serif" font-size="14" lengthAdjust="spacing" textLength="120" x="27" y="653.7819">OnUnload() : void</text><ellipse cx="18" cy="666.4791" fill="#84BE84" rx="3" ry="3" style="stroke:#038048;stroke-width:1.0;"/><text fill="#000000" font-family="sans-serif" font-size="14" lengthAdjust="spacing" textLength="428" x="27" y="670.2702">ScanLine(ptoClique:Ponto4D, objetoSelecionado:Objeto) : bool</text></g><!--class List`1--><g id="elem_List`1"><rect codeLine="36" fill="#F1F1F1" height="48" id="List`1" rx="2.5" ry="2.5" style="stroke:#181818;stroke-width:0.5;" width="85" x="997.5" y="357.16"/><ellipse cx="1012.5" cy="373.16" fill="#ADD1B2" rx="11" ry="11" style="stroke:#181818;stroke-width:1.0;"/><path d="M1014.9731,379.3031 Q1014.3921,379.6019 1013.7529,379.7513 Q1013.1138,379.9007 1012.4082,379.9007 Q1009.9014,379.9007 1008.5815,378.2489 Q1007.2617,376.597 1007.2617,373.4759 Q1007.2617,370.3465 1008.5815,368.6947 Q1009.9014,367.0428 1012.4082,367.0428 Q1013.1138,367.0428 1013.7612,367.1922 Q1014.4087,367.3416 1014.9731,367.6405 L1014.9731,370.3631 Q1014.3423,369.7821 1013.7488,369.5123 Q1013.1553,369.2425 1012.5244,369.2425 Q1011.1797,369.2425 1010.4949,370.3092 Q1009.8101,371.3758 1009.8101,373.4759 Q1009.8101,375.5677 1010.4949,376.6344 Q1011.1797,377.701 1012.5244,377.701 Q1013.1553,377.701 1013.7488,377.4312 Q1014.3423,377.1615 1014.9731,376.5804 Z " fill="#000000"/><text fill="#000000" font-family="sans-serif" font-size="14" lengthAdjust="spacing" textLength="41" x="1026.5" y="378.451">List`1</text><rect fill="#FFFFFF" height="16.1328" style="stroke:#181818;stroke-width:1.0;stroke-dasharray:2.0,2.0;" width="10" x="1075.5" y="354.16"/><text fill="#000000" font-family="sans-serif" font-size="12" font-style="italic" lengthAdjust="spacing" textLength="8" x="1076.5" y="366.7616">T</text><line style="stroke:#181818;stroke-width:0.5;" x1="998.5" x2="1081.5" y1="389.16" y2="389.16"/><line style="stroke:#181818;stroke-width:0.5;" x1="998.5" x2="1081.5" y1="397.16" y2="397.16"/></g><!--class PrimitiveType--><g id="elem_PrimitiveType"><rect fill="#F1F1F1" height="48" id="PrimitiveType" rx="2.5" ry="2.5" style="stroke:#181818;stroke-width:0.5;" width="124" x="838" y="357.16"/><ellipse cx="853" cy="373.16" fill="#ADD1B2" rx="11" ry="11" style="stroke:#181818;stroke-width:1.0;"/><path d="M855.4731,379.3031 Q854.8921,379.6019 854.2529,379.7513 Q853.6138,379.9007 852.9082,379.9007 Q850.4014,379.9007 849.0815,378.2489 Q847.7617,376.597 847.7617,373.4759 Q847.7617,370.3465 849.0815,368.6947 Q850.4014,367.0428 852.9082,367.0428 Q853.6138,367.0428 854.2612,367.1922 Q854.9087,367.3416 855.4731,367.6405 L855.4731,370.3631 Q854.8423,369.7821 854.2488,369.5123 Q853.6553,369.2425 853.0244,369.2425 Q851.6797,369.2425 850.9949,370.3092 Q850.3101,371.3758 850.3101,373.4759 Q850.3101,375.5677 850.9949,376.6344 Q851.6797,377.701 853.0244,377.701 Q853.6553,377.701 854.2488,377.4312 Q854.8423,377.1615 855.4731,376.5804 Z " fill="#000000"/><text fill="#000000" font-family="sans-serif" font-size="14" lengthAdjust="spacing" textLength="92" x="867" y="378.451">PrimitiveType</text><line style="stroke:#181818;stroke-width:0.5;" x1="839" x2="961" y1="389.16" y2="389.16"/><line style="stroke:#181818;stroke-width:0.5;" x1="839" x2="961" y1="397.16" y2="397.16"/></g><!--class Shader--><g id="elem_Shader"><rect fill="#F1F1F1" height="48" id="Shader" rx="2.5" ry="2.5" style="stroke:#181818;stroke-width:0.5;" width="80" x="723" y="357.16"/><ellipse cx="738" cy="373.16" fill="#ADD1B2" rx="11" ry="11" style="stroke:#181818;stroke-width:1.0;"/><path d="M740.4731,379.3031 Q739.8921,379.6019 739.2529,379.7513 Q738.6138,379.9007 737.9082,379.9007 Q735.4014,379.9007 734.0815,378.2489 Q732.7617,376.597 732.7617,373.4759 Q732.7617,370.3465 734.0815,368.6947 Q735.4014,367.0428 737.9082,367.0428 Q738.6138,367.0428 739.2612,367.1922 Q739.9087,367.3416 740.4731,367.6405 L740.4731,370.3631 Q739.8423,369.7821 739.2488,369.5123 Q738.6553,369.2425 738.0244,369.2425 Q736.6797,369.2425 735.9949,370.3092 Q735.3101,371.3758 735.3101,373.4759 Q735.3101,375.5677 735.9949,376.6344 Q736.6797,377.701 738.0244,377.701 Q738.6553,377.701 739.2488,377.4312 Q739.8423,377.1615 740.4731,376.5804 Z " fill="#000000"/><text fill="#000000" font-family="sans-serif" font-size="14" lengthAdjust="spacing" textLength="48" x="752" y="378.451">Shader</text><line style="stroke:#181818;stroke-width:0.5;" x1="724" x2="802" y1="389.16" y2="389.16"/><line style="stroke:#181818;stroke-width:0.5;" x1="724" x2="802" y1="397.16" y2="397.16"/></g><!--class BBox--><g id="elem_BBox"><rect fill="#F1F1F1" height="48" id="BBox" rx="2.5" ry="2.5" style="stroke:#181818;stroke-width:0.5;" width="66" x="622" y="357.16"/><ellipse cx="637" cy="373.16" fill="#ADD1B2" rx="11" ry="11" style="stroke:#181818;stroke-width:1.0;"/><path d="M639.4731,379.3031 Q638.8921,379.6019 638.2529,379.7513 Q637.6138,379.9007 636.9082,379.9007 Q634.4014,379.9007 633.0815,378.2489 Q631.7617,376.597 631.7617,373.4759 Q631.7617,370.3465 633.0815,368.6947 Q634.4014,367.0428 636.9082,367.0428 Q637.6138,367.0428 638.2612,367.1922 Q638.9087,367.3416 639.4731,367.6405 L639.4731,370.3631 Q638.8423,369.7821 638.2488,369.5123 Q637.6553,369.2425 637.0244,369.2425 Q635.6797,369.2425 634.9949,370.3092 Q634.3101,371.3758 634.3101,373.4759 Q634.3101,375.5677 634.9949,376.6344 Q635.6797,377.701 637.0244,377.701 Q637.6553,377.701 638.2488,377.4312 Q638.8423,377.1615 639.4731,376.5804 Z " fill="#000000"/><text fill="#000000" font-family="sans-serif" font-size="14" lengthAdjust="spacing" textLength="34" x="651" y="378.451">BBox</text><line style="stroke:#181818;stroke-width:0.5;" x1="623" x2="687" y1="389.16" y2="389.16"/><line style="stroke:#181818;stroke-width:0.5;" x1="623" x2="687" y1="397.16" y2="397.16"/></g><!--link Objeto to Objeto--><g id="link_Objeto_Objeto"><path codeLine="38" d="M569.44,297.9 C590.83,316.4 604,344.16 604,381.16 C604,418.17 595.3681,442.005 573.9781,460.505 " fill="none" id="Objeto-to-Objeto" style="stroke:#181818;stroke-width:1.0;"/><polygon fill="#181818" points="569.44,464.43,578.8638,461.5679,573.2218,461.1592,573.6305,455.5171,569.44,464.43" style="stroke:#181818;stroke-width:1.0;"/><text fill="#000000" font-family="sans-serif" font-size="13" lengthAdjust="spacing" textLength="39" x="577.4337" y="464.0149">paiRef</text></g><!--link Objeto to List`1--><g id="link_Objeto_List`1"><path codeLine="39" d="M579.9232,81.5545 C594.9532,73.1145 599.91,71.47 615.67,65.11 C651.9,50.48 933.45,45.65 967.33,65.11 C1068.15,123.01 1054.4759,287.2143 1045.0859,350.8443 " fill="none" id="Objeto-List`1" style="stroke:#181818;stroke-width:1.0;"/><polygon fill="none" points="569.46,87.43,576.6501,87.98,579.9232,81.5545,572.7331,81.0045,569.46,87.43" style="stroke:#181818;stroke-width:1.0;"/><polygon fill="#181818" points="1044.21,356.78,1049.4811,348.4604,1044.94,351.8336,1041.5668,347.2925,1044.21,356.78" style="stroke:#181818;stroke-width:1.0;"/><text fill="#000000" font-family="sans-serif" font-size="13" lengthAdjust="spacing" textLength="139" x="1062.1768" y="346.6155">objetosLista&lt;Objeto&gt;</text></g><!--link Objeto to List`1--><g id="link_Objeto_List`1"><path codeLine="44" d="M563.4969,78.0475 C587.0869,62.5375 601.74,55.63 627.33,45.11 C661.07,31.23 924.03,26.94 955.67,45.11 C1064.16,107.42 1052.7804,284.3671 1044.4104,350.7671 " fill="none" id="Objeto-List`1-1" style="stroke:#181818;stroke-width:1.0;"/><polygon fill="none" points="553.47,84.64,560.681,84.686,563.4969,78.0475,556.2859,78.0014,553.47,84.64" style="stroke:#181818;stroke-width:1.0;"/><polygon fill="#181818" points="1043.66,356.72,1048.7542,348.2909,1044.2853,351.7593,1040.817,347.2904,1043.66,356.72" style="stroke:#181818;stroke-width:1.0;"/><text fill="#000000" font-family="sans-serif" font-size="13" lengthAdjust="spacing" textLength="148" x="878.5967" y="346.4791">pontosLista&lt;Ponto4D&gt;</text></g><!--link Objeto to PrimitiveType--><g id="link_Objeto_PrimitiveType"><path codeLine="40" d="M579.9232,81.5545 C594.9532,73.1145 599.91,71.47 615.67,65.11 C655.37,49.08 771.21,43.78 808.33,65.11 C910.64,123.87 908.0137,287.4987 902.9937,350.8887 " fill="none" id="Objeto-PrimitiveType" style="stroke:#181818;stroke-width:1.0;"/><polygon fill="none" points="569.46,87.43,576.6501,87.98,579.9232,81.5545,572.7331,81.0045,569.46,87.43" style="stroke:#181818;stroke-width:1.0;"/><polygon fill="#181818" points="902.52,356.87,907.218,348.2139,902.9147,351.8856,899.243,347.5823,902.52,356.87" style="stroke:#181818;stroke-width:1.0;"/><text fill="#000000" font-family="sans-serif" font-size="13" lengthAdjust="spacing" textLength="84" x="808.4033" y="346.332">primitivaTipo</text></g><!--link Objeto to PrimitiveType--><g id="link_Objeto_PrimitiveType"><path codeLine="41" d="M553.47,84.64 C577.06,69.13 601.74,55.63 627.33,45.11 C662.13,30.79 764.04,26.36 796.67,45.11 C906.76,108.34 906.5403,284.6814 902.4503,350.8314 " fill="none" id="Objeto-to-PrimitiveType" style="stroke:#181818;stroke-width:1.0;"/><polygon fill="#181818" points="902.08,356.82,906.6278,348.084,902.3886,351.8295,898.643,347.5903,902.08,356.82" style="stroke:#181818;stroke-width:1.0;"/><text fill="#000000" font-family="sans-serif" font-size="13" lengthAdjust="spacing" textLength="83" x="962.0025" y="346.4469">PrimitivaTipo</text></g><!--link Objeto to Shader--><g id="link_Objeto_Shader"><path codeLine="42" d="M526.6311,77.9009 C582.6311,39.3109 633.98,30.44 694.33,65.11 C794.88,122.86 778.8609,287.1674 768.5309,350.8374 " fill="none" id="Objeto-Shader" style="stroke:#181818;stroke-width:1.0;"/><polygon fill="none" points="516.75,84.71,523.9603,84.5991,526.6311,77.9009,519.4208,78.0117,516.75,84.71" style="stroke:#181818;stroke-width:1.0;"/><polygon fill="#181818" points="767.57,356.76,772.9597,348.5168,768.3707,351.8245,765.063,347.2356,767.57,356.76" style="stroke:#181818;stroke-width:1.0;"/><text fill="#000000" font-family="sans-serif" font-size="13" lengthAdjust="spacing" textLength="91" x="666.8609" y="346.4055">_shaderObjeto</text></g><!--link Objeto to Shader--><g id="link_Objeto_Shader"><path codeLine="43" d="M487.63,84.63 C547.06,32.59 614.58,6 682.67,45.11 C790.86,107.25 777.0991,284.3176 767.8291,350.7576 " fill="none" id="Objeto-to-Shader" style="stroke:#181818;stroke-width:1.0;"/><polygon fill="#181818" points="767,356.7,772.2053,348.3391,767.6909,351.748,764.282,347.2336,767,356.7" style="stroke:#181818;stroke-width:1.0;"/><text fill="#000000" font-family="sans-serif" font-size="13" lengthAdjust="spacing" textLength="84" x="769.0408" y="346.2433">ShaderObjeto</text></g><!--link Objeto to BBox--><g id="link_Objeto_BBox"><path codeLine="45" d="M581.34,381.16 C598.74,381.16 598.14,381.16 615.54,381.16 " fill="none" id="Objeto-BBox" style="stroke:#181818;stroke-width:1.0;"/><polygon fill="none" points="569.34,381.16,575.34,385.16,581.34,381.16,575.34,377.16,569.34,381.16" style="stroke:#181818;stroke-width:1.0;"/><polygon fill="#181818" points="621.54,381.16,612.54,377.16,616.54,381.16,612.54,385.16,621.54,381.16" style="stroke:#181818;stroke-width:1.0;"/><text fill="#000000" font-family="sans-serif" font-size="13" lengthAdjust="spacing" textLength="31" x="583.043" y="377.6037">bBox</text></g><!--SRC=[dLLDZzem4BtpAwoSibeuhDHJH2D1sLP8krgqeLBR2vqa3hXoFAdjh62h_U_rHo040bsLGqXctZpFZ9_76GUbo5FwYseaVmR4_4PaF9OKSXHy5yT4eguvaeXa6v0ES4kUZsq6lgOwZflWIhAIQVO2IoX1R2ogu0YQV2HtJVZY4gHXCl_gm6ZWA3Ig1wRqKG0J-cJXrGkLccwdTL5GQIlAjCTr_HCfONVclYNJ5BVXZJ5DfxXjRBuluQe2zaoBo7yEoSht9BBL3mawwsV6DzWWRZhXpxH4ixJZVa6MTvmJNGDdht31_GXQijSl75FWONdqiG0MBIK8LQ0i8GFyCBC49wQ6QqOL5IRNFOE40a-ZztKabDECeJ3xlw-ccvWhT98p1v9XSLnt5-dtRPw7B8zCdwtNcGvvUK3BLMcC6aGlrOHhAhku8QbGCLF1VeNpe0hMv-qzRknScErH49POAxhevj2Jy2CmjJ1ImhE08P5-hwCKaTzqvEMQdb41qrfb41vBo09z0q-nhJguLNyqOvbshTgDlVPyM6mPBlbEEUUbEw7Ix8gEbEc2MFVsve3hzKxC8wsPdETKQ9P3JljnJcNSIkpRzn-XtaOvrYcdGw9txUjhyzhBS6_QnS569srqqaOdxuksf_g_6Coii-dVios68DPsq_wDVZ_I9tOD_YI-2ZCTyzC69nc81oQeFGwVEFjTqrQ7ryworURWRP2voH_OiVhpBXWlOpF-tmRDJJ0QnIJmKo_OQxDneNLvVZ-JnutGWWDP1zhU1wp2u33xwN9NqSvoYtS07UDAROpUf3S5975V7Qha2i0drLufuwPfb_9FpVu4xbBu2m00]--></g></svg>