<?xml version="1.0" encoding="us-ascii" standalone="no"?><svg xmlns="http://www.w3.org/2000/svg" xmlns:xlink="http://www.w3.org/1999/xlink" contentStyleType="text/css" height="310px" preserveAspectRatio="none" style="width:1180px;height:310px;background:#FFFFFF;" version="1.1" viewBox="0 0 1180 310" width="1180px" zoomAndPan="magnify"><defs/><g><!--class SrPalito--><g id="elem_SrPalito"><rect codeLine="1" fill="#F1F1F1" height="179.9063" id="SrPalito" rx="2.5" ry="2.5" style="stroke:#181818;stroke-width:0.5;" width="309" x="7" y="123.62"/><ellipse cx="131.25" cy="139.62" fill="#ADD1B2" rx="11" ry="11" style="stroke:#181818;stroke-width:1.0;"/><path d="M133.7231,145.7631 Q133.1421,146.0619 132.5029,146.2113 Q131.8638,146.3607 131.1582,146.3607 Q128.6514,146.3607 127.3315,144.7089 Q126.0117,143.057 126.0117,139.9359 Q126.0117,136.8065 127.3315,135.1547 Q128.6514,133.5028 131.1582,133.5028 Q131.8638,133.5028 132.5112,133.6522 Q133.1587,133.8016 133.7231,134.1005 L133.7231,136.8231 Q133.0923,136.2421 132.4988,135.9723 Q131.9053,135.7025 131.2744,135.7025 Q129.9297,135.7025 129.2449,136.7692 Q128.5601,137.8358 128.5601,139.9359 Q128.5601,142.0277 129.2449,143.0944 Q129.9297,144.161 131.2744,144.161 Q131.9053,144.161 132.4988,143.8912 Q133.0923,143.6215 133.7231,143.0404 Z " fill="#000000"/><text fill="#000000" font-family="sans-serif" font-size="14" lengthAdjust="spacing" textLength="52" x="151.75" y="144.911">SrPalito</text><line style="stroke:#181818;stroke-width:0.5;" x1="8" x2="315" y1="155.62" y2="155.62"/><rect fill="none" height="6" style="stroke:#C82930;stroke-width:1.0;" width="6" x="15" y="166.3641"/><text fill="#000000" font-family="sans-serif" font-size="14" lengthAdjust="spacing" textLength="145" x="27" y="173.1552">angulo : double = 45</text><rect fill="none" height="6" style="stroke:#C82930;stroke-width:1.0;" width="6" x="15" y="182.8524"/><text fill="#000000" font-family="sans-serif" font-size="14" lengthAdjust="spacing" textLength="128" x="27" y="189.6434">raio : double = 0.5</text><line style="stroke:#181818;stroke-width:0.5;" x1="8" x2="315" y1="196.5966" y2="196.5966"/><ellipse cx="18" cy="210.3407" fill="#84BE84" rx="3" ry="3" style="stroke:#038048;stroke-width:1.0;"/><text fill="#000000" font-family="sans-serif" font-size="14" lengthAdjust="spacing" textLength="253" x="27" y="214.1317">SrPalito(_paiRef:Objeto, _rotulo:char)</text><ellipse cx="18" cy="226.829" fill="#84BE84" rx="3" ry="3" style="stroke:#038048;stroke-width:1.0;"/><text fill="#000000" font-family="sans-serif" font-size="14" lengthAdjust="spacing" textLength="113" x="27" y="230.62">Atualizar() : void</text><ellipse cx="18" cy="243.3173" fill="#84BE84" rx="3" ry="3" style="stroke:#038048;stroke-width:1.0;"/><text fill="#000000" font-family="sans-serif" font-size="14" lengthAdjust="spacing" textLength="218" x="27" y="247.1083">AtualizarPe(peInc:double) : void</text><ellipse cx="18" cy="259.8055" fill="#84BE84" rx="3" ry="3" style="stroke:#038048;stroke-width:1.0;"/><text fill="#000000" font-family="sans-serif" font-size="14" lengthAdjust="spacing" textLength="242" x="27" y="263.5966">AtualizarRaio(raioInc:double) : void</text><ellipse cx="18" cy="276.2938" fill="#84BE84" rx="3" ry="3" style="stroke:#038048;stroke-width:1.0;"/><text fill="#000000" font-family="sans-serif" font-size="14" lengthAdjust="spacing" textLength="283" x="27" y="280.0848">AtualizarAngulo(anguloInc:double) : void</text><ellipse cx="18" cy="292.7821" fill="#84BE84" rx="3" ry="3" style="stroke:#038048;stroke-width:1.0;"/><text fill="#000000" font-family="sans-serif" font-size="14" lengthAdjust="spacing" textLength="196" x="27" y="296.5731">&#171;override&#187; ToString() : string</text></g><!--class Objeto--><g id="elem_Objeto"><rect fill="#F1F1F1" height="48" id="Objeto" rx="2.5" ry="2.5" style="stroke:#181818;stroke-width:0.5;" width="78" x="122.5" y="11.31"/><ellipse cx="137.5" cy="27.31" fill="#ADD1B2" rx="11" ry="11" style="stroke:#181818;stroke-width:1.0;"/><path d="M139.9731,33.4531 Q139.3921,33.7519 138.7529,33.9013 Q138.1138,34.0507 137.4082,34.0507 Q134.9014,34.0507 133.5815,32.3989 Q132.2617,30.747 132.2617,27.6259 Q132.2617,24.4965 133.5815,22.8447 Q134.9014,21.1928 137.4082,21.1928 Q138.1138,21.1928 138.7612,21.3422 Q139.4087,21.4916 139.9731,21.7905 L139.9731,24.5131 Q139.3423,23.9321 138.7488,23.6623 Q138.1553,23.3925 137.5244,23.3925 Q136.1797,23.3925 135.4949,24.4592 Q134.8101,25.5258 134.8101,27.6259 Q134.8101,29.7177 135.4949,30.7844 Q136.1797,31.851 137.5244,31.851 Q138.1553,31.851 138.7488,31.5812 Q139.3423,31.3115 139.9731,30.7304 Z " fill="#000000"/><text fill="#000000" font-family="sans-serif" font-size="14" lengthAdjust="spacing" textLength="46" x="151.5" y="32.601">Objeto</text><line style="stroke:#181818;stroke-width:0.5;" x1="123.5" x2="199.5" y1="43.31" y2="43.31"/><line style="stroke:#181818;stroke-width:0.5;" x1="123.5" x2="199.5" y1="51.31" y2="51.31"/></g><!--class Ponto4D--><g id="elem_Ponto4D"><rect fill="#F1F1F1" height="48" id="Ponto4D" rx="2.5" ry="2.5" style="stroke:#181818;stroke-width:0.5;" width="91" x="351" y="189.58"/><ellipse cx="366" cy="205.58" fill="#ADD1B2" rx="11" ry="11" style="stroke:#181818;stroke-width:1.0;"/><path d="M368.4731,211.7231 Q367.8921,212.0219 367.2529,212.1713 Q366.6138,212.3207 365.9082,212.3207 Q363.4014,212.3207 362.0815,210.6689 Q360.7617,209.017 360.7617,205.8959 Q360.7617,202.7665 362.0815,201.1147 Q363.4014,199.4628 365.9082,199.4628 Q366.6138,199.4628 367.2612,199.6122 Q367.9087,199.7616 368.4731,200.0605 L368.4731,202.7831 Q367.8423,202.2021 367.2488,201.9323 Q366.6553,201.6625 366.0244,201.6625 Q364.6797,201.6625 363.9949,202.7292 Q363.3101,203.7958 363.3101,205.8959 Q363.3101,207.9877 363.9949,209.0544 Q364.6797,210.121 366.0244,210.121 Q366.6553,210.121 367.2488,209.8512 Q367.8423,209.5815 368.4731,209.0004 Z " fill="#000000"/><text fill="#000000" font-family="sans-serif" font-size="14" lengthAdjust="spacing" textLength="59" x="380" y="210.871">Ponto4D</text><line style="stroke:#181818;stroke-width:0.5;" x1="352" x2="441" y1="221.58" y2="221.58"/><line style="stroke:#181818;stroke-width:0.5;" x1="352" x2="441" y1="229.58" y2="229.58"/></g><!--class Mundo--><g id="elem_Mundo"><rect codeLine="1" fill="#F1F1F1" height="64.4883" id="Mundo" rx="2.5" ry="2.5" style="stroke:#181818;stroke-width:0.5;" width="696" x="477.5" y="181.33"/><ellipse cx="797.25" cy="197.33" fill="#ADD1B2" rx="11" ry="11" style="stroke:#181818;stroke-width:1.0;"/><path d="M799.7231,203.4731 Q799.1421,203.7719 798.5029,203.9213 Q797.8638,204.0707 797.1582,204.0707 Q794.6514,204.0707 793.3315,202.4189 Q792.0117,200.767 792.0117,197.6459 Q792.0117,194.5165 793.3315,192.8647 Q794.6514,191.2128 797.1582,191.2128 Q797.8638,191.2128 798.5112,191.3622 Q799.1587,191.5116 799.7231,191.8105 L799.7231,194.5331 Q799.0923,193.9521 798.4988,193.6823 Q797.9053,193.4125 797.2744,193.4125 Q795.9297,193.4125 795.2449,194.4792 Q794.5601,195.5458 794.5601,197.6459 Q794.5601,199.7377 795.2449,200.8044 Q795.9297,201.871 797.2744,201.871 Q797.9053,201.871 798.4988,201.6012 Q799.0923,201.3315 799.7231,200.7504 Z " fill="#000000"/><text fill="#000000" font-family="sans-serif" font-size="14" lengthAdjust="spacing" textLength="48" x="817.75" y="202.621">Mundo</text><line style="stroke:#181818;stroke-width:0.5;" x1="478.5" x2="1172.5" y1="213.33" y2="213.33"/><line style="stroke:#181818;stroke-width:0.5;" x1="478.5" x2="1172.5" y1="221.33" y2="221.33"/><ellipse cx="488.5" cy="235.0741" fill="#84BE84" rx="3" ry="3" style="stroke:#038048;stroke-width:1.0;"/><text fill="#000000" font-family="sans-serif" font-size="14" lengthAdjust="spacing" textLength="670" x="497.5" y="238.8652">Mundo(gameWindowSettings:GameWindowSettings, nativeWindowSettings:NativeWindowSettings)</text></g><!--class GameWindow--><g id="elem_GameWindow"><rect fill="#F1F1F1" height="48" id="GameWindow" rx="2.5" ry="2.5" style="stroke:#181818;stroke-width:0.5;" width="125" x="763" y="11.31"/><ellipse cx="778" cy="27.31" fill="#ADD1B2" rx="11" ry="11" style="stroke:#181818;stroke-width:1.0;"/><path d="M780.4731,33.4531 Q779.8921,33.7519 779.2529,33.9013 Q778.6138,34.0507 777.9082,34.0507 Q775.4014,34.0507 774.0815,32.3989 Q772.7617,30.747 772.7617,27.6259 Q772.7617,24.4965 774.0815,22.8447 Q775.4014,21.1928 777.9082,21.1928 Q778.6138,21.1928 779.2612,21.3422 Q779.9087,21.4916 780.4731,21.7905 L780.4731,24.5131 Q779.8423,23.9321 779.2488,23.6623 Q778.6553,23.3925 778.0244,23.3925 Q776.6797,23.3925 775.9949,24.4592 Q775.3101,25.5258 775.3101,27.6259 Q775.3101,29.7177 775.9949,30.7844 Q776.6797,31.851 778.0244,31.851 Q778.6553,31.851 779.2488,31.5812 Q779.8423,31.3115 780.4731,30.7304 Z " fill="#000000"/><text fill="#000000" font-family="sans-serif" font-size="14" lengthAdjust="spacing" textLength="93" x="792" y="32.601">GameWindow</text><line style="stroke:#181818;stroke-width:0.5;" x1="764" x2="887" y1="43.31" y2="43.31"/><line style="stroke:#181818;stroke-width:0.5;" x1="764" x2="887" y1="51.31" y2="51.31"/></g><!--class Program--><g id="elem_Program"><rect codeLine="1" fill="#F1F1F1" height="56.6211" id="Program" rx="2.5" ry="2.5" style="stroke:#181818;stroke-width:0.5;" width="91" x="923" y="7"/><ellipse cx="938" cy="27.3105" fill="#ADD1B2" rx="11" ry="11" style="stroke:#181818;stroke-width:1.0;"/><path d="M940.4731,33.4536 Q939.8921,33.7524 939.2529,33.9019 Q938.6138,34.0513 937.9082,34.0513 Q935.4014,34.0513 934.0815,32.3994 Q932.7617,30.7476 932.7617,27.6265 Q932.7617,24.4971 934.0815,22.8452 Q935.4014,21.1934 937.9082,21.1934 Q938.6138,21.1934 939.2612,21.3428 Q939.9087,21.4922 940.4731,21.791 L940.4731,24.5137 Q939.8423,23.9326 939.2488,23.6628 Q938.6553,23.3931 938.0244,23.3931 Q936.6797,23.3931 935.9949,24.4597 Q935.3101,25.5264 935.3101,27.6265 Q935.3101,29.7183 935.9949,30.7849 Q936.6797,31.8516 938.0244,31.8516 Q938.6553,31.8516 939.2488,31.5818 Q939.8423,31.312 940.4731,30.731 Z " fill="#000000"/><text fill="#000000" font-family="sans-serif" font-size="12" font-style="italic" lengthAdjust="spacing" textLength="42" x="960.5" y="23.6016">&#171;static&#187;</text><text fill="#000000" font-family="sans-serif" font-size="14" lengthAdjust="spacing" textLength="59" x="952" y="39.668">Program</text><line style="stroke:#181818;stroke-width:0.5;" x1="924" x2="1013" y1="47.6211" y2="47.6211"/><line style="stroke:#181818;stroke-width:0.5;" x1="924" x2="1013" y1="55.6211" y2="55.6211"/></g><!--reverse link Objeto to SrPalito--><g id="link_Objeto_SrPalito"><path codeLine="11" d="M161.5,77.72 C161.5,94.3 161.5,99.68 161.5,123.18 " fill="none" id="Objeto-backto-SrPalito" style="stroke:#181818;stroke-width:1.0;"/><polygon fill="none" points="161.5,59.72,155.5,77.72,167.5,77.72,161.5,59.72" style="stroke:#181818;stroke-width:1.0;"/></g><!--link SrPalito to Ponto4D--><g id="link_SrPalito_Ponto4D"><path codeLine="12" d="M327.4582,270.191 C346.3882,263.311 349.6214,259.3391 368.5514,241.9491 " fill="none" id="SrPalito-Ponto4D" style="stroke:#181818;stroke-width:1.0;"/><polygon fill="none" points="316.18,274.29,323.1854,275.9999,327.4582,270.191,320.4528,268.4811,316.18,274.29" style="stroke:#181818;stroke-width:1.0;"/><polygon fill="#181818" points="372.97,237.89,363.6361,241.0329,369.2879,241.2726,369.0482,246.9244,372.97,237.89" style="stroke:#181818;stroke-width:1.0;"/><text fill="#000000" font-family="sans-serif" font-size="13" lengthAdjust="spacing" textLength="35" x="327.9689" y="258.2499">ptoPe</text></g><!--link SrPalito to Ponto4D--><g id="link_SrPalito_Ponto4D"><path codeLine="13" d="M327.4601,156.9637 C346.3901,163.8337 349.6203,167.8222 368.5503,185.2022 " fill="none" id="SrPalito-Ponto4D-1" style="stroke:#181818;stroke-width:1.0;"/><polygon fill="none" points="316.18,152.87,320.4555,158.6769,327.4601,156.9637,323.1846,151.1568,316.18,152.87" style="stroke:#181818;stroke-width:1.0;"/><polygon fill="#181818" points="372.97,189.26,369.0456,180.2268,369.2869,185.8785,363.6352,186.1197,372.97,189.26" style="stroke:#181818;stroke-width:1.0;"/><text fill="#000000" font-family="sans-serif" font-size="13" lengthAdjust="spacing" textLength="66" x="375.3967" y="178.7143">ptoCabeca</text></g><!--reverse link GameWindow to Mundo--><g id="link_GameWindow_Mundo"><path codeLine="4" d="M825.5,77.72 C825.5,108.9 825.5,146.18 825.5,181.03 " fill="none" id="GameWindow-backto-Mundo" style="stroke:#181818;stroke-width:1.0;"/><polygon fill="none" points="825.5,59.72,819.5,77.72,831.5,77.72,825.5,59.72" style="stroke:#181818;stroke-width:1.0;"/></g><!--SRC=[KypCIyufJKbLqDCFBWf8pCaioTShACtDuL94IFYMvgLWYWOKvQSN9UQ2nG40]--></g></svg>