<?xml version="1.0" encoding="us-ascii" standalone="no"?><svg xmlns="http://www.w3.org/2000/svg" xmlns:xlink="http://www.w3.org/1999/xlink" contentStyleType="text/css" height="301px" preserveAspectRatio="none" style="width:449px;height:301px;background:#FFFFFF;" version="1.1" viewBox="0 0 449 301" width="449px" zoomAndPan="magnify"><defs/><g><!--class SrPalito--><g id="elem_SrPalito"><rect codeLine="1" fill="#F1F1F1" height="179.9063" id="SrPalito" rx="2.5" ry="2.5" style="stroke:#181818;stroke-width:0.5;" width="309" x="7" y="115"/><ellipse cx="131.25" cy="131" fill="#ADD1B2" rx="11" ry="11" style="stroke:#181818;stroke-width:1.0;"/><path d="M133.7231,137.1431 Q133.1421,137.4419 132.5029,137.5913 Q131.8638,137.7407 131.1582,137.7407 Q128.6514,137.7407 127.3315,136.0889 Q126.0117,134.437 126.0117,131.3159 Q126.0117,128.1865 127.3315,126.5347 Q128.6514,124.8828 131.1582,124.8828 Q131.8638,124.8828 132.5112,125.0322 Q133.1587,125.1816 133.7231,125.4805 L133.7231,128.2031 Q133.0923,127.6221 132.4988,127.3523 Q131.9053,127.0825 131.2744,127.0825 Q129.9297,127.0825 129.2449,128.1492 Q128.5601,129.2158 128.5601,131.3159 Q128.5601,133.4077 129.2449,134.4744 Q129.9297,135.541 131.2744,135.541 Q131.9053,135.541 132.4988,135.2712 Q133.0923,135.0015 133.7231,134.4204 Z " fill="#000000"/><text fill="#000000" font-family="sans-serif" font-size="14" lengthAdjust="spacing" textLength="52" x="151.75" y="136.291">SrPalito</text><line style="stroke:#181818;stroke-width:0.5;" x1="8" x2="315" y1="147" y2="147"/><rect fill="none" height="6" style="stroke:#C82930;stroke-width:1.0;" width="6" x="15" y="157.7441"/><text fill="#000000" font-family="sans-serif" font-size="14" lengthAdjust="spacing" textLength="145" x="27" y="164.5352">angulo : double = 45</text><rect fill="none" height="6" style="stroke:#C82930;stroke-width:1.0;" width="6" x="15" y="174.2324"/><text fill="#000000" font-family="sans-serif" font-size="14" lengthAdjust="spacing" textLength="128" x="27" y="181.0234">raio : double = 0.5</text><line style="stroke:#181818;stroke-width:0.5;" x1="8" x2="315" y1="187.9766" y2="187.9766"/><ellipse cx="18" cy="201.7207" fill="#84BE84" rx="3" ry="3" style="stroke:#038048;stroke-width:1.0;"/><text fill="#000000" font-family="sans-serif" font-size="14" lengthAdjust="spacing" textLength="253" x="27" y="205.5117">SrPalito(_paiRef:Objeto, _rotulo:char)</text><ellipse cx="18" cy="218.209" fill="#84BE84" rx="3" ry="3" style="stroke:#038048;stroke-width:1.0;"/><text fill="#000000" font-family="sans-serif" font-size="14" lengthAdjust="spacing" textLength="113" x="27" y="222">Atualizar() : void</text><ellipse cx="18" cy="234.6973" fill="#84BE84" rx="3" ry="3" style="stroke:#038048;stroke-width:1.0;"/><text fill="#000000" font-family="sans-serif" font-size="14" lengthAdjust="spacing" textLength="218" x="27" y="238.4883">AtualizarPe(peInc:double) : void</text><ellipse cx="18" cy="251.1855" fill="#84BE84" rx="3" ry="3" style="stroke:#038048;stroke-width:1.0;"/><text fill="#000000" font-family="sans-serif" font-size="14" lengthAdjust="spacing" textLength="242" x="27" y="254.9766">AtualizarRaio(raioInc:double) : void</text><ellipse cx="18" cy="267.6738" fill="#84BE84" rx="3" ry="3" style="stroke:#038048;stroke-width:1.0;"/><text fill="#000000" font-family="sans-serif" font-size="14" lengthAdjust="spacing" textLength="283" x="27" y="271.4648">AtualizarAngulo(anguloInc:double) : void</text><ellipse cx="18" cy="284.1621" fill="#84BE84" rx="3" ry="3" style="stroke:#038048;stroke-width:1.0;"/><text fill="#000000" font-family="sans-serif" font-size="14" lengthAdjust="spacing" textLength="196" x="27" y="287.9531">&#171;override&#187; ToString() : string</text></g><!--class Objeto--><g id="elem_Objeto"><rect fill="#F1F1F1" height="48" id="Objeto" rx="2.5" ry="2.5" style="stroke:#181818;stroke-width:0.5;" width="78" x="122.5" y="7"/><ellipse cx="137.5" cy="23" fill="#ADD1B2" rx="11" ry="11" style="stroke:#181818;stroke-width:1.0;"/><path d="M139.9731,29.1431 Q139.3921,29.4419 138.7529,29.5913 Q138.1138,29.7407 137.4082,29.7407 Q134.9014,29.7407 133.5815,28.0889 Q132.2617,26.437 132.2617,23.3159 Q132.2617,20.1865 133.5815,18.5347 Q134.9014,16.8828 137.4082,16.8828 Q138.1138,16.8828 138.7612,17.0322 Q139.4087,17.1816 139.9731,17.4805 L139.9731,20.2031 Q139.3423,19.6221 138.7488,19.3523 Q138.1553,19.0825 137.5244,19.0825 Q136.1797,19.0825 135.4949,20.1492 Q134.8101,21.2158 134.8101,23.3159 Q134.8101,25.4077 135.4949,26.4744 Q136.1797,27.541 137.5244,27.541 Q138.1553,27.541 138.7488,27.2712 Q139.3423,27.0015 139.9731,26.4204 Z " fill="#000000"/><text fill="#000000" font-family="sans-serif" font-size="14" lengthAdjust="spacing" textLength="46" x="151.5" y="28.291">Objeto</text><line style="stroke:#181818;stroke-width:0.5;" x1="123.5" x2="199.5" y1="39" y2="39"/><line style="stroke:#181818;stroke-width:0.5;" x1="123.5" x2="199.5" y1="47" y2="47"/></g><!--class Ponto4D--><g id="elem_Ponto4D"><rect fill="#F1F1F1" height="48" id="Ponto4D" rx="2.5" ry="2.5" style="stroke:#181818;stroke-width:0.5;" width="91" x="351" y="180.96"/><ellipse cx="366" cy="196.96" fill="#ADD1B2" rx="11" ry="11" style="stroke:#181818;stroke-width:1.0;"/><path d="M368.4731,203.1031 Q367.8921,203.4019 367.2529,203.5513 Q366.6138,203.7007 365.9082,203.7007 Q363.4014,203.7007 362.0815,202.0489 Q360.7617,200.397 360.7617,197.2759 Q360.7617,194.1465 362.0815,192.4947 Q363.4014,190.8428 365.9082,190.8428 Q366.6138,190.8428 367.2612,190.9922 Q367.9087,191.1416 368.4731,191.4405 L368.4731,194.1631 Q367.8423,193.5821 367.2488,193.3123 Q366.6553,193.0425 366.0244,193.0425 Q364.6797,193.0425 363.9949,194.1092 Q363.3101,195.1758 363.3101,197.2759 Q363.3101,199.3677 363.9949,200.4344 Q364.6797,201.501 366.0244,201.501 Q366.6553,201.501 367.2488,201.2312 Q367.8423,200.9615 368.4731,200.3804 Z " fill="#000000"/><text fill="#000000" font-family="sans-serif" font-size="14" lengthAdjust="spacing" textLength="59" x="380" y="202.251">Ponto4D</text><line style="stroke:#181818;stroke-width:0.5;" x1="352" x2="441" y1="212.96" y2="212.96"/><line style="stroke:#181818;stroke-width:0.5;" x1="352" x2="441" y1="220.96" y2="220.96"/></g><!--reverse link Objeto to SrPalito--><g id="link_Objeto_SrPalito"><path codeLine="11" d="M161.5,73.19 C161.5,88.87 161.5,92.67 161.5,114.75 " fill="none" id="Objeto-backto-SrPalito" style="stroke:#181818;stroke-width:1.0;"/><polygon fill="none" points="161.5,55.19,155.5,73.19,167.5,73.19,161.5,55.19" style="stroke:#181818;stroke-width:1.0;"/></g><!--link SrPalito to Ponto4D--><g id="link_SrPalito_Ponto4D"><path codeLine="12" d="M327.4582,261.571 C346.3882,254.691 349.6214,250.7191 368.5514,233.3291 " fill="none" id="SrPalito-Ponto4D" style="stroke:#181818;stroke-width:1.0;"/><polygon fill="none" points="316.18,265.67,323.1854,267.3799,327.4582,261.571,320.4528,259.8611,316.18,265.67" style="stroke:#181818;stroke-width:1.0;"/><polygon fill="#181818" points="372.97,229.27,363.6361,232.4129,369.2879,232.6526,369.0482,238.3044,372.97,229.27" style="stroke:#181818;stroke-width:1.0;"/><text fill="#000000" font-family="sans-serif" font-size="13" lengthAdjust="spacing" textLength="35" x="327.9689" y="249.6299">ptoPe</text></g><!--link SrPalito to Ponto4D--><g id="link_SrPalito_Ponto4D"><path codeLine="13" d="M327.4601,148.3437 C346.3901,155.2137 349.6203,159.2022 368.5503,176.5822 " fill="none" id="SrPalito-Ponto4D-1" style="stroke:#181818;stroke-width:1.0;"/><polygon fill="none" points="316.18,144.25,320.4555,150.0569,327.4601,148.3437,323.1846,142.5368,316.18,144.25" style="stroke:#181818;stroke-width:1.0;"/><polygon fill="#181818" points="372.97,180.64,369.0456,171.6068,369.2869,177.2585,363.6352,177.4997,372.97,180.64" style="stroke:#181818;stroke-width:1.0;"/><text fill="#000000" font-family="sans-serif" font-size="13" lengthAdjust="spacing" textLength="66" x="375.3967" y="170.0943">ptoCabeca</text></g><!--SRC=[XP1D2u9054Nt_ef7guaoMjX6J93Qj4gilJprPHFYat5qqST_Rr8HAg9P3Pp3dNidBR2kuQ12BAHck5bWZWrOvat1u4B6JL8GhC5P3KYXV0FBHKzcOug8AvGHdTnzSY7DSuWLQnFdfcTKqq4ET6FaAoenDMajo-mJX2GgsfMfsp_rIujC7_4gzLyDkbMY7_TJzpnkIIcPaU_3aGzQoJBlMjRTrNfO_J3mxhOzhhR6JsJRXqcbEQG9X5ngThRVS8C9fJWAJm00]--></g></svg>