<?xml version="1.0" encoding="us-ascii" standalone="no"?><svg xmlns="http://www.w3.org/2000/svg" xmlns:xlink="http://www.w3.org/1999/xlink" contentStyleType="text/css" height="85px" preserveAspectRatio="none" style="width:105px;height:85px;background:#FFFFFF;" version="1.1" viewBox="0 0 105 85" width="105px" zoomAndPan="magnify"><defs/><g><!--class Mundo--><g id="elem_Mundo"><rect codeLine="1" fill="#F1F1F1" height="64.4883" id="Mundo" rx="2.5" ry="2.5" style="stroke:#181818;stroke-width:0.5;" width="84" x="7" y="7"/><ellipse cx="23.8" cy="23" fill="#ADD1B2" rx="11" ry="11" style="stroke:#181818;stroke-width:1.0;"/><path d="M26.2731,29.1431 Q25.6921,29.4419 25.0529,29.5913 Q24.4138,29.7407 23.7082,29.7407 Q21.2014,29.7407 19.8815,28.0889 Q18.5617,26.437 18.5617,23.3159 Q18.5617,20.1865 19.8815,18.5347 Q21.2014,16.8828 23.7082,16.8828 Q24.4138,16.8828 25.0612,17.0322 Q25.7087,17.1816 26.2731,17.4805 L26.2731,20.2031 Q25.6423,19.6221 25.0488,19.3523 Q24.4553,19.0825 23.8244,19.0825 Q22.4797,19.0825 21.7949,20.1492 Q21.1101,21.2158 21.1101,23.3159 Q21.1101,25.4077 21.7949,26.4744 Q22.4797,27.541 23.8244,27.541 Q24.4553,27.541 25.0488,27.2712 Q25.6423,27.0015 26.2731,26.4204 Z " fill="#000000"/><text fill="#000000" font-family="sans-serif" font-size="14" lengthAdjust="spacing" textLength="48" x="38.2" y="28.291">Mundo</text><line style="stroke:#181818;stroke-width:0.5;" x1="8" x2="90" y1="39" y2="39"/><line style="stroke:#181818;stroke-width:0.5;" x1="8" x2="90" y1="47" y2="47"/><ellipse cx="18" cy="60.7441" fill="#84BE84" rx="3" ry="3" style="stroke:#038048;stroke-width:1.0;"/><text fill="#000000" font-family="sans-serif" font-size="14" lengthAdjust="spacing" textLength="58" x="27" y="64.5352">Mundo()</text></g><!--SRC=[Iyv9B2vMy2tDIybNgEPI009j24z3awiM0000]--></g></svg>