<?xml version="1.0" encoding="us-ascii" standalone="no"?><svg xmlns="http://www.w3.org/2000/svg" xmlns:xlink="http://www.w3.org/1999/xlink" contentStyleType="text/css" height="202px" preserveAspectRatio="none" style="width:271px;height:202px;background:#FFFFFF;" version="1.1" viewBox="0 0 271 202" width="271px" zoomAndPan="magnify"><defs/><g><!--class Cubo--><g id="elem_Cubo"><rect codeLine="1" fill="#F1F1F1" height="80.9766" id="Cubo" rx="2.5" ry="2.5" style="stroke:#181818;stroke-width:0.5;" width="257" x="7" y="115"/><ellipse cx="112.75" cy="131" fill="#ADD1B2" rx="11" ry="11" style="stroke:#181818;stroke-width:1.0;"/><path d="M115.2231,137.1431 Q114.6421,137.4419 114.0029,137.5913 Q113.3638,137.7407 112.6582,137.7407 Q110.1514,137.7407 108.8315,136.0889 Q107.5117,134.437 107.5117,131.3159 Q107.5117,128.1865 108.8315,126.5347 Q110.1514,124.8828 112.6582,124.8828 Q113.3638,124.8828 114.0112,125.0322 Q114.6587,125.1816 115.2231,125.4805 L115.2231,128.2031 Q114.5923,127.6221 113.9988,127.3523 Q113.4053,127.0825 112.7744,127.0825 Q111.4297,127.0825 110.7449,128.1492 Q110.0601,129.2158 110.0601,131.3159 Q110.0601,133.4077 110.7449,134.4744 Q111.4297,135.541 112.7744,135.541 Q113.4053,135.541 113.9988,135.2712 Q114.5923,135.0015 115.2231,134.4204 Z " fill="#000000"/><text fill="#000000" font-family="sans-serif" font-size="14" lengthAdjust="spacing" textLength="37" x="133.25" y="136.291">Cubo</text><line style="stroke:#181818;stroke-width:0.5;" x1="8" x2="263" y1="147" y2="147"/><line style="stroke:#181818;stroke-width:0.5;" x1="8" x2="263" y1="155" y2="155"/><ellipse cx="18" cy="168.7441" fill="#84BE84" rx="3" ry="3" style="stroke:#038048;stroke-width:1.0;"/><text fill="#000000" font-family="sans-serif" font-size="14" lengthAdjust="spacing" textLength="231" x="27" y="172.5352">Cubo(paiRef:Objeto, _rotulo:char)</text><ellipse cx="18" cy="185.2324" fill="#84BE84" rx="3" ry="3" style="stroke:#038048;stroke-width:1.0;"/><text fill="#000000" font-family="sans-serif" font-size="14" lengthAdjust="spacing" textLength="196" x="27" y="189.0234">&#171;override&#187; ToString() : string</text></g><!--class Objeto--><g id="elem_Objeto"><rect fill="#F1F1F1" height="48" id="Objeto" rx="2.5" ry="2.5" style="stroke:#181818;stroke-width:0.5;" width="78" x="96.5" y="7"/><ellipse cx="111.5" cy="23" fill="#ADD1B2" rx="11" ry="11" style="stroke:#181818;stroke-width:1.0;"/><path d="M113.9731,29.1431 Q113.3921,29.4419 112.7529,29.5913 Q112.1138,29.7407 111.4082,29.7407 Q108.9014,29.7407 107.5815,28.0889 Q106.2617,26.437 106.2617,23.3159 Q106.2617,20.1865 107.5815,18.5347 Q108.9014,16.8828 111.4082,16.8828 Q112.1138,16.8828 112.7612,17.0322 Q113.4087,17.1816 113.9731,17.4805 L113.9731,20.2031 Q113.3423,19.6221 112.7488,19.3523 Q112.1553,19.0825 111.5244,19.0825 Q110.1797,19.0825 109.4949,20.1492 Q108.8101,21.2158 108.8101,23.3159 Q108.8101,25.4077 109.4949,26.4744 Q110.1797,27.541 111.5244,27.541 Q112.1553,27.541 112.7488,27.2712 Q113.3423,27.0015 113.9731,26.4204 Z " fill="#000000"/><text fill="#000000" font-family="sans-serif" font-size="14" lengthAdjust="spacing" textLength="46" x="125.5" y="28.291">Objeto</text><line style="stroke:#181818;stroke-width:0.5;" x1="97.5" x2="173.5" y1="39" y2="39"/><line style="stroke:#181818;stroke-width:0.5;" x1="97.5" x2="173.5" y1="47" y2="47"/></g><!--reverse link Objeto to Cubo--><g id="link_Objeto_Cubo"><path codeLine="5" d="M135.5,73.33 C135.5,90.13 135.5,95.2 135.5,114.86 " fill="none" id="Objeto-backto-Cubo" style="stroke:#181818;stroke-width:1.0;"/><polygon fill="none" points="135.5,55.33,129.5,73.33,141.5,73.33,135.5,55.33" style="stroke:#181818;stroke-width:1.0;"/></g><!--SRC=[Iyv9B2vMS2vDobUevb800cqmHwCWCJCeDStAFoahjIHVHo6-AB-aD2VVAZaZiKWJgix69hyijQWeCoNLpauX93-uf2WpBrr3Ky5AeHZCvAhbWcXNiAdHrGKR2m00]--></g></svg>