<?xml version="1.0" encoding="us-ascii" standalone="no"?><svg xmlns="http://www.w3.org/2000/svg" xmlns:xlink="http://www.w3.org/1999/xlink" contentStyleType="text/css" height="244px" preserveAspectRatio="none" style="width:1306px;height:244px;background:#FFFFFF;" version="1.1" viewBox="0 0 1306 244" width="1306px" zoomAndPan="magnify"><defs/><g><!--class Mundo--><g id="elem_Mundo"><rect codeLine="1" fill="#F1F1F1" height="64.4883" id="Mundo" rx="2.5" ry="2.5" style="stroke:#181818;stroke-width:0.5;" width="696" x="7" y="148.35"/><ellipse cx="326.75" cy="164.35" fill="#ADD1B2" rx="11" ry="11" style="stroke:#181818;stroke-width:1.0;"/><path d="M329.2231,170.4931 Q328.6421,170.7919 328.0029,170.9413 Q327.3638,171.0907 326.6582,171.0907 Q324.1514,171.0907 322.8315,169.4389 Q321.5117,167.787 321.5117,164.6659 Q321.5117,161.5365 322.8315,159.8847 Q324.1514,158.2328 326.6582,158.2328 Q327.3638,158.2328 328.0112,158.3822 Q328.6587,158.5316 329.2231,158.8305 L329.2231,161.5531 Q328.5923,160.9721 327.9988,160.7023 Q327.4053,160.4325 326.7744,160.4325 Q325.4297,160.4325 324.7449,161.4992 Q324.0601,162.5658 324.0601,164.6659 Q324.0601,166.7577 324.7449,167.8244 Q325.4297,168.891 326.7744,168.891 Q327.4053,168.891 327.9988,168.6212 Q328.5923,168.3515 329.2231,167.7704 Z " fill="#000000"/><text fill="#000000" font-family="sans-serif" font-size="14" lengthAdjust="spacing" textLength="48" x="347.25" y="169.641">Mundo</text><line style="stroke:#181818;stroke-width:0.5;" x1="8" x2="702" y1="180.35" y2="180.35"/><line style="stroke:#181818;stroke-width:0.5;" x1="8" x2="702" y1="188.35" y2="188.35"/><ellipse cx="18" cy="202.0941" fill="#84BE84" rx="3" ry="3" style="stroke:#038048;stroke-width:1.0;"/><text fill="#000000" font-family="sans-serif" font-size="14" lengthAdjust="spacing" textLength="670" x="27" y="205.8852">Mundo(gameWindowSettings:GameWindowSettings, nativeWindowSettings:NativeWindowSettings)</text></g><!--class GameWindow--><g id="elem_GameWindow"><rect fill="#F1F1F1" height="48" id="GameWindow" rx="2.5" ry="2.5" style="stroke:#181818;stroke-width:0.5;" width="125" x="292.5" y="11.31"/><ellipse cx="307.5" cy="27.31" fill="#ADD1B2" rx="11" ry="11" style="stroke:#181818;stroke-width:1.0;"/><path d="M309.9731,33.4531 Q309.3921,33.7519 308.7529,33.9013 Q308.1138,34.0507 307.4082,34.0507 Q304.9014,34.0507 303.5815,32.3989 Q302.2617,30.747 302.2617,27.6259 Q302.2617,24.4965 303.5815,22.8447 Q304.9014,21.1928 307.4082,21.1928 Q308.1138,21.1928 308.7612,21.3422 Q309.4087,21.4916 309.9731,21.7905 L309.9731,24.5131 Q309.3423,23.9321 308.7488,23.6623 Q308.1553,23.3925 307.5244,23.3925 Q306.1797,23.3925 305.4949,24.4592 Q304.8101,25.5258 304.8101,27.6259 Q304.8101,29.7177 305.4949,30.7844 Q306.1797,31.851 307.5244,31.851 Q308.1553,31.851 308.7488,31.5812 Q309.3423,31.3115 309.9731,30.7304 Z " fill="#000000"/><text fill="#000000" font-family="sans-serif" font-size="14" lengthAdjust="spacing" textLength="93" x="321.5" y="32.601">GameWindow</text><line style="stroke:#181818;stroke-width:0.5;" x1="293.5" x2="416.5" y1="43.31" y2="43.31"/><line style="stroke:#181818;stroke-width:0.5;" x1="293.5" x2="416.5" y1="51.31" y2="51.31"/></g><!--class Circulo--><g id="elem_Circulo"><rect codeLine="1" fill="#F1F1F1" height="113.9531" id="Circulo" rx="2.5" ry="2.5" style="stroke:#181818;stroke-width:0.5;" width="561" x="738.5" y="123.62"/><ellipse cx="990.25" cy="139.62" fill="#ADD1B2" rx="11" ry="11" style="stroke:#181818;stroke-width:1.0;"/><path d="M992.7231,145.7631 Q992.1421,146.0619 991.5029,146.2113 Q990.8638,146.3607 990.1582,146.3607 Q987.6514,146.3607 986.3315,144.7089 Q985.0117,143.057 985.0117,139.9359 Q985.0117,136.8065 986.3315,135.1547 Q987.6514,133.5028 990.1582,133.5028 Q990.8638,133.5028 991.5112,133.6522 Q992.1587,133.8016 992.7231,134.1005 L992.7231,136.8231 Q992.0923,136.2421 991.4988,135.9723 Q990.9053,135.7025 990.2744,135.7025 Q988.9297,135.7025 988.2449,136.7692 Q987.5601,137.8358 987.5601,139.9359 Q987.5601,142.0277 988.2449,143.0944 Q988.9297,144.161 990.2744,144.161 Q990.9053,144.161 991.4988,143.8912 Q992.0923,143.6215 992.7231,143.0404 Z " fill="#000000"/><text fill="#000000" font-family="sans-serif" font-size="14" lengthAdjust="spacing" textLength="49" x="1010.75" y="144.911">Circulo</text><line style="stroke:#181818;stroke-width:0.5;" x1="739.5" x2="1298.5" y1="155.62" y2="155.62"/><line style="stroke:#181818;stroke-width:0.5;" x1="739.5" x2="1298.5" y1="163.62" y2="163.62"/><ellipse cx="749.5" cy="177.3641" fill="#84BE84" rx="3" ry="3" style="stroke:#038048;stroke-width:1.0;"/><text fill="#000000" font-family="sans-serif" font-size="14" lengthAdjust="spacing" textLength="344" x="758.5" y="181.1552">Circulo(_paiRef:Objeto, _rotulo:char, _raio:double)</text><ellipse cx="749.5" cy="193.8524" fill="#84BE84" rx="3" ry="3" style="stroke:#038048;stroke-width:1.0;"/><text fill="#000000" font-family="sans-serif" font-size="14" lengthAdjust="spacing" textLength="535" x="758.5" y="197.6434">Circulo(_paiRef:Objeto, _rotulo:char, _raio:double, ptoDeslocamento:Ponto4D)</text><ellipse cx="749.5" cy="210.3407" fill="#84BE84" rx="3" ry="3" style="stroke:#038048;stroke-width:1.0;"/><text fill="#000000" font-family="sans-serif" font-size="14" lengthAdjust="spacing" textLength="296" x="758.5" y="214.1317">Atualizar(ptoDeslocamento:Ponto4D) : void</text><ellipse cx="749.5" cy="226.829" fill="#84BE84" rx="3" ry="3" style="stroke:#038048;stroke-width:1.0;"/><text fill="#000000" font-family="sans-serif" font-size="14" lengthAdjust="spacing" textLength="196" x="758.5" y="230.62">&#171;override&#187; ToString() : string</text></g><!--class Objeto--><g id="elem_Objeto"><rect fill="#F1F1F1" height="48" id="Objeto" rx="2.5" ry="2.5" style="stroke:#181818;stroke-width:0.5;" width="78" x="980" y="11.31"/><ellipse cx="995" cy="27.31" fill="#ADD1B2" rx="11" ry="11" style="stroke:#181818;stroke-width:1.0;"/><path d="M997.4731,33.4531 Q996.8921,33.7519 996.2529,33.9013 Q995.6138,34.0507 994.9082,34.0507 Q992.4014,34.0507 991.0815,32.3989 Q989.7617,30.747 989.7617,27.6259 Q989.7617,24.4965 991.0815,22.8447 Q992.4014,21.1928 994.9082,21.1928 Q995.6138,21.1928 996.2612,21.3422 Q996.9087,21.4916 997.4731,21.7905 L997.4731,24.5131 Q996.8423,23.9321 996.2488,23.6623 Q995.6553,23.3925 995.0244,23.3925 Q993.6797,23.3925 992.9949,24.4592 Q992.3101,25.5258 992.3101,27.6259 Q992.3101,29.7177 992.9949,30.7844 Q993.6797,31.851 995.0244,31.851 Q995.6553,31.851 996.2488,31.5812 Q996.8423,31.3115 997.4731,30.7304 Z " fill="#000000"/><text fill="#000000" font-family="sans-serif" font-size="14" lengthAdjust="spacing" textLength="46" x="1009" y="32.601">Objeto</text><line style="stroke:#181818;stroke-width:0.5;" x1="981" x2="1057" y1="43.31" y2="43.31"/><line style="stroke:#181818;stroke-width:0.5;" x1="981" x2="1057" y1="51.31" y2="51.31"/></g><!--class Program--><g id="elem_Program"><rect codeLine="1" fill="#F1F1F1" height="56.6211" id="Program" rx="2.5" ry="2.5" style="stroke:#181818;stroke-width:0.5;" width="91" x="1092.5" y="7"/><ellipse cx="1107.5" cy="27.3105" fill="#ADD1B2" rx="11" ry="11" style="stroke:#181818;stroke-width:1.0;"/><path d="M1109.9731,33.4536 Q1109.3921,33.7524 1108.7529,33.9019 Q1108.1138,34.0513 1107.4082,34.0513 Q1104.9014,34.0513 1103.5815,32.3994 Q1102.2617,30.7476 1102.2617,27.6265 Q1102.2617,24.4971 1103.5815,22.8452 Q1104.9014,21.1934 1107.4082,21.1934 Q1108.1138,21.1934 1108.7612,21.3428 Q1109.4087,21.4922 1109.9731,21.791 L1109.9731,24.5137 Q1109.3423,23.9326 1108.7488,23.6628 Q1108.1553,23.3931 1107.5244,23.3931 Q1106.1797,23.3931 1105.4949,24.4597 Q1104.8101,25.5264 1104.8101,27.6265 Q1104.8101,29.7183 1105.4949,30.7849 Q1106.1797,31.8516 1107.5244,31.8516 Q1108.1553,31.8516 1108.7488,31.5818 Q1109.3423,31.312 1109.9731,30.731 Z " fill="#000000"/><text fill="#000000" font-family="sans-serif" font-size="12" font-style="italic" lengthAdjust="spacing" textLength="42" x="1130" y="23.6016">&#171;static&#187;</text><text fill="#000000" font-family="sans-serif" font-size="14" lengthAdjust="spacing" textLength="59" x="1121.5" y="39.668">Program</text><line style="stroke:#181818;stroke-width:0.5;" x1="1093.5" x2="1182.5" y1="47.6211" y2="47.6211"/><line style="stroke:#181818;stroke-width:0.5;" x1="1093.5" x2="1182.5" y1="55.6211" y2="55.6211"/></g><!--reverse link GameWindow to Mundo--><g id="link_GameWindow_Mundo"><path codeLine="4" d="M355,77.65 C355,101.67 355,121.27 355,147.96 " fill="none" id="GameWindow-backto-Mundo" style="stroke:#181818;stroke-width:1.0;"/><polygon fill="none" points="355,59.65,349,77.65,361,77.65,355,59.65" style="stroke:#181818;stroke-width:1.0;"/></g><!--reverse link Objeto to Circulo--><g id="link_Objeto_Circulo"><path codeLine="7" d="M1019,77.65 C1019,94.86 1019,101.02 1019,123.16 " fill="none" id="Objeto-backto-Circulo" style="stroke:#181818;stroke-width:1.0;"/><polygon fill="none" points="1019,59.65,1013,77.65,1025,77.65,1019,59.65" style="stroke:#181818;stroke-width:1.0;"/></g><!--SRC=[KypCIyufJKbLqDFtBSrBoTShACtDuL94Y3fd5YMNvc2A1nJbfnSbveB50G00]--></g></svg>