<?xml version="1.0" encoding="us-ascii" standalone="no"?><svg xmlns="http://www.w3.org/2000/svg" xmlns:xlink="http://www.w3.org/1999/xlink" contentStyleType="text/css" height="334px" preserveAspectRatio="none" style="width:519px;height:334px;background:#FFFFFF;" version="1.1" viewBox="0 0 519 334" width="519px" zoomAndPan="magnify"><defs/><g><!--class BBox--><g id="elem_BBox"><rect codeLine="1" fill="#F1F1F1" height="212.8828" id="BBox" rx="2.5" ry="2.5" style="stroke:#181818;stroke-width:0.5;" width="505" x="7" y="7"/><ellipse cx="238.25" cy="23" fill="#ADD1B2" rx="11" ry="11" style="stroke:#181818;stroke-width:1.0;"/><path d="M240.7231,29.1431 Q240.1421,29.4419 239.5029,29.5913 Q238.8638,29.7407 238.1582,29.7407 Q235.6514,29.7407 234.3315,28.0889 Q233.0117,26.437 233.0117,23.3159 Q233.0117,20.1865 234.3315,18.5347 Q235.6514,16.8828 238.1582,16.8828 Q238.8638,16.8828 239.5112,17.0322 Q240.1587,17.1816 240.7231,17.4805 L240.7231,20.2031 Q240.0923,19.6221 239.4988,19.3523 Q238.9053,19.0825 238.2744,19.0825 Q236.9297,19.0825 236.2449,20.1492 Q235.5601,21.2158 235.5601,23.3159 Q235.5601,25.4077 236.2449,26.4744 Q236.9297,27.541 238.2744,27.541 Q238.9053,27.541 239.4988,27.2712 Q240.0923,27.0015 240.7231,26.4204 Z " fill="#000000"/><text fill="#000000" font-family="sans-serif" font-size="14" lengthAdjust="spacing" textLength="34" x="258.75" y="28.291">BBox</text><line style="stroke:#181818;stroke-width:0.5;" x1="8" x2="511" y1="39" y2="39"/><ellipse cx="18" cy="52.7441" fill="none" rx="3" ry="3" style="stroke:#038048;stroke-width:1.0;"/><text fill="#000000" font-family="sans-serif" font-size="14" lengthAdjust="spacing" textLength="192" x="27" y="56.5352">ObterMenorX : double &#171;get&#187;</text><ellipse cx="18" cy="69.2324" fill="none" rx="3" ry="3" style="stroke:#038048;stroke-width:1.0;"/><text fill="#000000" font-family="sans-serif" font-size="14" lengthAdjust="spacing" textLength="192" x="27" y="73.0234">ObterMenorY : double &#171;get&#187;</text><ellipse cx="18" cy="85.7207" fill="none" rx="3" ry="3" style="stroke:#038048;stroke-width:1.0;"/><text fill="#000000" font-family="sans-serif" font-size="14" lengthAdjust="spacing" textLength="191" x="27" y="89.5117">ObterMenorZ : double &#171;get&#187;</text><ellipse cx="18" cy="102.209" fill="none" rx="3" ry="3" style="stroke:#038048;stroke-width:1.0;"/><text fill="#000000" font-family="sans-serif" font-size="14" lengthAdjust="spacing" textLength="187" x="27" y="106">ObterMaiorX : double &#171;get&#187;</text><ellipse cx="18" cy="118.6973" fill="none" rx="3" ry="3" style="stroke:#038048;stroke-width:1.0;"/><text fill="#000000" font-family="sans-serif" font-size="14" lengthAdjust="spacing" textLength="187" x="27" y="122.4883">ObterMaiorY : double &#171;get&#187;</text><ellipse cx="18" cy="135.1855" fill="none" rx="3" ry="3" style="stroke:#038048;stroke-width:1.0;"/><text fill="#000000" font-family="sans-serif" font-size="14" lengthAdjust="spacing" textLength="186" x="27" y="138.9766">ObterMaiorZ : double &#171;get&#187;</text><line style="stroke:#181818;stroke-width:0.5;" x1="8" x2="511" y1="145.9297" y2="145.9297"/><ellipse cx="18" cy="159.6738" fill="#84BE84" rx="3" ry="3" style="stroke:#038048;stroke-width:1.0;"/><text fill="#000000" font-family="sans-serif" font-size="14" lengthAdjust="spacing" textLength="44" x="27" y="163.4648">BBox()</text><ellipse cx="18" cy="176.1621" fill="#84BE84" rx="3" ry="3" style="stroke:#038048;stroke-width:1.0;"/><text fill="#000000" font-family="sans-serif" font-size="14" lengthAdjust="spacing" textLength="479" x="27" y="179.9531">Atualizar(matriz:Transformacao4D, pontosLista:List&lt;Ponto4D&gt;) : void</text><ellipse cx="18" cy="192.6504" fill="#84BE84" rx="3" ry="3" style="stroke:#038048;stroke-width:1.0;"/><text fill="#000000" font-family="sans-serif" font-size="14" lengthAdjust="spacing" textLength="186" x="27" y="196.4414">Dentro(pto:Ponto4D) : bool</text><ellipse cx="18" cy="209.1387" fill="#84BE84" rx="3" ry="3" style="stroke:#038048;stroke-width:1.0;"/><text fill="#000000" font-family="sans-serif" font-size="14" lengthAdjust="spacing" textLength="116" x="27" y="212.9297">Desenhar() : void</text></g><!--class Ponto4D--><g id="elem_Ponto4D"><rect fill="#F1F1F1" height="48" id="Ponto4D" rx="2.5" ry="2.5" style="stroke:#181818;stroke-width:0.5;" width="91" x="214" y="279.88"/><ellipse cx="229" cy="295.88" fill="#ADD1B2" rx="11" ry="11" style="stroke:#181818;stroke-width:1.0;"/><path d="M231.4731,302.0231 Q230.8921,302.3219 230.2529,302.4713 Q229.6138,302.6207 228.9082,302.6207 Q226.4014,302.6207 225.0815,300.9689 Q223.7617,299.317 223.7617,296.1959 Q223.7617,293.0665 225.0815,291.4147 Q226.4014,289.7628 228.9082,289.7628 Q229.6138,289.7628 230.2612,289.9122 Q230.9087,290.0616 231.4731,290.3605 L231.4731,293.0831 Q230.8423,292.5021 230.2488,292.2323 Q229.6553,291.9625 229.0244,291.9625 Q227.6797,291.9625 226.9949,293.0292 Q226.3101,294.0958 226.3101,296.1959 Q226.3101,298.2877 226.9949,299.3544 Q227.6797,300.421 229.0244,300.421 Q229.6553,300.421 230.2488,300.1512 Q230.8423,299.8815 231.4731,299.3004 Z " fill="#000000"/><text fill="#000000" font-family="sans-serif" font-size="14" lengthAdjust="spacing" textLength="59" x="243" y="301.171">Ponto4D</text><line style="stroke:#181818;stroke-width:0.5;" x1="215" x2="304" y1="311.88" y2="311.88"/><line style="stroke:#181818;stroke-width:0.5;" x1="215" x2="304" y1="319.88" y2="319.88"/></g><!--link BBox to Ponto4D--><g id="link_BBox_Ponto4D"><path codeLine="13" d="M259.5,220.23 C259.5,242.54 259.5,257.98 259.5,273.43 " fill="none" id="BBox-to-Ponto4D" style="stroke:#181818;stroke-width:1.0;"/><polygon fill="#181818" points="259.5,279.43,263.5,270.43,259.5,274.43,255.5,270.43,259.5,279.43" style="stroke:#181818;stroke-width:1.0;"/><text fill="#000000" font-family="sans-serif" font-size="13" lengthAdjust="spacing" textLength="77" x="173.1156" y="269.2484">ObterCentro</text></g><!--SRC=[XP2n2i8m48RtFiNXrABTEfKIi6PKT72mRjSsQg3DbIGLgVZkDYMuYFQ6Wxlxk1- -ga5Z8C_f0Sy0nbfEGnZvOMrxREI0EcpHQZcaHutAN4YtM24bV0KTAKjcAut5rFNiu1O9Pn6aS2TP-qzSAAifx2obdd10ITHuO5zQeNT2aJwDXvhwiX6GPLTX6Vj2Ydda_1z1EHlaa68U-Hd4XH7gDhhxg7W5a-euPh2O7cmcAmlmIju0]--></g></svg>