<?xml version="1.0" encoding="us-ascii" standalone="no"?><svg xmlns="http://www.w3.org/2000/svg" xmlns:xlink="http://www.w3.org/1999/xlink" contentStyleType="text/css" height="648px" preserveAspectRatio="none" style="width:576px;height:648px;background:#FFFFFF;" version="1.1" viewBox="0 0 576 648" width="576px" zoomAndPan="magnify"><defs/><g><!--class Objeto--><g id="elem_Objeto"><rect codeLine="1" fill="#F1F1F1" height="526.1602" id="Objeto" rx="2.5" ry="2.5" style="stroke:#181818;stroke-width:0.5;" width="562" x="7" y="7"/><ellipse cx="260.75" cy="23" fill="#ADD1B2" rx="11" ry="11" style="stroke:#181818;stroke-width:1.0;"/><path d="M263.2231,29.1431 Q262.6421,29.4419 262.0029,29.5913 Q261.3638,29.7407 260.6582,29.7407 Q258.1514,29.7407 256.8315,28.0889 Q255.5117,26.437 255.5117,23.3159 Q255.5117,20.1865 256.8315,18.5347 Q258.1514,16.8828 260.6582,16.8828 Q261.3638,16.8828 262.0112,17.0322 Q262.6587,17.1816 263.2231,17.4805 L263.2231,20.2031 Q262.5923,19.6221 261.9988,19.3523 Q261.4053,19.0825 260.7744,19.0825 Q259.4297,19.0825 258.7449,20.1492 Q258.0601,21.2158 258.0601,23.3159 Q258.0601,25.4077 258.7449,26.4744 Q259.4297,27.541 260.7744,27.541 Q261.4053,27.541 261.9988,27.2712 Q262.5923,27.0015 263.2231,26.4204 Z " fill="#000000"/><text fill="#000000" font-family="sans-serif" font-size="14" lengthAdjust="spacing" textLength="46" x="281.25" y="28.291">Objeto</text><line style="stroke:#181818;stroke-width:0.5;" x1="8" x2="568" y1="39" y2="39"/><ellipse cx="18" cy="52.7441" fill="none" rx="3" ry="3" style="stroke:#038048;stroke-width:1.0;"/><text fill="#000000" font-family="sans-serif" font-size="14" lengthAdjust="spacing" textLength="127" x="27" y="56.5352">Rotulo : char &#171;get&#187;</text><ellipse cx="18" cy="69.2324" fill="none" rx="3" ry="3" style="stroke:#038048;stroke-width:1.0;"/><text fill="#000000" font-family="sans-serif" font-size="14" lengthAdjust="spacing" textLength="245" x="27" y="73.0234">PrimitivaTamanho : float &#171;get&#187; &#171;set&#187;</text><ellipse cx="18" cy="85.7207" fill="none" rx="3" ry="3" style="stroke:#038048;stroke-width:1.0;"/><text fill="#000000" font-family="sans-serif" font-size="14" lengthAdjust="spacing" textLength="213" x="27" y="89.5117">PontosListaTamanho : int &#171;get&#187;</text><line style="stroke:#181818;stroke-width:0.5;" x1="8" x2="568" y1="96.4648" y2="96.4648"/><ellipse cx="18" cy="110.209" fill="#84BE84" rx="3" ry="3" style="stroke:#038048;stroke-width:1.0;"/><text fill="#000000" font-family="sans-serif" font-size="14" lengthAdjust="spacing" textLength="91" x="27" y="114">Bbox() : BBox</text><ellipse cx="18" cy="126.6973" fill="#84BE84" rx="3" ry="3" style="stroke:#038048;stroke-width:1.0;"/><text fill="#000000" font-family="sans-serif" font-size="14" lengthAdjust="spacing" textLength="383" x="27" y="130.4883">Objeto(_paiRef:Objeto, _rotulo:char, objetoFilho:Objeto)</text><ellipse cx="18" cy="143.1855" fill="#84BE84" rx="3" ry="3" style="stroke:#038048;stroke-width:1.0;"/><text fill="#000000" font-family="sans-serif" font-size="14" lengthAdjust="spacing" textLength="157" x="27" y="146.9766">ObjetoRemover() : void</text><ellipse cx="18" cy="159.6738" fill="#84BE84" rx="3" ry="3" style="stroke:#038048;stroke-width:1.0;"/><text fill="#000000" font-family="sans-serif" font-size="14" lengthAdjust="spacing" textLength="159" x="27" y="163.4648">ObjetoAtualizar() : void</text><ellipse cx="18" cy="176.1621" fill="#84BE84" rx="3" ry="3" style="stroke:#038048;stroke-width:1.0;"/><text fill="#000000" font-family="sans-serif" font-size="14" lengthAdjust="spacing" textLength="513" x="27" y="179.9531">ObjetoMatrizGlobal(matrizGlobalPai:Transformacao4D) : Transformacao4D</text><ellipse cx="18" cy="192.6504" fill="#84BE84" rx="3" ry="3" style="stroke:#038048;stroke-width:1.0;"/><text fill="#000000" font-family="sans-serif" font-size="14" lengthAdjust="spacing" textLength="510" x="27" y="196.4414">Desenhar(matrizGrafo:Transformacao4D, objetoSelecionado:Objeto) : void</text><ellipse cx="18" cy="209.1387" fill="#84BE84" rx="3" ry="3" style="stroke:#038048;stroke-width:1.0;"/><text fill="#000000" font-family="sans-serif" font-size="14" lengthAdjust="spacing" textLength="232" x="27" y="212.9297">FilhoAdicionar(filho:Objeto) : void</text><ellipse cx="18" cy="225.627" fill="#84BE84" rx="3" ry="3" style="stroke:#038048;stroke-width:1.0;"/><text fill="#000000" font-family="sans-serif" font-size="14" lengthAdjust="spacing" textLength="176" x="27" y="229.418">PontosId(id:int) : Ponto4D</text><ellipse cx="18" cy="242.1152" fill="#84BE84" rx="3" ry="3" style="stroke:#038048;stroke-width:1.0;"/><text fill="#000000" font-family="sans-serif" font-size="14" lengthAdjust="spacing" textLength="250" x="27" y="245.9063">PontosAdicionar(pto:Ponto4D) : void</text><ellipse cx="18" cy="258.6035" fill="#84BE84" rx="3" ry="3" style="stroke:#038048;stroke-width:1.0;"/><text fill="#000000" font-family="sans-serif" font-size="14" lengthAdjust="spacing" textLength="314" x="27" y="262.3945">PontosAlterar(pto:Ponto4D, posicao:int) : void</text><ellipse cx="18" cy="275.0918" fill="#84BE84" rx="3" ry="3" style="stroke:#038048;stroke-width:1.0;"/><text fill="#000000" font-family="sans-serif" font-size="14" lengthAdjust="spacing" textLength="148" x="27" y="278.8828">PontosApagar() : void</text><ellipse cx="18" cy="291.5801" fill="#84BE84" rx="3" ry="3" style="stroke:#038048;stroke-width:1.0;"/><text fill="#000000" font-family="sans-serif" font-size="14" lengthAdjust="spacing" textLength="348" x="27" y="295.3711">MatrizGlobalInversa(mousePto:Ponto4D) : Ponto4D</text><ellipse cx="18" cy="308.0684" fill="#84BE84" rx="3" ry="3" style="stroke:#038048;stroke-width:1.0;"/><text fill="#000000" font-family="sans-serif" font-size="14" lengthAdjust="spacing" textLength="378" x="27" y="311.8594">PontoMaisPerto(mousePto:Ponto4D, remover:bool) : int</text><ellipse cx="18" cy="324.5566" fill="#84BE84" rx="3" ry="3" style="stroke:#038048;stroke-width:1.0;"/><text fill="#000000" font-family="sans-serif" font-size="14" lengthAdjust="spacing" textLength="260" x="27" y="328.3477">GrafocenaBusca(_rotulo:char) : Objeto</text><ellipse cx="18" cy="341.0449" fill="#84BE84" rx="3" ry="3" style="stroke:#038048;stroke-width:1.0;"/><text fill="#000000" font-family="sans-serif" font-size="14" lengthAdjust="spacing" textLength="536" x="27" y="344.8359">GrafocenaAtualizar(lista:Dictionary&lt;char, Objeto&gt;) : Dictionary&lt;char, Objeto&gt;</text><ellipse cx="18" cy="357.5332" fill="#84BE84" rx="3" ry="3" style="stroke:#038048;stroke-width:1.0;"/><text fill="#000000" font-family="sans-serif" font-size="14" lengthAdjust="spacing" textLength="242" x="27" y="361.3242">GrafocenaImprimir(idt:string) : void</text><ellipse cx="18" cy="374.0215" fill="#84BE84" rx="3" ry="3" style="stroke:#038048;stroke-width:1.0;"/><text fill="#000000" font-family="sans-serif" font-size="14" lengthAdjust="spacing" textLength="153" x="27" y="377.8125">MatrizImprimir() : void</text><ellipse cx="18" cy="390.5098" fill="#84BE84" rx="3" ry="3" style="stroke:#038048;stroke-width:1.0;"/><text fill="#000000" font-family="sans-serif" font-size="14" lengthAdjust="spacing" textLength="220" x="27" y="394.3008">MatrizAtribuirIdentidade() : void</text><ellipse cx="18" cy="406.998" fill="#84BE84" rx="3" ry="3" style="stroke:#038048;stroke-width:1.0;"/><text fill="#000000" font-family="sans-serif" font-size="14" lengthAdjust="spacing" textLength="406" x="27" y="410.7891">MatrizTranslacaoXYZ(tx:double, ty:double, tz:double) : void</text><ellipse cx="18" cy="423.4863" fill="#84BE84" rx="3" ry="3" style="stroke:#038048;stroke-width:1.0;"/><text fill="#000000" font-family="sans-serif" font-size="14" lengthAdjust="spacing" textLength="382" x="27" y="427.2773">MatrizEscalaXYZ(Sx:double, Sy:double, Sz:double) : void</text><ellipse cx="18" cy="439.9746" fill="#84BE84" rx="3" ry="3" style="stroke:#038048;stroke-width:1.0;"/><text fill="#000000" font-family="sans-serif" font-size="14" lengthAdjust="spacing" textLength="416" x="27" y="443.7656">MatrizEscalaXYZBBox(Sx:double, Sy:double, Sz:double) : void</text><ellipse cx="18" cy="456.4629" fill="#84BE84" rx="3" ry="3" style="stroke:#038048;stroke-width:1.0;"/><text fill="#000000" font-family="sans-serif" font-size="14" lengthAdjust="spacing" textLength="279" x="27" y="460.2539">MatrizRotacaoEixo(angulo:double) : void</text><ellipse cx="18" cy="472.9512" fill="#84BE84" rx="3" ry="3" style="stroke:#038048;stroke-width:1.0;"/><text fill="#000000" font-family="sans-serif" font-size="14" lengthAdjust="spacing" textLength="249" x="27" y="476.7422">MatrizRotacao(angulo:double) : void</text><ellipse cx="18" cy="489.4395" fill="#84BE84" rx="3" ry="3" style="stroke:#038048;stroke-width:1.0;"/><text fill="#000000" font-family="sans-serif" font-size="14" lengthAdjust="spacing" textLength="291" x="27" y="493.2305">MatrizRotacaoZBBox(angulo:double) : void</text><ellipse cx="18" cy="505.9277" fill="#84BE84" rx="3" ry="3" style="stroke:#038048;stroke-width:1.0;"/><text fill="#000000" font-family="sans-serif" font-size="14" lengthAdjust="spacing" textLength="120" x="27" y="509.7188">OnUnload() : void</text><ellipse cx="18" cy="522.416" fill="#84BE84" rx="3" ry="3" style="stroke:#038048;stroke-width:1.0;"/><text fill="#000000" font-family="sans-serif" font-size="14" lengthAdjust="spacing" textLength="428" x="27" y="526.207">ScanLine(ptoClique:Ponto4D, objetoSelecionado:Objeto) : bool</text></g><!--class PrimitiveType--><g id="elem_PrimitiveType"><rect fill="#F1F1F1" height="48" id="PrimitiveType" rx="2.5" ry="2.5" style="stroke:#181818;stroke-width:0.5;" width="124" x="158" y="593.16"/><ellipse cx="173" cy="609.16" fill="#ADD1B2" rx="11" ry="11" style="stroke:#181818;stroke-width:1.0;"/><path d="M175.4731,615.3031 Q174.8921,615.6019 174.2529,615.7513 Q173.6138,615.9007 172.9082,615.9007 Q170.4014,615.9007 169.0815,614.2489 Q167.7617,612.597 167.7617,609.4759 Q167.7617,606.3465 169.0815,604.6947 Q170.4014,603.0428 172.9082,603.0428 Q173.6138,603.0428 174.2612,603.1922 Q174.9087,603.3416 175.4731,603.6405 L175.4731,606.3631 Q174.8423,605.7821 174.2488,605.5123 Q173.6553,605.2425 173.0244,605.2425 Q171.6797,605.2425 170.9949,606.3092 Q170.3101,607.3758 170.3101,609.4759 Q170.3101,611.5677 170.9949,612.6344 Q171.6797,613.701 173.0244,613.701 Q173.6553,613.701 174.2488,613.4312 Q174.8423,613.1615 175.4731,612.5804 Z " fill="#000000"/><text fill="#000000" font-family="sans-serif" font-size="14" lengthAdjust="spacing" textLength="92" x="187" y="614.451">PrimitiveType</text><line style="stroke:#181818;stroke-width:0.5;" x1="159" x2="281" y1="625.16" y2="625.16"/><line style="stroke:#181818;stroke-width:0.5;" x1="159" x2="281" y1="633.16" y2="633.16"/></g><!--class Shader--><g id="elem_Shader"><rect fill="#F1F1F1" height="48" id="Shader" rx="2.5" ry="2.5" style="stroke:#181818;stroke-width:0.5;" width="80" x="317" y="593.16"/><ellipse cx="332" cy="609.16" fill="#ADD1B2" rx="11" ry="11" style="stroke:#181818;stroke-width:1.0;"/><path d="M334.4731,615.3031 Q333.8921,615.6019 333.2529,615.7513 Q332.6138,615.9007 331.9082,615.9007 Q329.4014,615.9007 328.0815,614.2489 Q326.7617,612.597 326.7617,609.4759 Q326.7617,606.3465 328.0815,604.6947 Q329.4014,603.0428 331.9082,603.0428 Q332.6138,603.0428 333.2612,603.1922 Q333.9087,603.3416 334.4731,603.6405 L334.4731,606.3631 Q333.8423,605.7821 333.2488,605.5123 Q332.6553,605.2425 332.0244,605.2425 Q330.6797,605.2425 329.9949,606.3092 Q329.3101,607.3758 329.3101,609.4759 Q329.3101,611.5677 329.9949,612.6344 Q330.6797,613.701 332.0244,613.701 Q332.6553,613.701 333.2488,613.4312 Q333.8423,613.1615 334.4731,612.5804 Z " fill="#000000"/><text fill="#000000" font-family="sans-serif" font-size="14" lengthAdjust="spacing" textLength="48" x="346" y="614.451">Shader</text><line style="stroke:#181818;stroke-width:0.5;" x1="318" x2="396" y1="625.16" y2="625.16"/><line style="stroke:#181818;stroke-width:0.5;" x1="318" x2="396" y1="633.16" y2="633.16"/></g><!--link Objeto to PrimitiveType--><g id="link_Objeto_PrimitiveType"><path codeLine="32" d="M236.29,533.5 C231.59,557.34 228.6813,572.1235 225.7813,586.8235 " fill="none" id="Objeto-to-PrimitiveType" style="stroke:#181818;stroke-width:1.0;"/><polygon fill="#181818" points="224.62,592.71,230.2863,584.6544,225.5877,587.8045,222.4376,583.106,224.62,592.71" style="stroke:#181818;stroke-width:1.0;"/><text fill="#000000" font-family="sans-serif" font-size="13" lengthAdjust="spacing" textLength="83" x="132.6305" y="582.5284">PrimitivaTipo</text></g><!--link Objeto to Shader--><g id="link_Objeto_Shader"><path codeLine="33" d="M340.47,533.5 C345.24,557.34 348.1933,572.1265 351.1333,586.8265 " fill="none" id="Objeto-to-Shader" style="stroke:#181818;stroke-width:1.0;"/><polygon fill="#181818" points="352.31,592.71,354.4673,583.1003,351.3294,587.8071,346.6226,584.6692,352.31,592.71" style="stroke:#181818;stroke-width:1.0;"/><text fill="#000000" font-family="sans-serif" font-size="13" lengthAdjust="spacing" textLength="84" x="290.2845" y="582.4666">ShaderObjeto</text></g><!--SRC=[dLHDZzem4BtpAonEGMLlFKK82SgsGjhL8aAbjfVL975WAiUJsWu2glxtsd4W7vlThfe3YJtlFMQUnvC8q9eznJ-v8VPxnEppWMt9b89Oo983A3QRxRcPp-lOHc6E1e-mWnpamQ4oGM2kCFlMRJX9G_e1jMaHK9gUwZAcKp2neUMIJlMUJofuBW2tF0lzSigULPLTw7ARCgfsFwCuK8sOTEXRdjEHgqhxI9XsWWjJWi0Bl19-1AFmyaLG32B8MuiDOBXJ87L6AeS4wEFA2VIsQgqLrrpQNAyA2ZBgiwzrH5pm14b2UgkccrXLw2B52gI2h5rt5-cDNwS1fg7rsqMhhLjU7j1e5OR26Z4ejH26govkoWhIQ2ku_iDBKW7xb_QsZLrBUpmQWfnApJVT70OIVWJK6wviN_G9KwRyMOSnaPZuDgkfbUa9bx0iTG91kuKSq1lOnpRT8LpxXYjCJ6NLUUPxpzFcJk6rM5zpdHVk_YXxAYRKrWMv7_JcXXkCBknFNA9QfrmQJ27bmxYgouHhiM_VVmJc5APKne9FcJatdvVwSr3XtjebmB6ZXXqrxEXzR7Uh_ql1JYAN_ZsUA02vTuVsR_JxaJwnj-1Fygkquotj6nmb81zGSdSTFWdyLVAc3z-wowutHtz6zS2zkvkpSJDHiQ3nRS3otRdW7M1qi2Uj_CwO-TLV]--></g></svg>