<?xml version="1.0" encoding="us-ascii" standalone="no"?><svg xmlns="http://www.w3.org/2000/svg" xmlns:xlink="http://www.w3.org/1999/xlink" contentStyleType="text/css" height="549px" preserveAspectRatio="none" style="width:456px;height:549px;background:#FFFFFF;" version="1.1" viewBox="0 0 456 549" width="456px" zoomAndPan="magnify"><defs/><g><!--class Objeto--><g id="elem_Objeto"><rect codeLine="1" fill="#F1F1F1" height="427.2305" id="Objeto" rx="2.5" ry="2.5" style="stroke:#181818;stroke-width:0.5;" width="442" x="7" y="7"/><ellipse cx="200.75" cy="23" fill="#ADD1B2" rx="11" ry="11" style="stroke:#181818;stroke-width:1.0;"/><path d="M203.2231,29.1431 Q202.6421,29.4419 202.0029,29.5913 Q201.3638,29.7407 200.6582,29.7407 Q198.1514,29.7407 196.8315,28.0889 Q195.5117,26.437 195.5117,23.3159 Q195.5117,20.1865 196.8315,18.5347 Q198.1514,16.8828 200.6582,16.8828 Q201.3638,16.8828 202.0112,17.0322 Q202.6587,17.1816 203.2231,17.4805 L203.2231,20.2031 Q202.5923,19.6221 201.9988,19.3523 Q201.4053,19.0825 200.7744,19.0825 Q199.4297,19.0825 198.7449,20.1492 Q198.0601,21.2158 198.0601,23.3159 Q198.0601,25.4077 198.7449,26.4744 Q199.4297,27.541 200.7744,27.541 Q201.4053,27.541 201.9988,27.2712 Q202.5923,27.0015 203.2231,26.4204 Z " fill="#000000"/><text fill="#000000" font-family="sans-serif" font-size="14" lengthAdjust="spacing" textLength="46" x="221.25" y="28.291">Objeto</text><line style="stroke:#181818;stroke-width:0.5;" x1="8" x2="448" y1="39" y2="39"/><ellipse cx="18" cy="52.7441" fill="none" rx="3" ry="3" style="stroke:#038048;stroke-width:1.0;"/><text fill="#000000" font-family="sans-serif" font-size="14" lengthAdjust="spacing" textLength="127" x="27" y="56.5352">Rotulo : char &#171;get&#187;</text><ellipse cx="18" cy="69.2324" fill="none" rx="3" ry="3" style="stroke:#038048;stroke-width:1.0;"/><text fill="#000000" font-family="sans-serif" font-size="14" lengthAdjust="spacing" textLength="245" x="27" y="73.0234">PrimitivaTamanho : float &#171;get&#187; &#171;set&#187;</text><line style="stroke:#181818;stroke-width:0.5;" x1="8" x2="448" y1="79.9766" y2="79.9766"/><ellipse cx="18" cy="93.7207" fill="#84BE84" rx="3" ry="3" style="stroke:#038048;stroke-width:1.0;"/><text fill="#000000" font-family="sans-serif" font-size="14" lengthAdjust="spacing" textLength="91" x="27" y="97.5117">Bbox() : BBox</text><ellipse cx="18" cy="110.209" fill="#84BE84" rx="3" ry="3" style="stroke:#038048;stroke-width:1.0;"/><text fill="#000000" font-family="sans-serif" font-size="14" lengthAdjust="spacing" textLength="239" x="27" y="114">TrocaEixoRotacao(eixo:char) : void</text><ellipse cx="18" cy="126.6973" fill="#84BE84" rx="3" ry="3" style="stroke:#038048;stroke-width:1.0;"/><text fill="#000000" font-family="sans-serif" font-size="14" lengthAdjust="spacing" textLength="376" x="27" y="130.4883">Objeto(paiRef:Objeto, _rotulo:char, objetoFilho:Objeto)</text><ellipse cx="18" cy="143.1855" fill="#84BE84" rx="3" ry="3" style="stroke:#038048;stroke-width:1.0;"/><text fill="#000000" font-family="sans-serif" font-size="14" lengthAdjust="spacing" textLength="159" x="27" y="146.9766">ObjetoAtualizar() : void</text><ellipse cx="18" cy="159.6738" fill="#84BE84" rx="3" ry="3" style="stroke:#038048;stroke-width:1.0;"/><text fill="#000000" font-family="sans-serif" font-size="14" lengthAdjust="spacing" textLength="325" x="27" y="163.4648">Desenhar(matrizGrafo:Transformacao4D) : void</text><ellipse cx="18" cy="176.1621" fill="#84BE84" rx="3" ry="3" style="stroke:#038048;stroke-width:1.0;"/><text fill="#000000" font-family="sans-serif" font-size="14" lengthAdjust="spacing" textLength="232" x="27" y="179.9531">FilhoAdicionar(filho:Objeto) : void</text><ellipse cx="18" cy="192.6504" fill="#84BE84" rx="3" ry="3" style="stroke:#038048;stroke-width:1.0;"/><text fill="#000000" font-family="sans-serif" font-size="14" lengthAdjust="spacing" textLength="176" x="27" y="196.4414">PontosId(id:int) : Ponto4D</text><ellipse cx="18" cy="209.1387" fill="#84BE84" rx="3" ry="3" style="stroke:#038048;stroke-width:1.0;"/><text fill="#000000" font-family="sans-serif" font-size="14" lengthAdjust="spacing" textLength="250" x="27" y="212.9297">PontosAdicionar(pto:Ponto4D) : void</text><ellipse cx="18" cy="225.627" fill="#84BE84" rx="3" ry="3" style="stroke:#038048;stroke-width:1.0;"/><text fill="#000000" font-family="sans-serif" font-size="14" lengthAdjust="spacing" textLength="314" x="27" y="229.418">PontosAlterar(pto:Ponto4D, posicao:int) : void</text><ellipse cx="18" cy="242.1152" fill="#84BE84" rx="3" ry="3" style="stroke:#038048;stroke-width:1.0;"/><text fill="#000000" font-family="sans-serif" font-size="14" lengthAdjust="spacing" textLength="260" x="27" y="245.9063">GrafocenaBusca(_rotulo:char) : Objeto</text><ellipse cx="18" cy="258.6035" fill="#84BE84" rx="3" ry="3" style="stroke:#038048;stroke-width:1.0;"/><text fill="#000000" font-family="sans-serif" font-size="14" lengthAdjust="spacing" textLength="365" x="27" y="262.3945">GrafocenaBuscaProximo(objetoAtual:Objeto) : Objeto</text><ellipse cx="18" cy="275.0918" fill="#84BE84" rx="3" ry="3" style="stroke:#038048;stroke-width:1.0;"/><text fill="#000000" font-family="sans-serif" font-size="14" lengthAdjust="spacing" textLength="243" x="27" y="278.8828">GrafocenaImprimir(idt:String) : void</text><ellipse cx="18" cy="291.5801" fill="#84BE84" rx="3" ry="3" style="stroke:#038048;stroke-width:1.0;"/><text fill="#000000" font-family="sans-serif" font-size="14" lengthAdjust="spacing" textLength="153" x="27" y="295.3711">MatrizImprimir() : void</text><ellipse cx="18" cy="308.0684" fill="#84BE84" rx="3" ry="3" style="stroke:#038048;stroke-width:1.0;"/><text fill="#000000" font-family="sans-serif" font-size="14" lengthAdjust="spacing" textLength="220" x="27" y="311.8594">MatrizAtribuirIdentidade() : void</text><ellipse cx="18" cy="324.5566" fill="#84BE84" rx="3" ry="3" style="stroke:#038048;stroke-width:1.0;"/><text fill="#000000" font-family="sans-serif" font-size="14" lengthAdjust="spacing" textLength="406" x="27" y="328.3477">MatrizTranslacaoXYZ(tx:double, ty:double, tz:double) : void</text><ellipse cx="18" cy="341.0449" fill="#84BE84" rx="3" ry="3" style="stroke:#038048;stroke-width:1.0;"/><text fill="#000000" font-family="sans-serif" font-size="14" lengthAdjust="spacing" textLength="382" x="27" y="344.8359">MatrizEscalaXYZ(Sx:double, Sy:double, Sz:double) : void</text><ellipse cx="18" cy="357.5332" fill="#84BE84" rx="3" ry="3" style="stroke:#038048;stroke-width:1.0;"/><text fill="#000000" font-family="sans-serif" font-size="14" lengthAdjust="spacing" textLength="416" x="27" y="361.3242">MatrizEscalaXYZBBox(Sx:double, Sy:double, Sz:double) : void</text><ellipse cx="18" cy="374.0215" fill="#84BE84" rx="3" ry="3" style="stroke:#038048;stroke-width:1.0;"/><text fill="#000000" font-family="sans-serif" font-size="14" lengthAdjust="spacing" textLength="279" x="27" y="377.8125">MatrizRotacaoEixo(angulo:double) : void</text><ellipse cx="18" cy="390.5098" fill="#84BE84" rx="3" ry="3" style="stroke:#038048;stroke-width:1.0;"/><text fill="#000000" font-family="sans-serif" font-size="14" lengthAdjust="spacing" textLength="249" x="27" y="394.3008">MatrizRotacao(angulo:double) : void</text><ellipse cx="18" cy="406.998" fill="#84BE84" rx="3" ry="3" style="stroke:#038048;stroke-width:1.0;"/><text fill="#000000" font-family="sans-serif" font-size="14" lengthAdjust="spacing" textLength="291" x="27" y="410.7891">MatrizRotacaoZBBox(angulo:double) : void</text><ellipse cx="18" cy="423.4863" fill="#84BE84" rx="3" ry="3" style="stroke:#038048;stroke-width:1.0;"/><text fill="#000000" font-family="sans-serif" font-size="14" lengthAdjust="spacing" textLength="120" x="27" y="427.2773">OnUnload() : void</text></g><!--class PrimitiveType--><g id="elem_PrimitiveType"><rect fill="#F1F1F1" height="48" id="PrimitiveType" rx="2.5" ry="2.5" style="stroke:#181818;stroke-width:0.5;" width="124" x="98" y="494.23"/><ellipse cx="113" cy="510.23" fill="#ADD1B2" rx="11" ry="11" style="stroke:#181818;stroke-width:1.0;"/><path d="M115.4731,516.3731 Q114.8921,516.6719 114.2529,516.8213 Q113.6138,516.9707 112.9082,516.9707 Q110.4014,516.9707 109.0815,515.3189 Q107.7617,513.667 107.7617,510.5459 Q107.7617,507.4165 109.0815,505.7647 Q110.4014,504.1128 112.9082,504.1128 Q113.6138,504.1128 114.2612,504.2622 Q114.9087,504.4116 115.4731,504.7105 L115.4731,507.4331 Q114.8423,506.8521 114.2488,506.5823 Q113.6553,506.3125 113.0244,506.3125 Q111.6797,506.3125 110.9949,507.3792 Q110.3101,508.4458 110.3101,510.5459 Q110.3101,512.6377 110.9949,513.7044 Q111.6797,514.771 113.0244,514.771 Q113.6553,514.771 114.2488,514.5012 Q114.8423,514.2315 115.4731,513.6504 Z " fill="#000000"/><text fill="#000000" font-family="sans-serif" font-size="14" lengthAdjust="spacing" textLength="92" x="127" y="515.521">PrimitiveType</text><line style="stroke:#181818;stroke-width:0.5;" x1="99" x2="221" y1="526.23" y2="526.23"/><line style="stroke:#181818;stroke-width:0.5;" x1="99" x2="221" y1="534.23" y2="534.23"/></g><!--class Shader--><g id="elem_Shader"><rect fill="#F1F1F1" height="48" id="Shader" rx="2.5" ry="2.5" style="stroke:#181818;stroke-width:0.5;" width="80" x="257" y="494.23"/><ellipse cx="272" cy="510.23" fill="#ADD1B2" rx="11" ry="11" style="stroke:#181818;stroke-width:1.0;"/><path d="M274.4731,516.3731 Q273.8921,516.6719 273.2529,516.8213 Q272.6138,516.9707 271.9082,516.9707 Q269.4014,516.9707 268.0815,515.3189 Q266.7617,513.667 266.7617,510.5459 Q266.7617,507.4165 268.0815,505.7647 Q269.4014,504.1128 271.9082,504.1128 Q272.6138,504.1128 273.2612,504.2622 Q273.9087,504.4116 274.4731,504.7105 L274.4731,507.4331 Q273.8423,506.8521 273.2488,506.5823 Q272.6553,506.3125 272.0244,506.3125 Q270.6797,506.3125 269.9949,507.3792 Q269.3101,508.4458 269.3101,510.5459 Q269.3101,512.6377 269.9949,513.7044 Q270.6797,514.771 272.0244,514.771 Q272.6553,514.771 273.2488,514.5012 Q273.8423,514.2315 274.4731,513.6504 Z " fill="#000000"/><text fill="#000000" font-family="sans-serif" font-size="14" lengthAdjust="spacing" textLength="48" x="286" y="515.521">Shader</text><line style="stroke:#181818;stroke-width:0.5;" x1="258" x2="336" y1="526.23" y2="526.23"/><line style="stroke:#181818;stroke-width:0.5;" x1="258" x2="336" y1="534.23" y2="534.23"/></g><!--link Objeto to PrimitiveType--><g id="link_Objeto_PrimitiveType"><path codeLine="26" d="M179.03,434.49 C173.61,458.08 170.1657,473.0529 166.7457,487.9129 " fill="none" id="Objeto-to-PrimitiveType" style="stroke:#181818;stroke-width:1.0;"/><polygon fill="#181818" points="165.4,493.76,171.3167,485.8864,166.5214,488.8874,163.5205,484.0921,165.4,493.76" style="stroke:#181818;stroke-width:1.0;"/><text fill="#000000" font-family="sans-serif" font-size="13" lengthAdjust="spacing" textLength="83" x="73.6006" y="483.5735">PrimitivaTipo</text></g><!--link Objeto to Shader--><g id="link_Objeto_Shader"><path codeLine="27" d="M277.69,434.49 C283.19,458.08 286.6856,473.0572 290.1556,487.9172 " fill="none" id="Objeto-to-Shader" style="stroke:#181818;stroke-width:1.0;"/><polygon fill="#181818" points="291.52,493.76,293.3687,484.0862,290.383,488.891,285.5782,485.9054,291.52,493.76" style="stroke:#181818;stroke-width:1.0;"/><text fill="#000000" font-family="sans-serif" font-size="13" lengthAdjust="spacing" textLength="84" x="229.3004" y="483.5117">shaderObjeto</text></g><!--SRC=[dPHDQ-Cm48Rl_HKY9uMcjvvC2IGaMt9O4keij7jP9fQSJ94rHfABczB_NabsQpkOtR8-sFfutlcInfa2Qzdsy2mTiRShvfzhza2kKiGIbft0iBkxetJpURktCrYWmnVOGm7w5AXS4RXFp7zj3ryUgEPJ3osNLBThUqCPhB4cxmSo82xzE0c-0lX2A5gm2OkNW0yoJvhPZFqnCRmec36AgpzGdQWbfWFrmbMWy0o6NnXVIIkrDy4BS0RFzmPoIlO6jCt9526kszM597fP2CoGj1VcVQT3SaVQaTq8ZY91xS9kNBfT3O3ELkaeQObHKmlbf1boCrQIHH_dfuUUA6QJIGtBocR0-oKBP1FpABipL6D1dBhgzL8S5swACjmAuxDrIUghgOyNyVoCDVxYHdSN_dMeq6o4r0u523dEnJDIuO0UdtvpLoU2geEIC-PUk-6v7OvQMFiy5GHrsgdJJfr-Jnskz7zPQEzzQ04E-XXEvj_qzyaciB_XM_rB-wOLNO7Vhzf_mCtDd4sw9iUI9byzB_UlfHo0zkIFoJGh4vR6sGS0]--></g></svg>